<svg xmlns="http://www.w3.org/2000/svg" width="136" height="103" viewBox="0 0 136 103" version="1.1"><path d="M 66.198 0.857 C 65.294 1.430, 64.989 3.640, 65.198 8.091 C 65.464 13.733, 65.739 14.500, 67.500 14.500 C 69.307 14.500, 69.500 13.833, 69.500 7.583 C 69.500 0.762, 68.752 -0.761, 66.198 0.857 M 67.310 7.500 C 67.315 10.800, 67.502 12.029, 67.725 10.232 C 67.947 8.435, 67.943 5.735, 67.715 4.232 C 67.486 2.729, 67.304 4.200, 67.310 7.500 M 42.523 9.963 C 41.844 11.061, 44.964 16.821, 47.741 19.598 C 49.106 20.963, 49.458 20.970, 50.768 19.660 C 52.079 18.350, 51.913 17.674, 49.342 13.846 C 46.416 9.489, 43.753 7.972, 42.523 9.963 M 85.932 13.598 C 83.258 17.485, 82.980 18.408, 84.134 19.562 C 84.885 20.313, 85.984 20.606, 86.576 20.214 C 88.709 18.799, 92.834 11.732, 92.316 10.381 C 91.342 7.842, 89.124 8.959, 85.932 13.598 M 56.524 23.063 C 45.784 28.420, 39.612 39.823, 41.477 50.862 C 41.836 52.986, 44.350 58.498, 47.065 63.110 C 50.047 68.178, 52 72.694, 52 74.525 C 52 76.192, 52.641 78.471, 53.425 79.590 C 54.209 80.709, 54.545 82.119, 54.171 82.723 C 53.797 83.328, 53.718 86.675, 53.996 90.161 C 54.448 95.847, 54.738 96.534, 56.811 96.828 C 58.082 97.008, 59.374 97.812, 59.682 98.615 C 59.990 99.417, 61.586 100.769, 63.229 101.618 C 66.741 103.435, 70.509 102.776, 73.713 99.787 C 74.929 98.651, 76.954 97.207, 78.213 96.579 C 80.260 95.555, 80.505 94.702, 80.552 88.442 C 80.581 84.596, 80.924 80.933, 81.314 80.302 C 81.703 79.671, 82.447 76.917, 82.966 74.182 C 83.499 71.369, 85.623 66.557, 87.855 63.103 C 96.257 50.104, 95.343 37.373, 85.320 27.809 C 78.299 21.109, 64.876 18.897, 56.524 23.063 M 60.976 24.271 C 49.359 28.322, 43.221 37.597, 44.216 49.597 C 44.534 53.421, 45.820 56.691, 49.320 62.573 C 52.187 67.391, 54 71.634, 54 73.527 C 54 77.457, 55.813 79.888, 59 80.231 C 61.461 80.496, 61.504 80.375, 61.778 72.500 C 62.019 65.552, 61.592 63.127, 58.529 54.058 C 55.944 46.403, 55.320 43.420, 56.192 42.881 C 58.054 41.731, 62.904 44.769, 63.594 47.518 C 64.104 49.550, 64.831 50, 67.608 50 C 70.293 50, 71 49.598, 71 48.068 C 71 47.006, 72.307 45.206, 73.904 44.068 C 80.233 39.561, 80.805 41.666, 76.513 53.675 C 73.513 62.067, 73.001 64.776, 73 72.250 C 73 77.063, 73.421 81, 73.935 81 C 74.449 81, 75.924 80.599, 77.212 80.109 C 79.067 79.404, 79.809 77.988, 80.776 73.305 C 81.448 70.053, 83.172 65.841, 84.607 63.946 C 90.226 56.527, 92.279 48.379, 90.348 41.165 C 89.874 39.396, 89.507 39.154, 88.831 40.165 C 88.256 41.026, 88.157 40.558, 88.554 38.846 C 89.048 36.713, 88.430 35.374, 85.402 32.024 C 78.751 24.662, 68.858 21.522, 60.976 24.271 M 96.750 27.421 C 95.787 28.136, 95 29.458, 95 30.360 C 95 32.449, 98.333 32.508, 100.042 30.450 C 101.096 29.179, 101.073 28.649, 99.914 27.511 C 98.747 26.365, 98.194 26.350, 96.750 27.421 M 34 28.893 C 34 30.763, 35.824 32, 38.582 32 C 40.519 32, 40.383 28.361, 38.418 27.607 C 35.566 26.512, 34 26.968, 34 28.893 M 26 43.913 C 22.039 44.336, 20.500 44.920, 20.500 46 C 20.500 48.327, 34.777 48.745, 35.660 46.443 C 36.289 44.805, 34.437 42.892, 32.500 43.178 C 31.950 43.260, 29.025 43.590, 26 43.913 M 56.960 43.628 C 56.938 44.107, 58.160 48.550, 59.675 53.500 L 62.429 62.500 67.346 62.429 L 72.263 62.357 75.521 53.234 C 77.312 48.217, 78.532 43.865, 78.231 43.564 C 77.458 42.791, 75 44.999, 75 46.467 C 75 50.694, 64.887 52.743, 61.655 49.171 C 60.745 48.165, 60 46.871, 60 46.294 C 60 45.015, 57.016 42.398, 56.960 43.628 M 101.192 43.790 C 99.671 44.030, 98.992 44.726, 99.202 45.827 C 99.459 47.174, 100.934 47.557, 106.761 47.794 C 113.404 48.063, 114 47.925, 114 46.111 C 114 43.220, 109.722 42.445, 101.192 43.790 M 61.564 47.293 C 61.940 48.279, 62.499 48.834, 62.807 48.526 C 63.115 48.219, 62.808 47.412, 62.124 46.733 C 61.136 45.753, 61.022 45.868, 61.564 47.293 M 72.459 47.067 C 72.096 47.653, 72.014 48.348, 72.276 48.610 C 72.538 48.872, 73.019 48.392, 73.345 47.543 C 74.021 45.781, 73.445 45.471, 72.459 47.067 M 66 71 C 66 75.400, 65.976 79.338, 65.947 79.750 C 65.918 80.162, 66.593 80.645, 67.447 80.823 C 68.761 81.097, 69 79.748, 69 72.073 C 69 64.675, 68.723 63, 67.500 63 C 66.292 63, 66 64.556, 66 71 M 63.750 64.572 C 63.337 64.991, 63.053 68.296, 63.117 71.917 L 63.234 78.500 64.149 73 C 65.135 67.077, 64.958 63.345, 63.750 64.572 M 70.320 70 C 70.320 73.575, 70.502 75.037, 70.723 73.250 C 70.945 71.463, 70.945 68.537, 70.723 66.750 C 70.502 64.963, 70.320 66.425, 70.320 70 M 62.750 84.737 C 65.638 84.939, 70.362 84.939, 73.250 84.737 C 76.138 84.535, 73.775 84.370, 68 84.370 C 62.225 84.370, 59.862 84.535, 62.750 84.737 M 65.280 87.736 C 67.909 87.943, 71.959 87.940, 74.280 87.731 C 76.601 87.521, 74.450 87.352, 69.500 87.355 C 64.550 87.358, 62.651 87.530, 65.280 87.736 M 57.333 88.667 C 57.700 89.033, 58.300 89.033, 58.667 88.667 C 59.033 88.300, 58.733 88, 58 88 C 57.267 88, 56.967 88.300, 57.333 88.667 M 67.250 90.728 C 69.313 90.944, 72.688 90.944, 74.750 90.728 C 76.813 90.513, 75.125 90.336, 71 90.336 C 66.875 90.336, 65.188 90.513, 67.250 90.728 M 58.250 91.689 C 59.212 91.941, 60.788 91.941, 61.750 91.689 C 62.712 91.438, 61.925 91.232, 60 91.232 C 58.075 91.232, 57.288 91.438, 58.250 91.689 M 63 94 L 56.500 94.655 62.500 94.740 C 65.800 94.787, 70.750 94.474, 73.500 94.046 L 78.500 93.267 74 93.306 C 71.525 93.328, 66.575 93.640, 63 94 M 65.750 99.662 C 66.438 99.940, 67.563 99.940, 68.250 99.662 C 68.938 99.385, 68.375 99.158, 67 99.158 C 65.625 99.158, 65.063 99.385, 65.750 99.662" stroke="none" fill="#2c4d56" fill-rule="evenodd"/><path d="M 61.420 2.463 C 60.812 4.887, 61.216 13.251, 62.065 15.808 C 62.329 16.603, 61.064 17.624, 58.845 18.408 C 55.288 19.665, 55.175 19.630, 54.634 17.100 C 53.852 13.444, 50.532 8.395, 47.683 6.528 C 45.851 5.328, 44.642 5.186, 42.663 5.938 C 37.395 7.941, 38.462 15.201, 45.011 21.923 L 47.522 24.500 45.261 26.908 C 43.486 28.799, 43 28.966, 43 27.684 C 43 25.447, 37.375 22.689, 34.357 23.447 C 33.022 23.782, 31.506 25.168, 30.989 26.528 C 29.566 30.273, 31.316 33.623, 35.484 35.130 C 38.199 36.112, 39.011 36.926, 38.791 38.445 C 38.522 40.308, 37.880 40.435, 30.209 40.141 C 23.862 39.898, 21.341 40.202, 19.459 41.435 C 16.713 43.234, 16.255 46.600, 18.366 49.485 C 19.999 51.719, 30.242 52.809, 34.770 51.230 C 37.555 50.259, 37.681 50.358, 38.756 54.364 C 39.367 56.639, 41.596 61.200, 43.711 64.500 C 48.014 71.218, 50 78.981, 50 89.088 C 50 95.694, 51.750 100, 54.434 100 C 55.161 100, 56.315 100.675, 57 101.500 C 57.703 102.347, 59.825 102.983, 61.872 102.960 L 65.500 102.920 62.869 101.490 C 61.421 100.704, 59.986 99.407, 59.680 98.608 C 59.373 97.809, 58.082 97.008, 56.811 96.828 C 54.738 96.534, 54.448 95.847, 53.996 90.161 C 53.718 86.675, 53.797 83.328, 54.171 82.723 C 54.545 82.119, 54.209 80.709, 53.425 79.590 C 52.641 78.471, 52 76.192, 52 74.525 C 52 72.694, 50.047 68.178, 47.065 63.110 C 41.709 54.010, 40.437 49.328, 41.532 42.750 C 42.961 34.167, 49.534 25.893, 57.600 22.523 C 65.907 19.052, 78.700 21.492, 85.320 27.809 C 95.343 37.373, 96.257 50.104, 87.855 63.103 C 85.623 66.557, 83.499 71.369, 82.966 74.182 C 82.447 76.917, 81.703 79.671, 81.314 80.302 C 80.924 80.933, 80.581 84.596, 80.552 88.442 C 80.505 94.702, 80.260 95.555, 78.213 96.579 C 76.954 97.207, 74.929 98.627, 73.713 99.734 C 72.496 100.840, 70.825 101.992, 70 102.294 C 69.175 102.595, 69.971 102.878, 71.770 102.921 C 74.974 102.998, 82.038 99.365, 83.601 96.836 C 84.024 96.151, 84.450 92.646, 84.548 89.046 C 84.831 78.612, 86.819 71.093, 90.938 64.889 C 92.986 61.803, 95.243 57.204, 95.953 54.669 C 97.070 50.680, 97.487 50.190, 99.056 51.030 C 101.557 52.369, 111.657 52.250, 114.316 50.850 C 118.570 48.611, 119.185 45.185, 115.918 41.918 C 114.077 40.077, 112.843 39.870, 105.269 40.132 C 97.284 40.408, 96.649 40.282, 95.908 38.281 C 95.236 36.464, 95.550 36.038, 97.953 35.510 C 101.016 34.838, 103.693 32.409, 104.028 30 C 104.993 23.066, 98.281 20.719, 92.893 26.107 C 90.952 28.048, 90.733 28.068, 88.960 26.463 C 87.133 24.810, 87.156 24.691, 89.791 22.055 C 93.857 17.988, 96.395 12.709, 95.670 9.822 C 94.917 6.820, 91.309 4.972, 88.344 6.068 C 85.745 7.030, 80 15.094, 80 17.781 C 80 19.512, 79.660 19.595, 76.559 18.624 L 73.118 17.547 73.694 11.379 C 74.398 3.839, 73.567 0.001, 71.231 -0.002 C 69.749 -0.003, 69.500 1.038, 69.500 7.248 C 69.500 13.833, 69.316 14.500, 67.500 14.500 C 65.739 14.500, 65.464 13.733, 65.198 8.091 C 64.989 3.640, 65.294 1.430, 66.198 0.856 C 67.068 0.305, 66.594 0.026, 64.769 0.015 C 62.695 0.004, 61.889 0.592, 61.420 2.463 M 67.310 7.500 C 67.315 10.800, 67.502 12.029, 67.725 10.232 C 67.947 8.435, 67.943 5.735, 67.715 4.232 C 67.486 2.729, 67.304 4.200, 67.310 7.500 M 42.523 9.963 C 41.844 11.061, 44.964 16.821, 47.741 19.598 C 49.106 20.963, 49.458 20.970, 50.768 19.660 C 52.079 18.350, 51.913 17.674, 49.342 13.846 C 46.416 9.489, 43.753 7.972, 42.523 9.963 M 85.932 13.598 C 83.258 17.485, 82.980 18.408, 84.134 19.562 C 84.885 20.313, 85.984 20.606, 86.576 20.214 C 88.709 18.799, 92.834 11.732, 92.316 10.381 C 91.342 7.842, 89.124 8.959, 85.932 13.598 M 60.976 24.271 C 49.359 28.322, 43.221 37.597, 44.216 49.597 C 44.534 53.421, 45.820 56.691, 49.320 62.573 C 52.187 67.391, 54 71.634, 54 73.527 C 54 77.457, 55.813 79.888, 59 80.231 C 61.461 80.496, 61.504 80.375, 61.778 72.500 C 62.019 65.552, 61.592 63.127, 58.529 54.058 C 55.944 46.403, 55.320 43.420, 56.192 42.881 C 58.054 41.731, 62.904 44.769, 63.594 47.518 C 64.104 49.550, 64.831 50, 67.608 50 C 70.293 50, 71 49.598, 71 48.068 C 71 47.006, 72.307 45.206, 73.904 44.068 C 80.233 39.561, 80.805 41.666, 76.513 53.675 C 73.513 62.067, 73.001 64.776, 73 72.250 C 73 77.063, 73.421 81, 73.935 81 C 74.449 81, 75.924 80.599, 77.212 80.109 C 79.067 79.404, 79.809 77.988, 80.776 73.305 C 81.448 70.053, 83.172 65.841, 84.607 63.946 C 90.226 56.527, 92.279 48.379, 90.348 41.165 C 89.874 39.396, 89.507 39.154, 88.831 40.165 C 88.256 41.026, 88.157 40.558, 88.554 38.846 C 89.048 36.713, 88.430 35.374, 85.402 32.024 C 78.751 24.662, 68.858 21.522, 60.976 24.271 M 96.750 27.421 C 95.787 28.136, 95 29.458, 95 30.360 C 95 32.449, 98.333 32.508, 100.042 30.450 C 101.096 29.179, 101.073 28.649, 99.914 27.511 C 98.747 26.365, 98.194 26.350, 96.750 27.421 M 34 28.893 C 34 30.763, 35.824 32, 38.582 32 C 40.519 32, 40.383 28.361, 38.418 27.607 C 35.566 26.512, 34 26.968, 34 28.893 M 26 43.913 C 22.039 44.336, 20.500 44.920, 20.500 46 C 20.500 48.327, 34.777 48.745, 35.660 46.443 C 36.289 44.805, 34.437 42.892, 32.500 43.178 C 31.950 43.260, 29.025 43.590, 26 43.913 M 56.960 43.628 C 56.938 44.107, 58.160 48.550, 59.675 53.500 L 62.429 62.500 67.346 62.429 L 72.263 62.357 75.521 53.234 C 77.312 48.217, 78.532 43.865, 78.231 43.564 C 77.458 42.791, 75 44.999, 75 46.467 C 75 50.694, 64.887 52.743, 61.655 49.171 C 60.745 48.165, 60 46.871, 60 46.294 C 60 45.015, 57.016 42.398, 56.960 43.628 M 101.192 43.790 C 99.671 44.030, 98.992 44.726, 99.202 45.827 C 99.459 47.174, 100.934 47.557, 106.761 47.794 C 113.404 48.063, 114 47.925, 114 46.111 C 114 43.220, 109.722 42.445, 101.192 43.790 M 61.564 47.293 C 61.940 48.279, 62.499 48.834, 62.807 48.526 C 63.115 48.219, 62.808 47.412, 62.124 46.733 C 61.136 45.753, 61.022 45.868, 61.564 47.293 M 72.459 47.067 C 72.096 47.653, 72.014 48.348, 72.276 48.610 C 72.538 48.872, 73.019 48.392, 73.345 47.543 C 74.021 45.781, 73.445 45.471, 72.459 47.067 M 66 71 C 66 75.400, 65.976 79.338, 65.947 79.750 C 65.918 80.162, 66.593 80.645, 67.447 80.823 C 68.761 81.097, 69 79.748, 69 72.073 C 69 64.675, 68.723 63, 67.500 63 C 66.292 63, 66 64.556, 66 71 M 63.750 64.572 C 63.337 64.991, 63.053 68.296, 63.117 71.917 L 63.234 78.500 64.149 73 C 65.135 67.077, 64.958 63.345, 63.750 64.572 M 70.320 70 C 70.320 73.575, 70.502 75.037, 70.723 73.250 C 70.945 71.463, 70.945 68.537, 70.723 66.750 C 70.502 64.963, 70.320 66.425, 70.320 70 M 62.750 84.737 C 65.638 84.939, 70.362 84.939, 73.250 84.737 C 76.138 84.535, 73.775 84.370, 68 84.370 C 62.225 84.370, 59.862 84.535, 62.750 84.737 M 65.280 87.736 C 67.909 87.943, 71.959 87.940, 74.280 87.731 C 76.601 87.521, 74.450 87.352, 69.500 87.355 C 64.550 87.358, 62.651 87.530, 65.280 87.736 M 57.333 88.667 C 57.700 89.033, 58.300 89.033, 58.667 88.667 C 59.033 88.300, 58.733 88, 58 88 C 57.267 88, 56.967 88.300, 57.333 88.667 M 67.250 90.728 C 69.313 90.944, 72.688 90.944, 74.750 90.728 C 76.813 90.513, 75.125 90.336, 71 90.336 C 66.875 90.336, 65.188 90.513, 67.250 90.728 M 58.250 91.689 C 59.212 91.941, 60.788 91.941, 61.750 91.689 C 62.712 91.438, 61.925 91.232, 60 91.232 C 58.075 91.232, 57.288 91.438, 58.250 91.689 M 63 94 L 56.500 94.655 62.500 94.740 C 65.800 94.787, 70.750 94.474, 73.500 94.046 L 78.500 93.267 74 93.306 C 71.525 93.328, 66.575 93.640, 63 94 M 65.750 99.662 C 66.438 99.940, 67.563 99.940, 68.250 99.662 C 68.938 99.385, 68.375 99.158, 67 99.158 C 65.625 99.158, 65.063 99.385, 65.750 99.662" stroke="none" fill="#dfe1ad" fill-rule="evenodd"/></svg>