<?xml version="1.0" encoding="utf-8"?>
<!DOCTYPE svg PUBLIC "-//W3C//DTD SVG 1.0//EN" "http://www.w3.org/TR/2001/REC-SVG-20010904/DTD/svg10.dtd">
<svg version="1.0" xmlns="http://www.w3.org/2000/svg" width="500px" height="405px" viewBox="0 0 500 405" preserveAspectRatio="xMidYMid meet">
 <g fill="#050409">
  <path d="M243.2 401.6 c-7.4 -1.9 -13.9 -6.2 -19.5 -13.1 l-4.8 -6 2.7 -0.3 c2.1 -0.3 3.6 0.7 7.5 5 l4.8 5.3 0.1 -3.1 c0 -3.7 1.6 -4.4 9.5 -4.4 7 0 9.5 0.9 9.5 3.2 0 1.7 0.4 1.9 2.8 1.3 1.5 -0.4 4.5 -0.8 6.7 -0.9 3.4 -0.1 4 0.2 4.3 2.2 0.4 2.9 1.3 2.8 4.7 -0.8 1.6 -1.6 3.7 -3 4.7 -3 1.2 0 1.8 -0.7 1.8 -2.1 0 -1.2 0.8 -2.3 2 -2.6 1.1 -0.3 2 -1 2 -1.7 0 -0.6 2.4 -1.8 5.2 -2.6 4.8 -1.4 2.2 -1.5 -33 -1.2 l-38.2 0.4 -0.1 -3.4 -0.2 -3.3 -0.4 3 c-0.3 1.6 -1 3.3 -1.6 3.7 -0.8 0.5 -0.6 0.8 0.6 0.8 1.1 0 1.7 0.8 1.7 2.1 0 1.9 -0.4 2.1 -3.1 1.5 -9.2 -1.8 -14.6 -7.7 -13.5 -14.6 0.3 -2.1 0.2 -5 -0.4 -6.4 -0.6 -1.8 -0.6 -3.4 0.2 -5.1 0.8 -1.9 0.8 -3.5 0 -6.2 -0.9 -3.1 -0.9 -4.2 0.4 -6.1 1.4 -2.1 1.4 -2.7 0 -5.7 -2.2 -4.6 -2 -7.6 0.9 -11.9 1.4 -2 2.5 -3.9 2.5 -4.1 0 -0.3 -1.6 -2.6 -3.6 -5.2 -4.8 -6.3 -5.3 -7.7 -6.9 -21.8 -2.3 -19.5 -4.5 -24.8 -18.4 -44.7 -10.4 -14.8 -15.3 -23.6 -18.4 -33 -9.2 -27.4 -7.1 -55.9 6 -80.9 4.4 -8.6 16.3 -22.9 24.7 -29.9 13.8 -11.4 31.4 -19.7 47.8 -22.6 13.9 -2.4 34.4 -1.5 46.3 2 18.7 5.6 32.1 14.1 47.1 29.9 10.8 11.3 17.1 21.8 21.9 36 10.7 32.1 5.1 65.8 -15.6 93.7 -16.3 22.1 -19.4 29.2 -21.9 50 -1.3 10.4 -3.5 16.5 -8 22.2 -3.5 4.4 -3.6 4.8 -1 8.1 2.9 3.7 3.4 7.7 1.6 12.1 -1.4 3.4 -1.4 4 -0.1 5.9 2 2.9 1.9 5.6 -0.4 9.1 -1.8 2.7 -1.8 3.2 -0.5 5.7 2.1 4.2 1.8 11.5 -0.8 15.6 -2.2 3.7 -10.3 8.3 -14.5 8.3 -1.5 0 -4.6 2.4 -9 7 -11 11.6 -23.2 15.9 -36.1 12.6z m57.2 -39.1 c-0.4 -0.8 -1 -1.5 -1.5 -1.5 -0.5 0 -0.9 0.7 -0.9 1.5 0 0.8 0.7 1.5 1.5 1.5 0.9 0 1.2 -0.6 0.9 -1.5z m-61.4 -37.9 c8 -0.3 24.3 -0.5 36.3 -0.5 l21.7 -0.1 0 -2.5 c0 -1.4 -0.4 -2.5 -1 -2.5 -0.5 0 -1 0.4 -1 0.9 0 1.5 -10.6 2 -45.7 2.3 -26.4 0.1 -34.3 0.5 -34.3 1.4 0 1.5 3.4 2.3 7 1.7 1.4 -0.2 9 -0.5 17 -0.7z m-11.2 -41.8 c-0.3 -29.3 -0.5 -31.7 -2.5 -36.8 -1.2 -3 -6.7 -19.5 -12.2 -36.6 -10.9 -33.6 -12 -39.5 -8.1 -43.4 2.7 -2.7 11.1 -2.7 16 -0.1 1.9 1.1 5.9 3.1 8.9 4.6 2.9 1.5 5.6 3.6 5.8 4.6 0.3 1.1 0.9 1.9 1.4 1.9 1.5 0 3.9 5.7 4.7 11.2 l0.7 5.3 9.5 0 9.4 0 1.7 -6.5 c1 -3.5 2.2 -6.6 2.8 -6.8 0.6 -0.2 1.1 -1 1.1 -1.8 0 -0.8 0.5 -1.4 1 -1.4 0.6 0 1 -0.7 1 -1.5 0 -0.9 1.1 -2.1 2.5 -2.7 1.4 -0.6 2.5 -1.5 2.5 -2 0 -0.4 0.7 -0.8 1.5 -0.8 1.4 0 6.3 -2.6 7.5 -4 1.5 -1.8 7.5 -3.2 11.6 -2.7 6.6 0.7 8.4 2.8 8.4 9.6 0 4.5 -1.7 10.3 -8.6 29.6 -4.7 13.2 -10.8 30.7 -13.5 38.8 l-4.9 14.8 0 29 0 28.9 5.5 0 c6.2 0 9.7 -1.5 13.6 -5.7 4 -4.3 4.7 -6.1 5.8 -16.4 1.2 -10.5 5.3 -26.1 7 -26.7 0.6 -0.2 1.1 -1.2 1.1 -2.3 0 -1 0.3 -1.9 0.8 -1.9 0.7 0 3.2 -4.8 3.2 -6.2 0 -0.5 0.5 -1.4 1 -2.1 4.7 -5.6 6 -7.4 6 -8.4 0 -0.7 0.5 -1.3 1 -1.3 0.6 0 1 -0.7 1 -1.5 0 -0.9 0.7 -1.8 1.5 -2.1 0.8 -0.4 1.5 -1.2 1.5 -2 0 -0.8 0.5 -1.4 1 -1.4 0.6 0 1 -0.7 1 -1.5 0 -0.8 0.5 -1.5 1 -1.5 0.6 0 1 -0.6 1 -1.4 0 -0.8 0.3 -1.6 0.8 -1.8 0.4 -0.1 2.6 -4.4 5 -9.5 4.4 -9.6 8.2 -23.2 8.2 -29.5 0 -2.1 0.5 -3.8 1 -3.8 1.2 0 1.3 -6.4 0.1 -8.8 -0.5 -0.9 -1.4 -5.1 -2 -9.2 -0.7 -4.1 -2.7 -11.3 -4.6 -16.1 -1.9 -4.7 -3.5 -9.1 -3.5 -9.7 0 -0.6 -0.3 -1.2 -0.7 -1.4 -0.5 -0.1 -1.6 -2 -2.7 -4 -1 -2 -3.4 -5.3 -5.2 -7.4 -1.9 -2 -3.4 -3.9 -3.4 -4.3 0 -1.2 -11.5 -12.1 -12.8 -12.1 -0.7 0 -1.2 -0.5 -1.2 -1 0 -0.6 -0.7 -1.3 -1.5 -1.6 -0.8 -0.4 -2.9 -1.9 -4.6 -3.5 -1.7 -1.6 -3.9 -2.9 -4.9 -2.9 -1 0 -2 -0.4 -2.2 -0.8 -0.3 -1 -12.9 -6.2 -14.7 -6.2 -0.6 0 -1.1 -0.4 -1.1 -0.9 0 -0.5 -1.5 -1.1 -3.2 -1.3 -1.8 -0.3 -7.8 -1.5 -13.3 -2.8 -8.4 -1.9 -10.7 -2.1 -14.5 -1.1 -2.5 0.5 -8.1 1.5 -12.5 2.1 -4.4 0.6 -8.1 1.5 -8.3 2 -0.2 0.6 -1.4 1 -2.7 1 -2.8 0 -7.5 2 -7.5 3.1 0 0.5 -1.8 1.3 -4.1 1.9 -2.2 0.6 -4.3 1.8 -4.6 2.6 -0.3 0.7 -1.1 1.4 -1.8 1.4 -0.6 0 -2.5 1.1 -4.1 2.5 -1.6 1.4 -3.7 2.5 -4.7 2.5 -1.1 0 -2.1 0.9 -2.4 1.9 -0.3 1.1 -1.8 2.4 -3.4 3 -1.6 0.5 -2.9 1.6 -2.9 2.3 0 0.7 -0.9 2.1 -2.1 3.3 -3.2 3.1 -9.6 12.2 -14 19.6 -6.7 11.6 -11.9 30.7 -11.9 44 0 3.8 -0.1 3.9 -3.5 3.9 -2.7 0 -3.5 0.4 -3.4 1.8 0 1 0.3 1.2 0.6 0.5 0.2 -0.7 2 -1.3 3.9 -1.3 3 0 3.4 0.3 3.4 2.6 0 6.3 3.6 17.8 9.2 29.4 3.3 6.9 6.4 12.7 6.9 12.8 0.5 0.2 0.9 1 0.9 1.8 0 0.8 0.5 1.4 1 1.4 0.6 0 1 0.6 1 1.4 0 0.8 0.7 1.6 1.5 2 0.8 0.3 1.5 1.2 1.5 2 0 0.7 0.7 1.6 1.5 2 0.8 0.3 1.5 1.2 1.5 2.1 0 0.8 0.5 1.5 1 1.5 0.6 0 1 0.7 1 1.5 0 0.8 0.5 1.5 1 1.5 0.6 0 1 0.7 1 1.5 0 0.8 0.4 1.5 0.9 1.5 1.2 0 6.7 12.6 8.5 19.7 0.9 3.2 2 10.4 2.6 15.8 1.5 13.9 3.2 17.7 9.4 20.9 3.5 1.9 6.6 2.6 10.4 2.6 l5.3 0 -0.3 -31.2z m28.8 22 c-0.3 -5.1 -0.9 -19.3 -1.3 -31.5 l-0.6 -22.3 -2.7 0 -2.8 0 -0.6 21.8 c-0.3 11.9 -0.9 26.1 -1.2 31.5 l-0.6 9.7 5.2 0 5.3 0 -0.7 -9.2z m9.1 -42 c-0.2 -3.5 -0.3 -0.7 -0.3 6.2 0 6.9 0.1 9.7 0.3 6.3 0.2 -3.5 0.2 -9.1 0 -12.5z m-13.7 -21.8 c5.8 0 10.4 0.5 12.7 1.5 4.4 1.9 4.3 1.9 4.3 -0.3 0 -1 0.6 -2.6 1.3 -3.7 0.8 -1.1 1.7 -3.4 2 -5.1 0.3 -1.8 4.9 -15 10.3 -29.5 10.2 -28.1 11.1 -30.9 9.8 -30.9 -2.2 0.1 -4.6 3.2 -6.3 8.2 -3.7 10.8 -7.9 16.6 -14.5 20.1 -3.7 1.9 -5.6 2.1 -19.1 2.1 -15.1 0 -16.3 -0.2 -22.9 -4.2 -3.5 -2.1 -9.4 -12.7 -10.4 -18.5 -0.6 -3.1 -1.5 -4.5 -3.7 -5.9 l-3 -1.7 11.3 34.2 c6.1 18.8 11.4 34.7 11.7 35.4 0.3 0.9 1.2 0.9 3.9 -0.2 2.2 -1 6.9 -1.5 12.6 -1.5z"/>
  <path d="M72.4 186.8 c-2.2 -1 -4.4 -4.7 -4.4 -7.3 0 -2.4 3.6 -1.7 5 1 0.9 1.6 2.2 2.5 3.9 2.6 1.4 0 11.7 0.1 22.9 0.2 18 0 20.5 -0.1 22 -1.7 1.6 -1.6 1.6 -1.9 -1 -4.1 -3.5 -3 -3.7 -5.5 -0.4 -5.5 3.3 0 6.5 2.9 7.2 6.7 0.5 2.7 0.1 3.7 -2.4 6.3 l-3 3 -23.9 -0.1 c-14.2 0 -24.7 -0.5 -25.9 -1.1z"/>
  <path d="M380.2 187.3 c-1.7 -0.6 -4.2 -5.7 -4.2 -8.3 0 -3.4 4.4 -7 8.5 -7 2.8 0 3.5 0.4 3.5 2 0 1.2 -0.7 2 -1.7 2 -3 0.1 -5.6 2.6 -4.8 4.9 0.9 2.8 5.5 3.3 27.6 2.9 16.6 -0.3 18.9 -0.5 20.8 -2.2 l2 -1.9 -2.3 -1.8 c-2.1 -1.6 -4.2 -1.9 -14.5 -1.9 -11.4 0 -12.1 -0.1 -12.1 -2 0 -1.9 0.7 -2 14.3 -2 13.7 0 14.4 0.1 16.5 2.3 3.1 3.3 2.9 8.1 -0.4 11.2 l-2.7 2.5 -24.6 -0.1 c-13.5 0 -25.2 -0.3 -25.9 -0.6z"/>
  <path d="M71.5 174 c1 -1.1 2.9 -2 4.2 -2 1.6 0 2.3 0.6 2.3 2 0 1.7 -0.7 2 -4.2 2 -4 0 -4.1 0 -2.3 -2z"/>
  <path d="M130.4 123.9 c-6.6 -4.2 -9.4 -6.9 -9.4 -9.1 0 -3.1 2.6 -7.3 5.5 -8.8 2.5 -1.3 3.1 -1.2 8.1 1.4 6 3.2 10.4 7.7 10.4 10.8 0 2.3 -6.1 8.8 -8.2 8.8 -0.8 0 -3.6 -1.4 -6.4 -3.1z m8.1 -3.9 c1.7 -1.9 1.7 -2.1 -0.1 -4.1 -1 -1.2 -3.6 -3 -5.6 -4 l-3.7 -1.9 -2 2.9 c-2.6 3.6 -2.6 4.1 -0.2 4.1 1.1 0 2.1 0.3 2.3 0.8 0.3 0.7 5.7 3.9 6.9 4.1 0.3 0.1 1.4 -0.8 2.4 -1.9z"/>
  <path d="M364.5 125.8 c-3.2 -1.8 -4.4 -4 -4.5 -8 0 -3 0.6 -4.1 3.8 -6.5 9.2 -7.1 12.7 -7.9 16.7 -3.8 3.5 3.4 3.4 8.3 -0.2 11.7 -3 2.7 -11.4 7.8 -12.9 7.8 -0.5 0 -1.8 -0.6 -2.9 -1.2z m9.2 -8.1 c5.4 -3.6 5.7 -4.1 3.5 -6 -1.7 -1.6 -2.2 -1.4 -7.5 1.9 -5.5 3.5 -5.8 4 -3.4 7.1 1 1.4 1 1.4 7.4 -3z"/>
  <path d="M174.5 75.8 c-6.4 -7.4 -19.5 -28.8 -19.5 -31.8 0 -3.3 4.9 -8 8.2 -8 2.6 0 15.8 13.3 15.8 15.8 0 0.9 2.1 4.8 4.6 8.7 2.5 3.8 5 7.8 5.6 8.8 2.2 4.1 -3.4 10.7 -9.1 10.7 -1.1 0 -3.6 -1.9 -5.6 -4.2z m8.3 -2 l2.1 -2.3 -2.4 -3.9 c-2.2 -3.7 -4.9 -7.3 -8.5 -11.5 -0.8 -0.9 -2.4 -3.5 -3.5 -5.7 -2.3 -4.5 -5.2 -7.3 -7.7 -7.4 -3.3 0 -2.8 2 2.7 10.8 3 4.9 5.8 9.7 6.1 10.7 0.4 0.9 2 3.1 3.5 4.8 1.6 1.7 2.9 3.9 2.9 4.9 0 2.5 2.2 2.2 4.8 -0.4z"/>
  <path d="M317.9 77.1 c-4.7 -4.7 -4.2 -5.9 8.6 -24.6 8.7 -12.7 10.7 -14.9 14.1 -15.9 5.6 -1.7 11.9 5.6 9.3 10.7 -2.6 5 -19.3 29.3 -21.3 30.9 -3.2 2.7 -7.3 2.2 -10.7 -1.1z m14.3 -11.8 c3.6 -5.4 7.7 -11.7 9.2 -14 2.7 -4.4 3.4 -8.3 1.5 -8.3 -2.1 0 -9.6 8.5 -16.4 18.7 -5.7 8.6 -6.6 10.5 -5.5 11.8 2.6 3.1 4.7 1.6 11.2 -8.2z"/>
  <path d="M248.1 57.6 c-4.6 -2.6 -5 -4.7 -5.1 -27.5 l0 -21.3 3.4 -3.4 c4.7 -4.7 11.2 -4.3 14.7 0.9 1.8 2.9 2.6 40.2 0.9 45.9 -1.7 5.9 -8.4 8.5 -13.9 5.4z m7.9 -24.7 c0 -16.9 -0.8 -21.9 -3.4 -21.9 -2 0 -2.6 4.6 -2.6 20.6 0 15.4 0.9 19.5 4.1 18.7 1.8 -0.5 1.9 -1.7 1.9 -17.4z"/>
 </g>
 <g fill="#0d0a17">
  <path d="M242.3 400.5 c-7 -2.1 -12.7 -6.1 -18.3 -12.5 -3.5 -4 -5.9 -6 -7.4 -6 -1.3 0 -3.8 -0.5 -5.7 -1.2 -8.3 -2.8 -12.7 -8.7 -10.9 -14.7 0.6 -2.1 0.5 -4.1 -0.2 -5.7 -0.9 -1.8 -0.8 -3 0.1 -4.8 1.1 -1.9 1.1 -3.1 0 -6 -1.1 -3.2 -1.1 -4 0.4 -6.5 1.5 -2.6 1.5 -3.2 0.2 -5.7 -2.6 -4.9 -1.7 -9.2 2.8 -14.1 l2 -2.2 -3.2 -2.7 c-5.3 -4.5 -7.2 -9.5 -8.7 -23.4 -0.7 -6.9 -1.8 -14.1 -2.4 -16 -0.6 -1.9 -1.2 -4.2 -1.4 -5.1 -0.1 -1 -0.7 -2.3 -1.2 -3 -0.6 -0.8 -1.8 -2.7 -2.6 -4.4 -0.8 -1.6 -3.2 -5.7 -5.1 -8.9 -2 -3.3 -3.5 -6.1 -3.3 -6.3 0.2 -0.2 -1.1 -1.9 -2.8 -3.7 -14 -15.2 -23.6 -40.7 -23.6 -63.2 0 -10.7 2.6 -25.6 5.7 -32.4 7.7 -17.2 14.6 -27.9 24.7 -38.2 9 -9.2 9.9 -9.5 2.1 -0.7 -6.8 7.7 -8.9 10.4 -10.4 13.2 -0.8 1.5 -2.3 3.6 -3.3 4.7 -1 1.1 -1.8 2.2 -1.8 2.5 0.1 2.1 -0.1 2.6 -0.8 2.1 -1.1 -0.7 -3.6 3.9 -2.9 5.1 0.5 0.8 -0.3 3.5 -4.8 14.8 -0.5 1.1 -0.8 2.3 -0.7 2.6 0.1 0.4 -0.3 3.4 -0.8 6.7 -0.7 4 -0.7 6.8 0 8.3 0.9 2.1 1 1.9 0.6 -1.3 -0.3 -2.1 0 -4 0.6 -4.4 0.5 -0.3 0.8 -1.7 0.5 -3 -0.2 -1.3 0 -2.4 0.5 -2.4 0.6 0 0.7 -0.8 0.4 -1.7 -0.4 -0.9 -0.2 -2 0.5 -2.3 0.6 -0.4 1.2 -1.9 1.2 -3.4 0.1 -1.4 0.6 -2.6 1.1 -2.6 0.4 0 0.6 -0.7 0.2 -1.5 -0.3 -0.8 -0.1 -1.5 0.4 -1.5 0.5 0 0.6 -0.7 0.3 -1.7 -0.4 -1.1 -0.3 -1.4 0.5 -0.9 1.1 0.6 1.7 -1.4 1 -2.9 -0.2 -0.2 0.6 -1.1 1.7 -2 1.1 -0.9 1.3 -1.4 0.5 -1 -1 0.4 -0.9 0.2 0.2 -0.8 1 -0.8 1.4 -1.7 1 -2.1 -0.3 -0.4 0.4 -1.6 1.8 -2.6 1.7 -1.4 2 -2 1 -2 -0.8 -0.1 -0.4 -0.6 1 -1.1 1.7 -0.7 2.1 -1.2 1.2 -1.8 -1.8 -1.1 -0.4 -4.1 1.8 -4.1 2.5 0 6.5 -5.1 4.9 -6.1 -0.8 -0.4 -0.3 -0.8 1.2 -1.1 1.4 -0.2 2.9 -1.4 3.7 -3 0.7 -1.6 2 -2.8 2.8 -2.8 0.8 0 1.3 -0.4 1 -0.8 -0.2 -0.4 1 -2.2 2.9 -4 2.9 -2.9 3.4 -3.1 3.8 -1.5 0.3 1.5 0.6 1.4 1.4 -0.7 0.6 -1.4 1.9 -3.2 2.9 -4 1.6 -1.4 1.7 -1.3 1.1 0.4 -0.6 1.5 -0.5 1.7 0.6 0.8 0.8 -0.7 1.7 -0.9 2 -0.5 0.4 0.3 0.7 0.1 0.7 -0.5 0 -1.4 5.5 -4.4 6.4 -3.5 0.3 0.4 0.6 0.1 0.6 -0.6 0 -0.7 0.4 -0.9 1 -0.6 0.5 0.3 1 0.2 1 -0.3 0 -1.1 4.8 -3.2 7.8 -3.5 1.2 -0.1 2.2 -0.4 2.2 -0.8 0 -0.6 4.2 -1.6 10.5 -2.5 1.1 -0.1 3.6 -0.5 5.5 -0.8 10.3 -1.6 16.8 -1.7 22.7 -0.3 3.5 0.9 7.2 1.3 8.3 1 1.1 -0.3 2 0 2 0.6 0 0.5 0.7 0.8 1.5 0.5 0.8 -0.4 1.5 -0.1 1.5 0.6 0 0.7 0.8 0.9 1.9 0.5 1.1 -0.3 2.6 0.1 3.6 1.1 1.2 1.2 1.9 1.4 2.8 0.5 0.6 -0.6 0.9 -1.1 0.5 -1.1 -0.3 0 -3.6 -1.1 -7.4 -2.5 -10.8 -4 -24.1 -5.1 -36 -3.1 -11.9 2 -26.3 6.7 -32.7 10.6 -5.4 3.3 -7.2 3.8 -6.3 1.5 0.4 -1.1 -0.8 -0.8 -4.2 1.1 -2.6 1.5 -5.2 3 -5.7 3.3 -0.6 0.3 0.1 -0.4 1.5 -1.7 3.9 -3.5 10.2 -7 21.2 -11.8 11.2 -4.9 19.8 -6.7 28.7 -6.2 3.4 0.1 6.1 -0.1 6.1 -0.6 0 -1.5 19.1 0.4 28.6 2.9 13.2 3.4 21.4 7.4 21.4 10.2 0 1.7 0.6 2.3 2.3 2.3 1.7 0 1.9 0.2 0.8 0.9 -1 0.7 -3.2 0 -7 -1.9 -7.1 -3.6 -9.8 -4.4 -10.6 -3.1 -0.3 0.7 0 0.8 0.9 0.5 0.9 -0.3 1.6 -0.1 1.6 0.6 0 0.6 0.4 0.9 0.9 0.5 0.5 -0.3 1.2 -0.1 1.6 0.5 0.4 0.6 1.1 0.8 1.6 0.5 0.5 -0.4 0.9 -0.1 0.9 0.5 0 0.6 0.5 0.8 1 0.5 0.6 -0.3 1 -0.1 1 0.5 0 0.6 0.5 0.8 1 0.5 0.6 -0.3 1.3 0 1.6 0.8 0.3 0.9 1.6 1.4 2.9 1.2 1.3 -0.1 2.3 0.1 2.2 0.4 -0.1 0.3 1.1 1.8 2.6 3.3 1.5 1.5 2.7 2.4 2.7 2 0.1 -0.4 1 0.4 2 1.7 1.1 1.3 2 1.9 2 1.5 0 -0.5 3.1 2.3 7 6.1 3.8 3.7 6.7 7.2 6.4 7.7 -0.3 0.4 -0.1 0.8 0.5 0.8 1.1 0 9.6 11.6 9 12.2 -0.2 0.3 0.4 1.2 1.4 2.2 0.9 1 1.5 2.2 1.2 2.7 -0.4 0.5 -0.1 0.9 0.5 0.9 0.6 0 0.8 0.5 0.5 1 -0.3 0.6 -0.1 1 0.5 1 0.6 0 0.8 0.5 0.5 1 -0.3 0.5 -0.1 1 0.4 1 1.6 0 1.4 -0.5 -2.1 -7.9 -1.8 -3.6 -3.1 -6.9 -3 -7.3 0.1 -0.5 -0.3 -0.8 -0.9 -0.8 -0.5 0 -0.7 -0.4 -0.4 -1 0.3 -0.5 0.1 -1 -0.4 -1 -1.7 0 -1.3 -3.7 0.4 -4.4 1.4 -0.5 3.5 2 3.5 4.3 0 0.5 1 2.1 2.3 3.4 5.8 6.4 11.4 22.1 13.8 39.3 1.1 8.1 0.6 25.4 -1 30.9 -6.4 21.8 -12.1 34.1 -15.9 33.9 -1.2 0 -2.2 0.5 -2.2 1.3 0 0.7 -0.4 1.3 -1 1.3 -1.5 0 -1.2 -1.2 1 -4 2.1 -2.7 2.6 -5 1 -5 -0.5 0 -1 0.7 -1 1.5 0 0.8 -0.4 1.5 -1 1.5 -0.5 0 -1 0.7 -1 1.5 0 0.8 -0.5 1.5 -1 1.5 -0.6 0 -0.9 0.3 -0.9 0.8 0.3 1.9 -0.2 3.3 -1.1 2.7 -0.5 -0.3 -1 0 -1 0.8 0 0.8 -0.7 1.8 -1.6 2.1 -0.8 0.3 -1.3 1 -0.9 1.5 0.3 0.6 -0.2 1.4 -1.1 1.9 -0.9 0.5 -1.6 1.3 -1.6 1.8 0 0.9 -3 5.2 -5.6 8 -0.7 0.7 -1.2 1.6 -1.2 1.9 0.2 1.1 -2.5 6.5 -3.2 6.5 -0.5 0 -0.8 0.9 -0.8 2 0 1.1 -0.5 2 -1.1 2 -0.5 0 -0.7 0.5 -0.4 1 0.3 0.6 0.1 1 -0.6 1 -0.7 0 -0.9 0.3 -0.6 0.7 0.4 0.3 0.3 1.1 -0.2 1.7 -1 1.2 -4.2 13 -4 14.3 0.1 0.4 -0.1 1.6 -0.5 2.5 -0.4 1 -0.6 2.3 -0.4 2.9 0.2 0.7 1.2 -1.4 2.1 -4.7 3.4 -11.5 3.8 -12.9 4.9 -15.4 1.9 -4.4 5.1 -10.4 6.3 -12 0.7 -0.8 2.5 -3.9 4 -6.7 1.6 -2.9 3.2 -5.3 3.6 -5.3 2 0 1.8 2.2 -0.6 4.7 -1.4 1.6 -2.3 3.3 -2.1 4 0.3 0.7 -0.4 1.5 -1.4 1.8 -1.1 0.3 -1.7 1.2 -1.4 2 0.3 0.7 0 1.6 -0.5 2 -0.6 0.3 -0.9 1.1 -0.6 1.6 0.4 0.5 0.1 0.9 -0.5 0.9 -0.6 0 -0.9 0.4 -0.6 0.9 0.3 0.5 -0.1 2.2 -0.9 3.8 -2.2 4.4 -4.3 13.6 -5.8 25.8 -1.5 11.2 -3.4 16.6 -8.3 23 l-2.3 3 2.5 4 c2.8 4.7 3 8.6 0.7 12.5 -1.5 2.7 -1.5 3 0 5.4 2.3 3.4 2.1 5.5 -0.7 9.7 -2.4 3.5 -2.4 3.6 -0.5 5.2 2.7 2.4 2.6 10.1 -0.2 14.7 -2.8 4.6 -4.3 5.6 -10.9 7.7 -4.3 1.3 -7 3.2 -12.3 8.4 -11.3 11.1 -24.4 15.2 -36.4 11.4z m18.2 -6.3 c2.5 -1.2 3.5 -2.1 2.7 -2.6 -0.7 -0.4 -1.2 -0.2 -1.2 0.4 0 0.6 -0.4 0.9 -0.9 0.5 -0.5 -0.3 -1.3 -0.1 -1.6 0.5 -0.4 0.6 -1.6 0.8 -2.7 0.4 -1.3 -0.4 -1.8 -0.2 -1.4 0.4 0.3 0.6 -0.4 1.3 -1.6 1.5 -2.2 0.4 -2.2 0.4 0.2 0.5 1.4 0.1 4.3 -0.7 6.5 -1.6z m-20.5 -3.2 c-1.2 -0.8 -0.9 -1 1.3 -1.1 4 -0.2 4.5 -0.3 5.3 -1.1 0.9 -0.9 -4.2 -1 -7.4 -0.2 -1.8 0.5 -2 0.9 -1.1 2 0.6 0.8 1.7 1.4 2.3 1.4 0.6 0 0.4 -0.5 -0.4 -1z m54.8 -19.5 c1.6 -1.7 1.6 -1.7 -0.3 -1 -1.1 0.4 -18.3 1.1 -38.3 1.5 -19.9 0.4 -36.5 1 -37 1.5 -0.4 0.4 16.1 0.5 36.6 0.3 34.5 -0.4 37.4 -0.6 39 -2.3z m-11.8 -1.4 l8.5 -0.8 -7 -0.2 c-3.8 -0.1 -7.7 -0.6 -8.5 -1.1 -1.2 -0.8 -0.9 -1 1.3 -1 1.5 0 2.7 -0.4 2.7 -1 0 -0.5 -0.5 -1 -1.2 -1 -0.9 0 -0.8 -0.4 0.2 -1.4 0.8 -0.8 4.3 -1.9 7.8 -2.5 6.2 -1 10.1 -3.6 10.2 -6.8 0 -1.8 -5.8 -4.5 -8 -3.8 -1.2 0.4 -2 0.2 -2 -0.4 0 -0.6 1.6 -1.1 3.5 -1.1 2.8 0 3.7 -0.5 5 -3 2.4 -4.7 1.2 -7 -3.8 -7.1 -2.3 -0.1 -4.9 0 -5.6 0.1 -1.3 0.1 -1.3 -0.1 -0.2 -1.4 0.8 -0.9 2 -1.6 2.9 -1.6 3.1 0 0.4 -1.1 -3.9 -1.5 -2.4 -0.3 -4.5 -0.9 -4.7 -1.5 -0.2 -0.5 -2.5 -1 -5.1 -1 -2.6 0 -5.1 -0.4 -5.7 -0.9 -0.5 -0.5 -1.8 -1.1 -2.9 -1.4 -1.1 -0.3 -0.1 -0.5 2.3 -0.6 2.7 -0.1 4.1 -0.5 3.7 -1.1 -0.6 -1 -5.3 -1 -47.4 0.5 -8.9 0.3 -12.9 0.1 -14 -0.8 -1.2 -0.9 -1.3 -0.9 -0.7 0.1 0.4 0.7 0.2 1.2 -0.5 1.2 -1.7 0 -4.9 3 -4.9 4.5 0 0.7 0.6 1.5 1.4 1.8 1 0.4 1.2 0 0.8 -1.5 -0.5 -1.9 -0.2 -2.1 2.8 -1.5 1.8 0.4 5.7 0.7 8.6 0.7 3.9 0 5.4 0.4 5.4 1.4 0 1.7 -3.1 2.6 -9.5 2.6 -3.2 0 -4.5 0.3 -3.6 0.9 0.7 0.5 2.3 0.6 3.5 0.4 1.8 -0.4 1.9 -0.3 0.6 0.7 -1.2 1 -1.2 1.1 0.5 0.5 3.5 -1.3 7.8 -0.5 6.2 1.1 -0.3 0.4 -2.8 0.8 -5.4 1.1 -6.7 0.6 -9.3 1.2 -9.3 2.2 0 0.4 1 0.7 2.3 0.5 5.9 -0.8 16 -1.1 14.2 -0.3 -1.1 0.4 -4.1 0.8 -6.7 0.8 -4.6 0.1 -7 1.4 -4.6 2.5 0.7 0.3 -0.2 0.5 -1.9 0.3 -1.8 -0.2 -3.3 0 -3.3 0.4 0 1.2 3.5 2.9 5.9 2.9 1.2 0 2.1 0.5 2.1 1.1 0 0.5 -0.4 0.7 -1 0.4 -0.5 -0.3 -1 -0.2 -1 0.3 0 0.5 -1.3 1.2 -3 1.6 -4.7 0.9 -3.5 2.1 1.8 1.9 2.6 -0.2 4 0 3.2 0.3 -0.8 0.3 -2.2 0.8 -3 1.1 -1 0.4 -0.5 0.9 1.5 1.4 2.5 0.7 2.2 0.8 -1.7 0.6 -6.7 -0.3 -6.5 1.6 0.3 2.8 4.1 0.7 4.1 0.8 3.3 2.9 -0.5 1.2 -1.5 1.6 -3.5 1.2 -1.6 -0.2 -2.9 0 -2.9 0.5 0 0.5 2 0.9 4.5 0.9 2.5 0 4.5 0.4 4.5 0.9 0 0.5 1 1.2 2.3 1.4 3.8 0.7 53.7 0.5 62.7 -0.2z m11.5 -5.1 c0.4 -0.6 -1 -0.9 -3.7 -0.9 l-4.3 0.2 3.5 0.7 c1.9 0.4 3.6 0.8 3.7 0.9 0.1 0 0.5 -0.3 0.8 -0.9z m1.8 -37.3 c-0.7 -1.1 -16.3 -0.6 -16.3 0.5 0 0.6 3.5 0.8 8.4 0.6 4.6 -0.2 8.2 -0.6 7.9 -1.1z m-49.8 -8.9 c11.6 0.1 21.6 -0.2 22.3 -0.6 0.6 -0.5 1.4 -3.5 1.6 -6.7 0.6 -7.5 0.6 -7.5 1.6 -4.5 0.7 2.2 0.8 2.1 0.9 -1.2 0.1 -2.1 0.5 -3.8 1 -3.8 1.3 0 2.4 7.4 1.6 11 -0.6 2.8 -0.5 3 2.3 3 4.5 0 15 -3.8 18.1 -6.5 3 -2.7 4.6 -7.9 5.6 -18.5 0.4 -3.6 1.1 -6.7 1.6 -7.1 0.5 -0.3 1.4 -3.4 2 -7 1.4 -8.3 3 -13.9 4.1 -13.9 0.4 0 0.8 -0.7 0.8 -1.6 0 -2.4 4.2 -9.4 5.6 -9.4 0.6 0 1.4 -1.2 1.7 -2.7 0.3 -1.6 2 -4.3 3.6 -6.1 1.7 -1.8 3.1 -3.7 3.1 -4.3 0 -0.5 0.5 -0.9 1 -0.9 0.6 0 1 -0.6 1 -1.3 0 -0.7 0.9 -2.3 2 -3.5 1.1 -1.2 2 -2.5 2 -3.1 0 -0.5 0.3 -1.1 0.8 -1.3 1 -0.4 6.9 -12.6 7.7 -16.1 0.4 -1.5 1 -2.7 1.4 -2.7 0.4 0 1.5 -5.5 2.5 -12.1 3.3 -21.6 0.1 -39.7 -9.7 -56 -1.8 -3 -4 -6.5 -4.8 -7.8 -0.8 -1.3 -5.2 -6.4 -9.8 -11.3 -11.4 -12 -24.4 -20.7 -37.8 -25.3 -5.6 -1.9 -10.9 -3.5 -11.8 -3.5 -0.8 0 -1.5 -0.8 -1.5 -1.7 0 -1.3 -0.3 -1.4 -0.8 -0.6 -0.6 1 -3.6 1.1 -12.5 0.5 -6.4 -0.4 -11.7 -0.4 -11.7 0 0 0.5 -0.9 0.8 -2.1 0.8 -5 0 -22.1 6.5 -31.6 12 -3.9 2.2 -7.3 4 -7.6 4 -0.5 0 -2.5 1.8 -9.2 8.1 -1.2 1 -2.8 1.9 -3.8 1.9 -1 0 -1.7 0.8 -1.7 2 0 1.1 -0.6 2 -1.3 2 -0.7 0 -2.6 2.2 -4.2 5 -1.6 2.8 -3.3 5 -3.7 5 -0.4 0 -0.8 0.6 -0.8 1.4 0 0.8 -0.3 1.6 -0.7 1.8 -0.5 0.2 -1.9 2.4 -3.2 5.1 -1.3 2.6 -2.8 4.7 -3.2 4.7 -0.5 0 -0.9 0.9 -0.9 2 0 2 -2 7.1 -3.1 8 -0.6 0.5 -0.9 2.2 -3.2 16.5 -1.4 9.1 -0.7 22.7 1.8 32 1.7 6.7 11.4 27.4 14.3 30.5 1 1.1 2.5 3.2 3.3 4.7 0.8 1.5 2.1 3.5 2.9 4.4 3.2 3.7 4 4.9 4 5.9 0 0.5 0.5 1 1 1 0.6 0 1 0.5 1 1.1 0 0.6 0.7 1.7 1.5 2.6 0.9 0.8 1.9 2.8 2.2 4.4 0.3 1.6 0.9 2.9 1.4 2.9 0.5 0 0.9 1.6 0.9 3.5 0 3.7 1.8 8.5 3.2 8.5 0.4 0 0.8 1.8 0.8 4 0 2.2 0.4 4 0.9 4 0.5 0 1.2 3.9 1.6 8.8 0.4 4.8 1.4 10.4 2.1 12.5 1.3 3.8 5.5 8.7 7.4 8.7 0.5 0 1 0.4 1 0.9 0 1.7 7.2 3.3 12.6 2.9 3 -0.3 5.4 -0.1 5.4 0.4 0 1.1 -15.3 1 -18.4 -0.2 -1.5 -0.5 -2.6 -0.6 -2.6 -0.1 0 1.7 10 4.2 13.4 3.3 1.1 -0.2 11.5 -0.4 23.1 -0.4z m40 -0.8 c1.4 -0.6 -0.5 -0.9 -5.7 -0.9 l-7.7 -0.1 -0.4 -3.7 c-0.3 -3.5 -0.4 -3.4 -0.5 1 l-0.2 4.7 6.3 -0.1 c3.4 0 7.1 -0.4 8.2 -0.9z m12.4 -5.6 c3.1 -2.7 5.4 -6.9 6.5 -11.6 0.5 -2.2 0.3 -2.6 -0.9 -2.1 -0.9 0.3 -1.5 1.5 -1.4 2.7 0 1.1 0.1 2.4 0 2.9 -0.1 0.4 -0.1 1 0 1.3 0 0.4 -0.3 1 -0.8 1.3 -1.9 1.4 -7.6 8.1 -7 8.1 0.4 0 2 -1.2 3.6 -2.6z m-93.5 -0.2 c-0.6 -0.4 -1.4 -1.7 -1.8 -2.9 -0.4 -1.3 -1.2 -2.3 -1.7 -2.3 -0.6 0 -0.8 -0.4 -0.4 -0.9 0.3 -0.5 0.1 -1.2 -0.5 -1.6 -1.6 -1 -1.2 2.1 0.5 3.5 0.8 0.7 1.5 1.8 1.5 2.4 0 1.5 2.2 3.8 2.9 3 0.3 -0.3 0.1 -0.8 -0.5 -1.2z m-4.4 -11.7 c0 -1.4 -0.4 -2.5 -1 -2.5 -0.5 0 -1 1.1 -1 2.5 0 1.4 0.5 2.5 1 2.5 0.6 0 1 -1.1 1 -2.5z m-1 -10 c0 -1.4 -0.4 -2.5 -0.9 -2.5 -0.5 0 -0.8 0.8 -0.6 1.8 0.2 0.9 0.4 2 0.4 2.5 0.2 1.9 1.1 0.4 1.1 -1.8z m-1.5 -8.7 c-0.4 -1.8 -1.1 -3.5 -1.6 -3.6 -0.5 -0.2 -0.6 -0.8 -0.3 -1.3 0.7 -1.2 -2.7 -10.9 -3.8 -10.9 -0.4 0 -0.7 -0.3 -0.7 -0.7 0.4 -2.4 -0.3 -3.5 -1.7 -2.9 -1.4 0.5 -1.5 0.4 -0.4 -0.9 0.9 -1.1 0.9 -1.5 0.1 -1.5 -0.7 0 -0.9 -0.4 -0.6 -1 0.3 -0.5 0.1 -1 -0.4 -1 -0.6 0 -1.1 -0.7 -1.1 -1.7 0 -0.9 -0.3 -1.3 -0.7 -0.9 -1 1 -1.1 4.6 -0.1 4 0.4 -0.3 0.8 0 0.8 0.5 0 2.2 0.2 2.6 1.5 4.1 1.4 1.5 3.3 6.4 6.3 15.8 1.8 5.7 3.8 7.2 2.7 2z m-13.2 -29.7 c-0.5 -0.3 -1.2 -1.4 -1.6 -2.3 -0.7 -1.9 -2.7 -2.5 -2.7 -0.8 0 1.6 4.4 5.9 4.9 4.7 0.2 -0.5 -0.1 -1.2 -0.6 -1.6z m-5.9 -7.8 c-1 -0.8 -1.8 -1.9 -1.6 -2.4 0.1 -0.6 -0.2 -0.8 -0.8 -0.4 -0.5 0.3 -1 0.1 -1 -0.4 0 -0.6 -0.7 -1.1 -1.5 -1.1 -0.8 0 -1.5 0.3 -1.5 0.7 0 1.3 6.3 6.2 7.3 5.6 0.6 -0.3 0.2 -1.2 -0.9 -2z m-5.4 -7.7 c0 -0.8 -0.5 -1.8 -1.2 -2.2 -0.7 -0.4 -0.8 -0.3 -0.4 0.4 0.4 0.7 0.2 1.2 -0.4 1.2 -0.6 0 -0.8 0.5 -0.5 1 0.9 1.5 2.5 1.2 2.5 -0.4z m164 -9.1 c0 -0.8 -0.5 -1.5 -1.1 -1.5 -0.5 0 -0.8 0.4 -0.5 0.9 0.4 0.5 0 1.2 -0.6 1.4 -0.8 0.3 -0.6 0.6 0.5 0.6 0.9 0.1 1.7 -0.6 1.7 -1.4z m6.4 -16.7 c0.3 -1.6 0.2 -2.8 -0.3 -2.8 -1 0 -2.1 4.7 -1.3 5.5 0.7 0.7 0.8 0.5 1.6 -2.7z m-182.9 -1.5 c-0.5 -1 -0.7 -2.4 -0.6 -3.2 0.1 -0.7 -0.2 -1 -0.8 -0.6 -1.4 0.8 -1.4 3.5 -0.1 3.5 0.6 0 1 0.8 1 1.7 0 0.9 0.3 1.4 0.6 1 0.4 -0.3 0.3 -1.4 -0.1 -2.4z m-2.6 -14.8 l0 -2 -0.9 2 c-0.5 1.1 -0.9 2.7 -0.9 3.5 -0.1 1.3 0 1.3 0.9 0 0.5 -0.8 0.9 -2.4 0.9 -3.5z m-0.9 -14 c0 -1.9 -0.4 -3.5 -1 -3.5 -1.1 0 -1.3 3 -0.4 5.4 1 2.5 1.4 1.9 1.4 -1.9z m190.3 -9.2 c-0.3 -2.7 -1.4 -6.6 -2.4 -8.8 l-1.9 -4 0.6 4 c0.4 2.2 1.1 4.8 1.6 5.8 0.5 1.1 0.7 2.9 0.4 4.1 -0.6 2.3 0 3.6 1.5 3.6 0.5 0 0.6 -2.1 0.2 -4.7z"/>
  <path d="M289.3 357.3 c0.9 -0.2 1.7 -1.1 1.7 -1.9 0 -1.4 3.1 -2 4.3 -0.7 1.1 1 -2.6 3.2 -5.3 3.2 -1.7 -0.1 -1.9 -0.3 -0.7 -0.6z"/>
  <path d="M289.8 346.3 c-1 -0.2 -1.8 -1.1 -1.8 -1.9 0 -0.8 0.8 -1.5 1.8 -1.6 0.9 0 -0.5 -0.4 -3.3 -0.8 l-5 -0.7 6.7 -0.1 c3.7 -0.1 6.9 0.1 7.1 0.6 0.3 0.4 0.1 1.7 -0.4 3 -0.8 2.2 -1.7 2.4 -5.1 1.5z"/>
  <path d="M219.8 331.3 c3.4 -0.2 8.8 -0.2 12 0 3.1 0.2 0.3 0.3 -6.3 0.3 -6.6 0 -9.2 -0.1 -5.7 -0.3z"/>
  <path d="M243.3 330.3 c3.2 -0.2 8.1 -0.2 11 0 2.9 0.2 0.3 0.3 -5.8 0.3 -6 0 -8.4 -0.1 -5.2 -0.3z"/>
  <path d="M236.3 315.6 c0.3 -0.8 0.9 -6.9 1.3 -13.5 0.5 -8.6 1 -12.1 1.9 -12.1 1.6 0 2.5 3.3 2.4 8.5 0 3.2 -0.2 3.6 -0.9 2 -0.7 -1.4 -0.8 0.2 -0.6 4.8 0.2 3.7 0.6 7 0.9 7.3 0.7 0.7 -3 4.4 -4.4 4.4 -0.6 0 -0.9 -0.6 -0.6 -1.4z"/>
  <path d="M244.1 312.3 l0.2 -4.8 0.6 4 0.6 4 6.8 0.3 c5.4 0.2 6.7 0 6.7 -1.2 0 -0.8 0.5 -1.8 1 -2.1 0.6 -0.4 1 0.5 1 1.9 0 2.6 0 2.6 -8.5 2.6 l-8.5 0 0.1 -4.7z"/>
  <path d="M265 315.5 c0 -0.8 -0.4 -1.5 -0.8 -1.5 -0.4 0 -0.7 -3.9 -0.6 -8.7 0.2 -6.8 0 -7.8 -0.5 -4.3 l-0.8 4.5 -0.1 -5 c-0.2 -6.3 0.6 -9.5 2.4 -9.5 1.1 0 1.4 1.8 1.5 7.8 0 5.6 0.3 7.1 0.9 5.5 1.6 -3.9 2 -2.6 1.8 5.2 -0.3 6.4 -0.6 7.5 -2 7.5 -1 0 -1.8 -0.7 -1.8 -1.5z"/>
  <path d="M259.3 302.5 c0 -3.3 0.2 -4.5 0.4 -2.7 0.2 1.8 0.2 4.5 0 6 -0.2 1.5 -0.4 0 -0.4 -3.3z"/>
  <path d="M244.4 297.5 c0 -8.5 0.4 -10.5 2.2 -10.5 1 0 1.4 1.3 1.4 4 0 2.8 -0.4 4 -1.4 4 -1.1 0 -1.6 1.4 -1.9 4.8 -0.2 3.1 -0.4 2.3 -0.3 -2.3z"/>
  <path d="M227 251 c-0.7 -3.8 -1.7 -7 -2.2 -7 -0.4 0 -0.8 -1.6 -0.8 -3.5 0 -1.9 -0.4 -3.5 -1 -3.5 -1.2 0 -1.3 -6.7 -0.1 -7.4 0.9 -0.6 1.9 1.8 2.8 6.4 0.2 1.3 1 2.8 1.6 3.2 0.6 0.4 0.8 1 0.5 1.4 -0.4 0.4 -0.2 1.6 0.4 2.8 0.7 1.1 1.3 2.4 1.4 2.9 0.1 0.4 0.3 0.8 0.4 1 0.1 0.1 0.4 1.3 0.5 2.7 0.1 1.4 0.3 3 0.5 3.5 0.6 2.3 -0.1 4.5 -1.3 4.5 -0.9 0 -1.8 -2.5 -2.7 -7z"/>
  <path d="M235 255.5 c0 -1.6 2.2 -4.5 3 -4 0.5 0.3 1.1 0.1 1.5 -0.5 1.3 -2 2.3 -0.9 1.6 1.8 -0.5 2 -1.5 2.8 -3.4 3 -1.5 0.2 -2.7 0 -2.7 -0.3z"/>
  <path d="M232.9 249.3 c-0.1 -0.4 -0.1 -1.1 0 -1.5 0 -0.4 -0.4 -2 -1.1 -3.5 -0.6 -1.5 -1.2 -3.4 -1.4 -4.1 -0.1 -0.8 -0.6 -2.1 -1 -3 -0.4 -0.9 -0.9 -2.6 -1.1 -3.6 -0.2 -1.1 -0.8 -2.5 -1.3 -3.1 -0.5 -0.7 -0.7 -1.4 -0.4 -1.8 0.3 -0.3 0 -1.6 -0.7 -2.9 -0.7 -1.2 -1.4 -2.6 -1.5 -3 -0.1 -0.5 -0.3 -1.1 -0.4 -1.5 -0.1 -0.5 -0.2 -1.1 -0.1 -1.5 0 -0.5 -0.3 -0.8 -0.7 -0.8 -0.5 0 -0.9 -1.4 -0.9 -3.1 0 -1.7 -0.4 -3.4 -0.9 -3.7 -0.5 -0.4 -1 -1.8 -1.2 -3.2 -0.1 -1.3 -0.6 -2.7 -1 -3 -0.4 -0.3 -0.8 -1.6 -1 -3 -0.1 -1.4 -0.7 -2.7 -1.2 -2.8 -0.6 -0.2 -0.8 -0.8 -0.5 -1.3 0.3 -0.5 0 -1.9 -0.7 -3.1 -0.7 -1.3 -1.1 -2.6 -1 -3 0.1 -0.4 -0.3 -1.9 -0.8 -3.3 -0.6 -1.6 -0.6 -2.5 0 -2.5 0.6 0 1 0.7 1 1.5 0 0.8 0.7 1.5 1.5 1.5 1 0 1.5 1 1.5 3 0 1.7 0.5 3 1 3 0.6 0 1 1.4 1 3 0 1.7 0.5 3 1 3 0.6 0 1 1.4 1 3 0 1.7 0.5 3 1 3 0.6 0 1 1.4 1 3 0 1.7 0.4 3 0.8 3 1 0 3.2 6.8 3.2 9.9 0 1.1 0.5 2.1 1 2.1 0.6 0 1 1.4 1 3 0 1.7 0.5 3 1 3 0.6 0 1 1.4 1 3 0 1.7 0.5 3 1 3 0.6 0 1 1.6 1 3.5 0 3.4 0.1 3.5 2.8 2.9 1.5 -0.4 2.9 -1.1 3 -1.6 0.5 -1.1 7.2 -1 7.2 0.1 0 0.9 -2.3 2.2 -4.9 2.7 -0.8 0.1 -1.8 0.9 -2.2 1.6 -0.5 0.7 -0.9 0.9 -0.9 0.3 0 -0.6 -0.3 -0.5 -0.8 0.1 -0.9 1.4 -5.2 2.8 -5.3 1.7z"/>
  <path d="M274.5 248.3 c0.1 -1 0.7 -2.9 1.2 -4.3 0.6 -1.4 0.8 -2.9 0.6 -3.4 -0.3 -0.4 -0.1 -1.1 0.5 -1.5 0.7 -0.4 1.3 -1.6 1.6 -2.6 0.9 -4.4 1.9 -6.4 2.7 -5.9 1.2 0.7 1.1 7.4 -0.1 7.4 -0.5 0 -1 1.4 -1 3 0 1.7 -0.4 3 -1 3 -0.5 0 -1 1.4 -1 3 0 2.2 -0.5 3 -1.8 3 -1.2 0 -1.8 -0.6 -1.7 -1.7z"/>
  <path d="M270.8 246.4 c-0.5 -0.4 -0.8 -2 -0.8 -3.6 0 -3.3 3.9 -15.1 5.1 -15.6 0.5 -0.2 0.9 -1.7 0.9 -3.3 0 -2.2 0.5 -2.9 2 -2.9 2 0 2.2 1.5 0.6 5.2 -0.4 0.9 -0.9 2.5 -1.1 3.5 -0.2 1 -0.4 1.9 -0.5 2.1 -0.2 0.1 -0.4 0.7 -0.5 1.2 -0.1 0.6 -0.3 1.1 -0.4 1.3 -0.2 0.1 -0.4 1.3 -0.7 2.6 -0.2 1.4 -0.9 3 -1.4 3.6 -0.5 0.7 -0.7 1.5 -0.3 1.8 0.3 0.4 0.1 0.7 -0.5 0.7 -0.6 0 -1.2 0.9 -1.4 2.1 -0.2 1.1 -0.6 1.7 -1 1.3z"/>
  <path d="M221 225.5 c0 -0.8 -0.6 -1.5 -1.4 -1.5 -1.8 0 -2.6 -2.2 -2.6 -7.6 0 -3.2 -0.4 -4.4 -1.5 -4.4 -1 0 -1.5 -1 -1.5 -3 0 -1.6 -0.4 -3 -1 -3 -0.5 0 -1 -1.3 -1 -3 0 -1.6 -0.4 -3 -1 -3 -0.5 0 -1 -1.3 -1 -3 0 -1.6 -0.4 -3 -1 -3 -0.5 0 -1 -1.3 -1 -3 0 -1.6 -0.4 -3 -1 -3 -1.2 0 -1.3 -6.7 -0.1 -7.4 0.8 -0.5 1.7 1.3 2.6 5.2 0.2 0.8 0.7 2.1 1.1 3 0.4 0.9 0.8 2.3 1 3 0.1 0.8 0.6 2.1 1 3 0.4 0.9 0.8 2.3 1 3 0.1 0.8 0.6 2.1 1 3 0.4 0.9 0.8 2.3 1 3 0.1 0.8 0.6 2.1 1 3 0.4 0.9 0.9 2.7 1.1 4 0.2 1.2 0.9 3.5 1.5 5 0.6 1.5 1.1 3 1 3.5 -0.1 0.4 0.3 0.7 0.9 0.7 0.5 0 0.8 0.4 0.5 0.9 -0.4 0.5 -0.2 2.1 0.4 3.5 0.6 1.7 0.6 2.6 0 2.6 -0.6 0 -1 -0.7 -1 -1.5z"/>
  <path d="M284.4 219.3 c1.1 -5.9 3.6 -7.1 3.6 -1.8 0 2.8 -0.4 3.5 -2 3.5 -1.4 0 -1.9 -0.6 -1.6 -1.7z"/>
  <path d="M288.4 208.3 c1.5 -6.9 3.6 -7.9 3.6 -1.7 0 2.7 -0.4 3.4 -2 3.4 -1.4 0 -1.9 -0.5 -1.6 -1.7z"/>
  <path d="M283 206.3 c0 -4.8 1.1 -7.3 3.1 -7.3 1.4 0 1.8 0.6 1.5 2.3 -0.3 1.2 -0.5 2.3 -0.7 2.5 -0.1 0.1 -0.2 0.5 -0.4 1 -1.3 4.6 -3.5 5.6 -3.5 1.5z"/>
  <path d="M230.7 200.3 c-0.4 -0.3 -0.7 -1.7 -0.7 -2.9 0 -1.8 0.4 -2.2 1.8 -1.6 2.7 1.1 6.2 3.6 6.2 4.4 0 1 -6.4 1.1 -7.3 0.1z"/>
  <path d="M240.3 200.3 c0.9 -0.2 2.5 -0.2 3.5 0 0.9 0.3 0.1 0.5 -1.8 0.5 -1.9 0 -2.7 -0.2 -1.7 -0.5z"/>
  <path d="M260.3 200.3 c0.9 -0.2 2.5 -0.2 3.5 0 0.9 0.3 0.1 0.5 -1.8 0.5 -1.9 0 -2.7 -0.2 -1.7 -0.5z"/>
  <path d="M240.7 196.6 c-0.8 -0.6 -1.7 -3.3 -2.1 -6.1 -0.3 -2.7 -1.1 -5.2 -1.6 -5.3 -0.6 -0.2 -0.8 -0.8 -0.4 -1.3 0.3 -0.5 0 -0.9 -0.6 -0.9 -0.6 0 -0.8 -0.5 -0.5 -1 0.3 -0.6 -0.1 -1.3 -0.9 -1.6 -0.9 -0.3 -1.6 -1.2 -1.6 -1.9 0 -0.7 -1 -2 -2.2 -2.8 l-2.3 -1.6 2.8 0 c2.6 -0.1 5.7 1.8 5.7 3.4 0 0.4 0.7 1.3 1.5 2.1 1 1.1 1.5 3.6 1.5 8 l0 6.4 3 0 c1.9 0 3 0.5 3 1.4 0 1.8 -3.5 2.7 -5.3 1.2z"/>
  <path d="M259.8 197.3 c-3.4 -0.8 -2 -3.3 1.7 -3.3 1.9 0 3.5 0.4 3.5 1 0 1.3 -3.2 2.7 -5.2 2.3z"/>
  <path d="M274.1 194.4 c1.3 -1.4 2.5 -2 2.7 -1.5 0.4 1.3 -2.2 4.1 -3.9 4.1 -0.7 0 -0.2 -1.1 1.2 -2.6z"/>
  <path d="M288 192 c0 -2.2 0.5 -4 1 -4 0.6 0 1 -1.1 1 -2.5 0 -1.4 0.5 -2.5 1 -2.5 0.6 0 1 -1.1 1 -2.5 0 -1.9 0.5 -2.5 2 -2.5 1.4 0 2 0.6 1.8 1.8 -0.2 0.9 -0.6 1.9 -1 2.2 -0.3 0.3 -0.8 1.4 -1 2.5 -0.1 1.1 -0.7 2.3 -1.2 2.6 -0.5 0.4 -0.8 1.8 -0.8 3.3 0 1.4 -0.4 2.6 -0.9 2.6 -0.5 0 -0.9 0.7 -0.9 1.5 0 0.8 -0.4 1.5 -1 1.5 -0.5 0 -1 -1.8 -1 -4z"/>
  <path d="M293.1 195.3 c0 -0.5 0.4 -1.7 0.9 -2.8 0.8 -1.8 0.9 -1.7 0.9 0.8 0.1 1.5 -0.3 2.7 -0.9 2.7 -0.5 0 -1 -0.3 -0.9 -0.7z"/>
  <path d="M232.8 192.5 c-1.6 -1.3 -2.8 -2.9 -2.8 -3.5 0 -0.5 -0.5 -1 -1.1 -1 -0.5 0 -0.7 -0.4 -0.4 -1 0.3 -0.5 0.1 -1 -0.5 -1 -0.6 0 -0.8 -0.4 -0.5 -1 0.3 -0.5 0.1 -1 -0.5 -1 -0.6 0 -0.8 -0.4 -0.5 -1 0.3 -0.5 0.2 -1 -0.2 -1 -0.5 0 -0.9 -0.9 -1 -2 -0.3 -3.1 3 -2.4 6.5 1.4 1.7 1.9 2.8 3.7 2.5 4 -0.4 0.3 -0.1 0.6 0.6 0.6 0.7 0 0.9 0.5 0.6 1 -0.4 0.6 -0.3 1.6 0.3 2.3 0.5 0.7 0.6 2.2 0.3 3.4 l-0.6 2.2 -2.7 -2.4z"/>
  <path d="M227 192.5 c0 -0.8 -1.1 -1.7 -2.5 -2.1 -1.8 -0.4 -2.5 -1.3 -2.5 -3 0 -1.3 -0.4 -2.4 -1 -2.4 -0.5 0 -1 -1.6 -1 -3.5 0 -4.7 2.1 -4.5 3.1 0.3 0.1 0.4 1.4 3.1 3 6.1 3.3 6.1 3.3 6.1 1.9 6.1 -0.5 0 -1 -0.7 -1 -1.5z"/>
  <path d="M268.4 191.8 c0.1 -1.3 0.8 -3.3 1.4 -4.4 0.6 -1.2 0.8 -2.4 0.5 -2.8 -0.3 -0.3 -0.1 -0.6 0.5 -0.6 0.7 0 1.2 -0.4 1.2 -1 0 -1.2 4.4 -5.5 6.4 -6.3 1.1 -0.5 1.6 -0.1 1.6 1.4 0 1.3 -0.8 2.3 -2.1 2.6 -1.5 0.4 -1.9 1.1 -1.5 2.6 0.5 2 -1.6 6.7 -4.1 9.4 -1.9 2.1 -4.2 1.6 -3.9 -0.9z"/>
  <path d="M265.6 186.5 c0.3 -3.8 1 -7.1 1.5 -7.3 0.5 -0.2 0.9 -1 0.9 -1.8 0 -0.8 0.7 -1.4 1.5 -1.4 0.8 0 1.5 -0.8 1.5 -1.8 0 -2.2 3.9 -4.2 8 -4.2 2.3 0 3 -0.5 3 -2 0 -1.1 0.7 -2 1.5 -2 0.8 0 1.5 -0.4 1.5 -1 0 -0.5 1.6 -1 3.5 -1 4.2 0 4.6 1.6 0.8 3.3 -1.6 0.6 -3 1.4 -3.3 1.7 -1.4 1.6 -7.8 4.9 -8.3 4.3 -0.4 -0.3 -0.7 -0.2 -0.7 0.4 0 0.5 -1.1 1.5 -2.5 2.1 -1.4 0.6 -2.5 1.8 -2.5 2.7 0 0.8 -0.4 1.5 -1 1.5 -0.5 0 -1 0.6 -1 1.4 0 0.8 -0.5 1.6 -1.1 1.8 -0.6 0.2 -1.7 2.6 -2.5 5.3 l-1.4 5 0.6 -7z"/>
  <path d="M277.9 189.7 c0.6 -0.8 0.9 -1.6 0.7 -1.8 -0.2 -0.2 0.5 -1.3 1.5 -2.3 1.9 -1.9 1.9 -1.9 1.9 1.7 0 3.3 -0.3 3.7 -2.6 3.7 -2.1 0 -2.4 -0.3 -1.5 -1.3z"/>
  <path d="M295.5 187.9 c0.4 -1.2 0.8 -2.7 1 -3.3 1.1 -5.3 3.5 -6 3.5 -1.1 0 2.4 -0.5 3.5 -1.5 3.5 -0.8 0 -1.5 0.7 -1.5 1.5 0 0.8 -0.5 1.5 -1.1 1.5 -0.6 0 -0.8 -0.9 -0.4 -2.1z"/>
  <path d="M212 183.5 c0 -0.8 -0.5 -1.5 -1.1 -1.5 -0.5 0 -0.8 -0.3 -0.6 -0.7 0.3 -0.5 0 -1.9 -0.6 -3.3 -1.8 -4.5 -1.4 -7.5 1.2 -7.8 2.2 -0.3 2.3 -0.1 1.6 3.7 -0.4 2.7 -0.3 4.1 0.4 4.1 0.6 0 1.1 1.6 1.1 3.5 0 1.9 -0.4 3.5 -1 3.5 -0.5 0 -1 -0.7 -1 -1.5z"/>
  <path d="M282.4 180.3 c1.1 -5.9 3.6 -7.1 3.6 -1.8 0 2.8 -0.4 3.5 -2 3.5 -1.4 0 -1.9 -0.6 -1.6 -1.7z"/>
  <path d="M203 175.5 c0 -1.9 0.4 -3.5 0.9 -3.5 0.5 0 1.1 -1 1.3 -2.2 0.2 -1.5 1.1 -2.4 2.6 -2.6 l2.4 -0.4 -2.2 2.2 c-1.6 1.6 -2 3 -1.7 6 0.3 3.4 0.1 4 -1.4 4 -1.5 0 -1.9 -0.8 -1.9 -3.5z"/>
  <path d="M287.5 171 c3.4 -2.2 4.5 -2.5 4.5 -1 0 0.6 -0.7 1 -1.5 1 -0.8 0 -1.5 0.5 -1.5 1 0 0.6 -1 1 -2.2 1 -2.1 0 -2.1 -0.2 0.7 -2z"/>
  <path d="M327.4 245.8 c-0.4 -0.6 -0.3 -0.8 0.3 -0.5 0.6 0.4 1.3 -0.3 1.6 -1.4 0.3 -1.2 1 -1.8 1.6 -1.4 1.6 0.9 1.3 1.9 -0.9 3.2 -1.4 0.9 -2.1 1 -2.6 0.1z"/>
  <path d="M73.9 186.2 c-2.5 -0.3 -5.9 -4.6 -5.9 -7.4 0 -0.8 1.2 -2.5 2.6 -3.9 2.5 -2.4 2.7 -2.4 26.5 -2.7 l24 -0.3 2.9 3 c3.5 3.4 3.8 5.9 1.1 9.2 -1.9 2.4 -2 2.4 -25.3 2.4 -12.8 0.1 -24.5 -0.1 -25.9 -0.3z"/>
  <path d="M381.3 186.3 c-2.5 -0.5 -4.8 -5.3 -3.9 -8.6 1.1 -4.7 4 -5.2 29.2 -5 20.8 0.2 23.6 0.4 25.9 2 3.9 2.8 4.3 6 1.1 9.1 l-2.6 2.7 -23.8 0.1 c-13 0.1 -24.7 0 -25.9 -0.3z"/>
  <path d="M131.5 123.9 c-10.1 -5.4 -11.6 -8.2 -7.4 -14 3.3 -4.7 10.3 -3.5 17.2 2.9 3.3 3.1 3.5 6.3 0.5 9.6 -3.3 3.5 -5.8 3.9 -10.3 1.5z"/>
  <path d="M363.5 123.5 c-1.7 -1.6 -2.5 -3.5 -2.5 -5.9 0 -3.1 0.5 -3.8 5.7 -7 9.1 -5.7 15.9 -4.1 15.1 3.5 -0.3 2.9 -1.2 4 -6.7 7.6 -3.5 2.4 -7 4.3 -7.8 4.3 -0.8 0 -2.5 -1.1 -3.8 -2.5z"/>
  <path d="M323.6 119.3 c-0.3 -0.3 -0.6 -1.9 -0.6 -3.4 0 -2.1 0.4 -2.7 1.5 -2.3 1.8 0.7 2 3.4 0.3 3.4 -1 0 -0.9 0.3 0.1 0.9 0.7 0.5 0.9 1.1 0.3 1.4 -0.5 0.4 -1.2 0.4 -1.6 0z"/>
  <path d="M320.5 115.5 c-0.3 -0.8 -0.7 -2.2 -1 -3.1 -0.4 -1.4 -0.3 -1.5 0.9 -0.5 0.8 0.7 1.4 2.1 1.3 3.2 -0.2 2.3 -0.6 2.4 -1.2 0.4z"/>
  <path d="M310.6 105.8 c0.6 -2.1 0.5 -2.1 -1 -0.9 -1.5 1.2 -1.7 1.2 -1.4 0 0.6 -2.7 5.8 -3.5 5.8 -0.8 0 0.6 -0.6 0.7 -1.2 0.3 -1 -0.6 -1 -0.5 -0.1 0.8 1.4 1.6 0.8 2.8 -1.4 2.8 -1 0 -1.2 -0.6 -0.7 -2.2z"/>
  <path d="M173.4 73.9 c-2.1 -2.8 -6.6 -9.9 -10.1 -15.7 -5.3 -8.6 -6.3 -11.1 -6.1 -14.1 0.2 -3 0.7 -3.7 2.8 -3.9 1.4 -0.2 3.1 -0.8 3.7 -1.4 1.7 -1.4 7.4 3.6 9.9 8.7 1.9 4 2.6 5 6.5 9.3 2.7 3.1 8.9 13.4 8.9 14.9 0 0.6 -1.2 2.5 -2.6 4.2 -1.9 2.3 -3.4 3.1 -5.9 3.1 -2.8 0 -3.9 -0.7 -7.1 -5.1z"/>
  <path d="M318.9 77.2 c-3.9 -3.3 -3 -7.1 4.6 -18.5 8.8 -13.1 13.8 -18.2 18.9 -19.1 2.1 -0.4 4 -0.5 4.3 -0.2 0.3 0.3 0.8 2.3 1 4.5 0.4 3.4 -0.2 5.1 -3.3 10.3 -5.9 9.7 -14.5 22.2 -16.2 23.6 -2.3 1.8 -6.6 1.5 -9.3 -0.6z"/>
  <path d="M256.6 54.8 c0.6 -1.9 0.4 -2.1 -0.7 -1.2 -0.8 0.6 -2.7 1.4 -4.4 1.7 -1.6 0.4 -2.4 0.4 -1.7 0.1 1 -0.5 0.8 -1 -0.5 -2.2 -2.6 -2.4 -2.8 -5.2 -0.4 -5.2 1.1 0 2.1 0.5 2.3 1.2 0.2 0.6 1.2 0.9 2.1 0.5 1.5 -0.6 1.7 -2.7 1.7 -18.6 0 -19 -0.2 -19.8 -4.7 -19.2 -1.7 0.2 -2.3 -0.3 -2.3 -1.8 0 -4.2 8.4 -3.9 10 0.5 0.6 1.4 1.1 10.9 1.2 21.2 l0.2 18.7 0.6 -14.5 c0.4 -12.8 0.6 -13.8 1.3 -8.5 0.4 3.3 0.8 10.2 0.9 15.4 0.2 8.5 0 9.5 -2 11.1 -1.1 1 -1.8 2 -1.5 2.4 0.4 0.3 -0.1 0.6 -1.1 0.6 -1.3 0 -1.6 -0.5 -1 -2.2z"/>
 </g>
 <g fill="#f6b61d">
  <path d="M209.9 314.7 c-5.2 -2.8 -8.4 -7.9 -9.3 -15.3 l-0.6 -5 9 -0.2 c5 -0.1 9.8 0.2 10.8 0.7 0.9 0.5 3.8 1.7 6.5 2.6 l4.7 1.7 0 8.9 0 8.9 -8.3 0 c-6.8 0 -9.2 -0.4 -12.8 -2.3z"/>
  <path d="M236 309 c0 -7.3 0.2 -8 2 -8 1.8 0 2 0.7 2 6.4 0 7.3 -0.6 9.6 -2.6 9.6 -1.1 0 -1.4 -1.8 -1.4 -8z"/>
  <path d="M244 310.8 c0 -8.5 0.6 -9.2 7 -8.5 l5.3 0.6 -0.7 -9.9 c-0.7 -9.6 -0.6 -10 1.4 -10 1.7 0 2 0.6 2 4.8 0.1 2.6 0.3 7 0.5 9.7 0.2 2.8 0.6 8.3 1 12.3 l0.5 7.2 -8.5 0 -8.5 0 0 -6.2z"/>
  <path d="M264.6 314.8 c-0.3 -1.3 -0.6 -4.4 -0.6 -7 0 -4.1 0.3 -4.8 2 -4.8 2.1 0 2.2 0.4 2.4 8.7 0.1 4.3 -0.2 5.3 -1.5 5.3 -0.9 0 -1.9 -1 -2.3 -2.2z"/>
  <path d="M273 309 c0 -5.3 0.4 -8 1.1 -8 1.7 0 4.9 -4 4.9 -6.2 0 -1.5 0.8 -1.8 5.4 -1.8 3 0 5.6 0.4 5.8 0.9 0.2 0.5 2.4 0.7 5.1 0.4 3.7 -0.4 4.7 -0.9 4.7 -2.4 0 -1.3 0.7 -1.9 2.1 -1.9 2.1 0 2.2 0.3 1.5 7.1 -0.7 7.9 -2.1 11.2 -6.3 15 -4.5 4.2 -6.7 4.9 -15.7 4.9 l-8.6 0 0 -8z"/>
  <path d="M244 299.3 c0 -1 0.3 -4.2 0.6 -7 0.6 -4.3 1 -5.3 2.5 -5.3 2.1 0 2.3 1.7 1.3 9.4 -0.5 3.6 -1.1 4.6 -2.5 4.6 -1.1 0 -1.9 -0.7 -1.9 -1.7z"/>
  <path d="M263.7 297.3 c-0.4 -0.3 -0.7 -2.6 -0.7 -5 0 -3.6 0.3 -4.3 2 -4.3 1.7 0 2 0.7 2 5 0 3.5 -0.4 5 -1.3 5 -0.8 0 -1.7 -0.3 -2 -0.7z"/>
  <path d="M302 283 c0 -3.6 0.3 -4 2.4 -4 2.3 0 2.3 0.2 1.4 4 -0.6 2.2 -1.6 4 -2.4 4 -1 0 -1.4 -1.3 -1.4 -4z"/>
  <path d="M238 272.5 c0 -10.8 0.1 -11.5 2 -11.5 1.9 0 2 0.7 2 11.5 0 10.8 -0.1 11.5 -2 11.5 -1.9 0 -2 -0.7 -2 -11.5z"/>
  <path d="M323 241.5 c0 -3.2 0.2 -3.5 3 -3.5 3.2 0 3.2 0.8 -0.3 5.3 -2.1 2.5 -2.7 2.1 -2.7 -1.8z"/>
  <path d="M171.5 232 c-2 -3.8 -1.9 -4 1 -4 2.2 0 2.5 0.4 2.5 3.5 0 4.3 -1.4 4.5 -3.5 0.5z"/>
  <path d="M331 230.1 c0 -4.5 1 -6.1 3.6 -6.1 2.9 0 2.9 0.1 0.4 5 -2.4 4.7 -4 5.1 -4 1.1z"/>
  <path d="M164.5 217.6 c-1.3 -2.9 -2.7 -7 -3 -9 -0.6 -3.2 -0.5 -3.6 1.4 -3.6 1.6 0 2.1 -0.6 2.1 -2.5 0 -2.2 0.4 -2.5 3.5 -2.5 3.3 0 3.5 0.2 3.5 3.5 0 3.3 -0.2 3.5 -3.3 3.5 l-3.3 0 1 4.5 c0.6 2.5 1.4 4.5 1.8 4.5 0.5 0 0.8 1.6 0.8 3.5 0 5 -1.8 4.3 -4.5 -1.9z"/>
  <path d="M336 219.6 c0 -3.2 0.3 -3.6 2.5 -3.6 2.4 0 2.5 0.1 1.2 3.2 -1.9 4.6 -3.7 4.8 -3.7 0.4z"/>
  <path d="M253 216.5 c0 -3.3 0.2 -3.5 3.5 -3.5 3.3 0 3.5 0.2 3.5 3.5 0 3.3 -0.2 3.5 -3.5 3.5 -3.3 0 -3.5 -0.2 -3.5 -3.5z"/>
  <path d="M340 208 c0 -2.3 -0.4 -3 -2 -3 -1.6 0 -2 -0.7 -2 -3.5 0 -3.2 0.3 -3.5 2.9 -3.5 2.4 0 2.9 -0.5 3.3 -3 0.4 -2.8 0.3 -3 -3 -3 l-3.5 0 0.7 -5.2 c0.3 -2.9 0.6 -6.1 0.6 -7 0 -1 0.7 -1.8 1.5 -1.8 0.8 0 1.5 -0.4 1.5 -1 0 -0.5 0.7 -1 1.5 -1 0.8 0 1.5 -0.7 1.5 -1.5 0 -2.6 2.9 -1.6 3.6 1.1 1.8 7.1 -2.4 35.4 -5.2 35.4 -0.9 0 -1.4 -1.1 -1.4 -3z"/>
  <path d="M159.7 200.7 c-0.3 -0.8 -0.8 -4.4 -1.2 -8 -0.7 -6.4 -0.6 -6.7 1.4 -6.7 1.6 0 2.1 0.6 2.1 2.8 0 1.5 0.3 5.1 0.6 8 0.6 4.3 0.4 5.2 -0.9 5.2 -0.8 0 -1.7 -0.6 -2 -1.3z"/>
  <path d="M163 186.5 c0 -3.3 0.2 -3.5 3.5 -3.5 3.3 0 3.5 0.2 3.5 3.5 0 3.3 -0.2 3.5 -3.5 3.5 -3.3 0 -3.5 -0.2 -3.5 -3.5z"/>
  <path d="M327 182 c0 -3.9 0.1 -4 3.5 -4 3.4 0 3.5 0.1 3.5 4 0 3.9 -0.1 4 -3.5 4 -3.4 0 -3.5 -0.1 -3.5 -4z"/>
  <path d="M158.2 177.8 c0.2 -2.2 0.9 -3.4 2.1 -3.6 1.4 -0.3 1.7 0.4 1.7 3.2 0 3 -0.4 3.6 -2.1 3.6 -1.7 0 -2 -0.5 -1.7 -3.2z"/>
 </g>
 <g fill="#38b4e7">
  <path d="M202 174.1 c0 -5.9 0.8 -7.1 4.6 -7.1 l3.4 0 -2 2 c-1.2 1.2 -2 3.3 -2 5.5 0 2.8 -0.4 3.5 -2 3.5 -1.7 0 -2 -0.7 -2 -3.9z"/>
  <path d="M216.7 176.3 c-0.4 -0.3 -0.7 -1.7 -0.7 -3 0 -2.8 -1.6 -3 -2.3 -0.3 -0.3 1.2 -1.4 2 -2.7 2 -1.6 0 -2.1 -0.5 -1.8 -2.2 0.4 -3.1 5.2 -3.5 9.6 -0.8 3.8 2.3 4.3 5 0.9 5 -1.3 0 -2.7 -0.3 -3 -0.7z"/>
  <path d="M272 174.1 c0 -2.6 0.4 -3.1 2.5 -3.1 1.4 0 2.5 -0.4 2.5 -1 0 -0.5 0.6 -1 1.4 -1 0.8 0 1.6 -0.7 2 -1.5 0.3 -0.8 1.2 -1.5 2 -1.5 0.8 0 1.6 -0.5 1.8 -1.2 0.6 -1.6 13.8 -2.5 13.8 -0.9 0 0.6 0.9 1.1 2 1.1 1.6 0 2 0.6 1.9 3.3 -0.1 1.7 -0.5 4.6 -0.9 6.2 l-0.8 3 -0.1 -3.6 c-0.2 -7.7 -7.8 -9.6 -15.5 -4.1 -2.4 1.8 -5 3.2 -5.6 3.2 -0.7 0 -2.5 0.9 -4.1 2.1 l-2.9 2 0 -3z"/>
  <path d="M294 175 c0 -1.5 -0.7 -2 -2.5 -2 -1.6 0 -2.5 0.6 -2.5 1.5 0 0.9 -0.9 1.5 -2.5 1.5 -1.4 0 -2.5 -0.3 -2.5 -0.7 0.1 -2.4 5.5 -6.3 8.6 -6.3 2.9 0 5.5 3.1 4.7 5.8 -0.7 2.7 -3.3 2.9 -3.3 0.2z"/>
  <path d="M328.2 175 c-0.6 -1.1 -1.2 -2.9 -1.2 -4 0 -1.1 -0.7 -2 -1.5 -2 -1 0 -1.5 -1 -1.5 -3.4 0 -1.9 -0.7 -4.1 -1.5 -5 -1 -0.9 -1.5 -3.4 -1.5 -7 0 -4.3 0.3 -5.6 1.5 -5.6 0.8 0 1.5 -0.9 1.5 -2 0 -1.1 -0.7 -2 -1.5 -2 -0.8 0 -1.5 -0.4 -1.5 -1 0 -0.5 -0.6 -1 -1.4 -1 -0.8 0 -1.6 -1.7 -2 -4.6 -0.7 -5.6 -2.4 -7.4 -7 -7.4 l-3.6 0 0 -5 c0 -4.9 -0.1 -5 -3 -5 -2.8 0 -3 -0.3 -3 -3.5 0 -3.1 0.3 -3.5 2.8 -3.6 2.3 -0.2 2.4 -0.2 0.5 -0.6 -1.3 -0.2 -2.3 -0.9 -2.3 -1.4 0 -0.5 -0.9 -0.9 -2 -0.9 -1.3 0 -2 -0.7 -2 -2 0 -2 -0.4 -2.1 -6 -1.4 -6 0.7 -6 0.7 -6 -2 0 -2.5 -0.2 -2.6 -5.7 -2.6 -9.3 0 -13.3 -1 -13.3 -3.1 0 -1.1 -0.7 -1.9 -1.7 -1.9 -1 0 -7.3 -0.7 -14.1 -1.5 -12.8 -1.5 -18.2 -1.2 -18.2 1.1 0 1 -1.4 1.4 -4.6 1.4 -6.3 0 -19.4 6 -19.4 8.9 0 1.6 -0.6 2.1 -2.5 2.1 -1.4 0 -2.5 0.5 -2.5 1 0 0.6 -1 1 -2.2 1 -2.9 0.1 -5.8 2.2 -5.8 4.4 0 0.9 -0.4 1.6 -1 1.6 -0.5 0 -1 0.7 -1 1.5 0 0.8 -0.7 1.5 -1.5 1.5 -1.2 0 -1.5 1.3 -1.5 5.5 0 4.8 -0.2 5.5 -2 5.5 -1.3 0 -2.2 0.9 -2.6 2.5 -0.3 1.4 -1 2.5 -1.5 2.5 -0.5 0 -0.9 0.7 -0.9 1.5 0 0.8 -0.6 1.5 -1.4 1.5 -1 0 -1.2 1.1 -0.8 4.5 0.5 4.5 0.4 4.5 -2.7 4.5 -2.6 0 -3.1 0.4 -3.1 2.5 0 1.6 0.6 2.5 1.5 2.5 1.6 0 1.9 2.7 0.9 7.8 -0.4 2.1 -1.4 3.2 -3 3.6 -1.8 0.5 -2.4 1.3 -2.4 3.5 0 2.9 -1.4 4.1 -5.1 4.1 -1 0 -1.9 0.5 -1.9 1 0 0.6 -1.6 1 -3.6 1 l-3.7 0 0.7 -5.7 c1.6 -13.8 10.3 -32.4 21.2 -45.7 20.2 -24.5 56.4 -38 86.6 -32.2 9.2 1.8 23.7 6.8 29.7 10.2 13.7 7.9 27.6 20.9 35.6 33.4 7.4 11.5 13.5 28.9 13.5 38.8 l0 4.2 -8.3 0 c-7.1 0 -8.4 -0.3 -9.5 -2z"/>
  <path d="M225.2 172.9 c-1.3 -0.5 -3.5 -1.8 -4.8 -2.8 -1.4 -1.1 -3.8 -2.3 -5.4 -2.6 -4.3 -0.9 -3.9 -3.5 0.5 -3.5 2.4 0 3.5 0.5 3.5 1.5 0 1 1 1.5 2.8 1.5 3.6 0.1 6.4 2.3 6 4.8 -0.2 1.6 -0.7 1.8 -2.6 1.1z"/>
  <path d="M168.6 130.8 c2.8 -4.9 10.1 -14.1 14.5 -18.3 4.3 -4.1 3.9 -3.5 -2.2 3.5 -4.1 4.7 -8.5 10.2 -9.8 12.3 -1.2 2 -2.5 3.7 -2.7 3.7 -0.3 0 -0.2 -0.6 0.2 -1.2z"/>
  <path d="M248.6 51.8 c-1.3 -1.8 -1.6 -5.6 -1.6 -20.5 0 -10 0.4 -19.3 0.9 -20.6 1.3 -3.3 4.6 -4.3 7.6 -2.3 l2.5 1.6 0 21 c0 19.7 -0.1 21 -1.9 22 -3.1 1.6 -5.9 1.2 -7.5 -1.2z m5.2 -10.6 c0.2 -6.8 0 -8.2 -1.3 -8.2 -1.2 0 -1.5 1.5 -1.5 8.6 0 6.4 0.3 8.5 1.3 8.2 0.8 -0.3 1.3 -3.2 1.5 -8.6z"/>
 </g>
 <g fill="#e5c829">
  <path d="M211.4 315.4 c-3.3 -1.8 -6.6 -4.5 -6 -5.1 0.2 -0.3 2.7 0.9 5.6 2.5 5.3 3 5.7 5.3 0.4 2.6z"/>
  <path d="M236 290.5 c0 -17 0.4 -26.5 1 -26.5 0.6 0 1 -0.9 1 -2 0 -1.1 -0.7 -2 -1.5 -2 -2.8 0 -1.8 -5.6 1.4 -7.9 3.6 -2.6 4.1 -2.6 4.1 -0.1 0 1.1 -0.7 2 -1.5 2 -0.8 0 -1.5 0.9 -1.5 2 0 1.1 0.6 2 1.4 2 1.2 0 1.3 3.3 1 19.7 -0.3 10.8 -0.9 21.5 -1.4 23.6 -0.4 2.2 -0.6 5.4 -0.3 7.3 0.7 4.3 -0.4 8.4 -2.2 8.4 -1.3 0 -1.5 -3.8 -1.5 -26.5z"/>
  <path d="M244.4 304.8 c0.3 -6.8 0.7 -13.4 0.9 -14.8 0.2 -1.4 0.5 -9.8 0.5 -18.7 0.2 -15.6 0.3 -16.3 2.2 -16.3 1.8 0 2 0.7 2 6.5 0 5.8 0.2 6.5 2 6.5 1.8 0 2 -0.7 2 -5.5 0 -4.8 0.2 -5.5 2 -5.5 1.9 0 2 0.7 2 10.8 0.1 11.9 0.8 29 1.5 37 0.6 5.7 -0.3 6.4 -3.8 3.2 -3.2 -3.1 -6.5 -3.6 -8.2 -1.4 -0.7 1.1 -0.9 2.1 -0.4 2.2 1.2 0.5 1.2 3.2 -0.1 3.2 -0.5 0 -1 0.7 -1 1.5 0 0.8 0.5 1.5 1 1.5 0.6 0 1 0.5 1 1 0 0.6 -0.9 1 -2.1 1 -2 0 -2.1 -0.3 -1.5 -12.2z"/>
  <path d="M264.6 313.8 c-0.3 -1.8 -0.5 -4.4 -0.4 -5.8 0.1 -1.4 -0.2 -7.2 -0.7 -13 -0.5 -5.8 -0.9 -13.9 -0.9 -18 l-0.1 -7.5 3.3 -0.3 3.3 -0.3 -0.2 20 c-0.1 17.6 -0.3 20.1 -1.7 20.1 -1.4 0 -1.4 0.2 0.1 1.3 1.5 1 1.6 1.6 0.5 3.9 -1.7 3.7 -2.6 3.5 -3.2 -0.4z"/>
  <path d="M273.7 316.3 c-0.2 -0.5 -0.5 -9 -0.6 -19 -0.2 -18.1 -0.2 -18.3 1.9 -18.3 2.1 0 2.1 0.1 1.8 19 -0.2 13.8 -0.6 19 -1.5 19 -0.6 0 -1.4 -0.3 -1.6 -0.7z"/>
  <path d="M201.7 303.8 c-0.3 -1.3 -1.1 -6.3 -1.7 -11.3 -1 -8 -1.9 -12.8 -3.6 -18.7 -0.4 -1.4 0.1 -1.8 1.9 -1.8 2.3 0 2.6 0.5 4.1 8.8 0.8 4.8 1.8 12.4 2.2 17 0.6 7 0.4 8.2 -0.9 8.2 -0.8 0 -1.7 -1 -2 -2.2z"/>
  <path d="M300.4 289.5 c0.4 -3.6 0.9 -7.2 1.2 -8 0.5 -1.1 -0.1 -1.5 -2.5 -1.5 -2.9 0 -3.1 -0.2 -3.1 -3.6 0 -3.6 0 -3.6 3.9 -3.2 3.8 0.3 4 0.2 5.1 -3.7 0.7 -2.2 2.3 -6.1 3.6 -8.7 l2.4 -4.8 -2.5 0 c-2.2 0 -2.5 -0.4 -2.5 -3.5 0 -3.2 0.2 -3.5 3 -3.5 2.8 0 3 -0.3 3 -3.5 0 -1.9 0.5 -3.5 1 -3.5 0.6 0 1 -1.1 1 -2.5 0 -1.4 -0.4 -2.5 -1 -2.5 -2.4 0 -0.6 -10 1.9 -10.1 1 0 1.1 -0.2 0.4 -0.6 -0.7 -0.2 -1.3 -2 -1.3 -3.9 0 -2.7 0.4 -3.4 2 -3.4 1.5 0 2 -0.7 2 -2.9 0 -2 0.6 -3.1 1.8 -3.4 1.1 -0.3 0.8 -0.5 -0.9 -0.6 -2.8 -0.1 -3.9 -2.1 -3.9 -7.3 0 -2.3 0.4 -2.8 2.5 -2.8 2 0 2.5 -0.6 3.1 -3.5 0.3 -1.9 1 -3.5 1.5 -3.5 0.5 0 0.9 -0.9 0.9 -2 0 -1.1 -0.7 -2 -1.5 -2 -0.8 0 -1.5 -0.9 -1.5 -2 0 -1.4 -0.7 -2 -2.1 -2 -2.9 0 -4.9 -2.4 -4.9 -5.9 0 -2.6 0.4 -3.1 2.5 -3.1 1.6 0 2.5 -0.6 2.5 -1.5 0 -0.8 0.6 -1.5 1.4 -1.5 0.8 0 1.6 -0.5 1.8 -1 0.5 -1.6 15 -2.3 16 -0.7 0.6 0.9 0.8 0.9 0.8 -0.2 0 -1.1 0.3 -1.1 1.7 0 1.1 1 1.4 1 0.9 0.2 -0.4 -0.7 -0.3 -1.3 0.3 -1.3 0.5 0 1.2 0.6 1.4 1.3 0.4 0.9 0.6 0.9 0.6 0 0.1 -2 2.8 -1.5 3.3 0.4 1 4.2 -0.1 5 -8 5.9 l-7.7 0.9 0.3 3.8 c0.3 3.2 0.1 3.7 -1.7 3.7 -1.2 0 -2.1 0.6 -2.1 1.5 0 0.9 0.9 1.5 2.5 1.5 2.2 0 2.5 0.4 2.5 3.4 0 2.6 -0.5 3.6 -2 4.1 -2.1 0.7 -2.8 2.5 -1 2.5 1.5 0 1.2 6.7 -0.2 7.3 -0.8 0.3 -0.5 0.6 0.5 0.6 1 0.1 2.5 0.7 3.3 1.5 1.9 1.9 1.9 7.6 0 7.6 -1 0 -1.7 1.6 -2.2 4.5 -0.3 2.5 -1 4.5 -1.5 4.5 -0.5 0 -0.9 1.2 -0.8 2.8 l0.1 2.7 1 -2.7 c0.5 -1.6 1.6 -2.8 2.4 -2.8 0.8 0 1.4 -0.8 1.4 -1.7 0 -0.9 1.1 -4.4 2.4 -7.7 4.2 -10.6 4.2 -10.6 0.7 -10.6 -2.9 0 -3.1 -0.3 -3.1 -3.5 0 -3.3 0.2 -3.5 3.6 -3.5 1.9 0 3.3 0.4 2.9 0.9 -0.3 0.5 -0.1 1.2 0.5 1.6 0.6 0.4 1 -0.5 1 -1.9 0 -2.1 0.5 -2.6 2.4 -2.6 l2.3 0 -1.9 8.3 c-2.5 10.4 -12.3 30.8 -16.7 34.7 -1.6 1.4 -12.3 18.3 -14.9 23.5 -3.1 6.4 -6.3 16.3 -8.2 25.8 -0.8 4 -1.6 5.7 -2.7 5.7 -1.3 0 -1.5 -1 -0.9 -6.5z m14.6 -39 c0 -0.8 -0.4 -1.5 -1 -1.5 -0.5 0 -1 0.7 -1 1.5 0 0.8 0.5 1.5 1 1.5 0.6 0 1 -0.7 1 -1.5z"/>
  <path d="M283 285.5 c0 -3.4 0.1 -3.5 4 -3.5 3.9 0 4 0.1 4 3.5 0 3.4 -0.1 3.5 -4 3.5 -3.9 0 -4 -0.1 -4 -3.5z"/>
  <path d="M192.7 264.8 c-1.5 -3.5 -6.6 -11.7 -11.3 -18.3 -11.7 -16.4 -19.7 -33.5 -21.9 -46.5 -0.9 -5.6 -1.5 -23.3 -0.9 -25.7 0.6 -2.1 1.2 -2.3 8 -2.3 8.6 0 12.4 1.4 12.4 4.5 0 5.6 1.2 8.5 3.5 8.5 2.7 0 3.5 2.2 3.5 10.3 l0 5.7 -3.5 0 c-1.9 0 -3.5 -0.4 -3.5 -1 0 -0.5 -1.8 -1 -4 -1 l-4 0 0 -5.2 c0 -2.9 -0.8 -7.4 -1.7 -10 -1.5 -4.2 -2.1 -4.8 -4.5 -4.8 -2.7 0 -2.8 0.2 -2.8 5.3 0 6 4 28 5.2 28.5 0.4 0.2 0.8 1.5 0.8 2.8 0 1.3 0.4 2.4 0.8 2.4 1.1 0 5.2 8.6 5.2 11 0 1.1 0.7 2 1.5 2 0.9 0 1.8 1.2 2.2 3 0.3 1.7 1.2 3 1.9 3 0.8 0 1.4 0.7 1.4 1.5 0 0.8 0.5 1.5 1 1.5 0.6 0 1 0.9 1 2 0 1.1 0.7 2 1.5 2 0.8 0 1.5 0.9 1.5 2 0 1.1 0.7 2 1.5 2 0.8 0 1.5 0.7 1.5 1.5 0 0.8 0.5 1.5 1 1.5 0.6 0 1 0.5 1 1.1 0 0.6 0.7 1.7 1.5 2.5 0.8 0.9 1.5 2.9 1.5 4.5 0 1.8 0.5 2.9 1.4 2.9 1.7 0 2.6 2.2 2.6 6.1 0 4.8 -2.4 3.3 -5.3 -3.3z"/>
  <path d="M286 262.5 c0 -3.3 0.2 -3.5 3.5 -3.5 3.3 0 3.5 0.2 3.5 3.5 0 3.3 -0.2 3.5 -3.5 3.5 -3.3 0 -3.5 -0.2 -3.5 -3.5z"/>
  <path d="M262 255.4 l0 -5.6 3.2 1.9 c3.6 2.1 5 5.3 2.4 5.3 -0.9 0 -1.6 0.8 -1.6 2 0 1.3 -0.7 2 -2 2 -1.8 0 -2 -0.7 -2 -5.6z"/>
  <path d="M245.2 250.3 c0.2 -1.2 1.4 -1.9 3.6 -2.1 2.7 -0.3 3.2 0 3.2 1.7 0 1.7 -0.6 2.1 -3.6 2.1 -2.8 0 -3.5 -0.3 -3.2 -1.7z"/>
  <path d="M253 215.5 c0 -3.3 0.2 -3.5 3.5 -3.5 3.3 0 3.5 0.2 3.5 3.5 0 3.3 -0.2 3.5 -3.5 3.5 -3.3 0 -3.5 -0.2 -3.5 -3.5z"/>
  <path d="M172 208.5 l0 -3.5 6.5 0 6.5 0 0 3.5 0 3.5 -6.5 0 -6.5 0 0 -3.5z"/>
 </g>
 <g fill="#f5c622">
  <path d="M213.4 316.1 c-0.3 -0.3 -0.9 -0.6 -1.2 -0.6 -0.4 0 -2.3 -1.2 -4.4 -2.5 -4.4 -3 -6.8 -9.7 -7.3 -20.6 l-0.2 -5.2 3.6 -0.6 c6.3 -1 9.9 -0.7 13.6 1.4 2 1.1 4.4 2 5.4 2 1 0 3.2 0.5 5 1.1 l3.1 1.1 0 12.5 c0 9.5 -0.3 12.4 -1.2 12 -0.7 -0.2 -1.1 -1.3 -0.9 -2.3 0.3 -1 0.5 -3.9 0.5 -6.3 0.1 -4 -0.2 -4.7 -3.1 -6.3 -1.7 -1.1 -4.2 -2 -5.5 -2 -1.3 -0.1 -3.1 -0.8 -4 -1.6 -2.4 -2 -11.2 -0.8 -10.4 1.4 0.3 0.8 0.1 2.3 -0.6 3.3 -0.6 1 -0.8 3 -0.4 4.4 0.8 3.3 8 7.7 12.6 7.7 1.8 0 3.1 0.3 2.7 0.6 -0.8 0.8 -6.6 1.2 -7.3 0.5z"/>
  <path d="M244.8 316.3 c-0.2 -0.5 0 -4.6 0.3 -9.3 0.3 -4.7 0.6 -7.6 0.7 -6.5 0.2 1.8 0.8 2 4.4 1.7 3.4 -0.4 4.4 0 6 1.9 l1.9 2.4 -0.3 -4.2 c-0.4 -7.5 0.9 -5.6 1.6 2.3 1.1 13.5 1.7 12.4 -6.8 12.4 -4.1 0 -7.6 -0.3 -7.8 -0.7z m4.6 -2.8 c0.3 -0.8 1.7 -1.5 3.1 -1.5 1.8 0 2.4 0.4 1.9 1.3 -0.5 0.8 -0.4 0.9 0.3 0.2 2.4 -2.2 2.4 -5.1 0.1 -6.3 -4.5 -2.2 -6.3 -2.2 -7.5 -0.3 -1.1 1.8 -0.9 1.9 2.6 1.4 2.3 -0.3 4.1 -0.1 4.5 0.6 0.5 0.7 -0.3 1.1 -2.1 1.1 -3 0.1 -6.3 2 -6.3 3.9 0 1.6 2.7 1.3 3.4 -0.4z"/>
  <path d="M274 304 c0 -10.4 0.3 -13 1.4 -13 1.6 0 2.6 -2.1 2.6 -5.4 0 -2.1 0.6 -2.4 6.8 -2.9 11.5 -1.1 12 -1.1 12.7 2.3 0.4 1.7 1.3 3 2.1 3 0.8 0 1.4 0.6 1.4 1.4 0 0.8 0.4 1.6 0.9 1.8 1.5 0.5 1.6 7.7 0.2 12.6 -1.3 4.5 -7.1 11.2 -9.8 11.2 -1.1 0 -0.5 -0.9 1.7 -2.5 4 -2.9 5.4 -5.1 4.6 -7 -0.3 -0.8 0 -1.6 0.7 -1.9 0.9 -0.3 0.8 -0.7 -0.3 -1.5 -0.8 -0.5 -1.8 -0.7 -2.2 -0.5 -0.4 0.3 -0.8 0 -0.8 -0.6 0 -0.6 -1.4 -0.9 -3.4 -0.7 -2.6 0.3 -3.3 0.1 -2.9 -0.9 0.3 -0.8 0 -1.4 -0.7 -1.4 -0.6 0 -1.4 0.9 -1.7 2.1 -0.5 1.9 -0.7 1.8 -1.9 -1 -0.7 -1.7 -1.9 -3.1 -2.6 -3.1 -0.9 0 -0.9 0.3 0 1.2 0.7 0.7 1.1 2.3 1.1 3.8 -0.1 1.6 -0.3 1.9 -0.6 0.8 -0.2 -1 -0.9 -1.8 -1.5 -1.8 -0.5 0 -0.7 0.7 -0.4 1.6 0.4 0.9 -0.1 2.5 -0.9 3.4 -0.9 1 -1.5 2.1 -1.4 2.6 0.5 2.9 -0.2 3.7 -1.6 1.8 -1.4 -1.8 -1.4 -1.7 -1.5 1.3 0 2.5 0.4 3.1 1.5 2.7 0.8 -0.4 1.5 -0.1 1.5 0.5 0 0.7 2.3 1.2 5.8 1.2 l5.7 0.2 -5 0.7 c-2.7 0.5 -6.5 0.9 -8.2 0.9 l-3.3 0.1 0 -13z m26.5 -6 c0.3 -0.4 -0.7 -0.7 -2 -0.7 -1.4 0 -2.5 0.5 -2.5 1.2 0 1.4 3.6 0.9 4.5 -0.5z"/>
  <path d="M266 314.7 c0 -1.1 -0.4 -1.5 -1.1 -1.1 -1.4 0.8 -0.4 -9.3 1 -11.1 0.5 -0.5 1.1 -3.6 1.4 -6.8 0.8 -9.4 1.7 -7.8 1.7 3.1 0 8.9 -0.2 10.2 -1.7 10.2 -1.5 0 -1.5 0.1 0.2 1.4 1.7 1.2 1.7 1.4 0.2 3.7 -1.4 1.9 -1.7 2 -1.7 0.6z"/>
  <path d="M239.3 297.9 c-0.1 -1 0.2 -1.9 0.8 -1.9 1.1 0 1.2 2.7 0.1 3.4 -0.4 0.2 -0.9 -0.4 -0.9 -1.5z"/>
  <path d="M254 228.5 c0 -3.3 0.2 -3.5 3.5 -3.5 3.3 0 3.5 0.2 3.5 3.5 0 3.3 -0.2 3.5 -3.5 3.5 -3.3 0 -3.5 -0.2 -3.5 -3.5z"/>
  <path d="M253 220.5 c0 -3.3 0.2 -3.5 3.5 -3.5 3.3 0 3.5 0.2 3.5 3.5 0 3.3 -0.2 3.5 -3.5 3.5 -3.3 0 -3.5 -0.2 -3.5 -3.5z"/>
  <path d="M166 220.3 c-0.8 -1.5 -1.5 -4.6 -1.8 -6.8 -0.2 -2.2 -1.1 -5.1 -2 -6.5 -0.9 -1.4 -1.5 -2.9 -1.4 -3.4 0.2 -0.5 0 -1.6 -0.4 -2.5 -1.8 -4.4 -2 -27.1 -0.2 -28.3 1.2 -0.8 12.4 -0.2 14 0.8 0.4 0.3 0.8 2.4 0.8 4.6 0 4.5 -0.9 4.8 -1.2 0.4 -0.3 -2.9 -2.8 -4.1 -6.9 -3.3 -1.6 0.3 -1.1 0.5 1.5 0.6 2.9 0.1 3.7 0.4 3.2 1.6 -0.3 0.8 -0.1 1.5 0.4 1.5 0.6 0 0.9 0.3 0.9 0.8 -0.4 2.4 0.2 4.2 1.2 3.6 0.9 -0.5 1 0.1 0.5 2 -0.4 1.5 -0.2 2.6 0.4 2.6 0.5 0 0.9 0.3 0.8 0.8 -0.1 0.4 0.2 4 0.6 8 0.7 6.6 1 7.2 3.1 7.2 2.2 0 2.3 0.4 2.4 8 0.1 6.3 -0.2 8 -1.3 8 -0.8 0 -1.6 0.4 -1.8 0.9 -0.1 0.4 -2.8 1.1 -5.9 1.5 -5.4 0.7 -5.6 0.6 -6.9 -2.1z"/>
  <path d="M334 217.5 c0 -0.8 -0.4 -1.5 -1 -1.5 -0.5 0 -1 -0.7 -1 -1.5 0 -0.8 -0.8 -1.6 -1.7 -1.6 -1 -0.1 -2.5 -0.2 -3.3 -0.3 -1 -0.1 -1.6 -1.4 -1.8 -3.8 -0.2 -2.1 -0.7 -3.8 -1.1 -3.8 -0.4 0 -0.8 -1.6 -0.9 -3.5 -0.1 -2.2 0.3 -3.3 0.8 -3 1.1 0.7 3.3 -4 4.5 -9.2 0.5 -2.6 0.3 -3.3 -0.9 -3.3 -0.9 0 -1.6 -0.5 -1.6 -1.1 0 -0.5 0.4 -0.8 0.8 -0.5 0.5 0.3 0.9 -0.1 0.9 -0.9 0 -0.8 -0.4 -1.2 -0.9 -0.9 -0.4 0.3 -0.8 -0.7 -0.8 -2.1 0 -1.4 0.4 -2.4 0.9 -2.1 0.5 0.4 0.7 -0.7 0.5 -2.3 l-0.5 -2.9 9.6 0.1 c5.8 0.1 9.5 0.5 9.6 1.1 0.1 3.2 -0.3 20.5 -0.6 22.6 -1 6.3 -2.7 11.6 -4.1 12.3 -0.9 0.5 -1.2 1.6 -0.9 2.6 1 3.2 -1.2 7.1 -4 7.1 -1.6 0 -2.5 -0.6 -2.5 -1.5z m8.8 -42.2 c-1 -0.2 -2.8 -0.2 -4 0 -1.3 0.2 -0.5 0.4 1.7 0.4 2.2 0.1 3.2 -0.1 2.3 -0.4z"/>
 </g>
 <g fill="#f5cf28">
  <path d="M274.3 309.5 c0 -4.4 0.2 -6.1 0.4 -3.7 0.2 2.3 0.2 5.9 0 8 -0.2 2 -0.4 0.1 -0.4 -4.3z"/>
  <path d="M206.9 312.3 c-1.4 -0.9 -3.1 -3 -3.7 -4.7 -1.9 -5.6 -2.6 -10.3 -3.2 -21 -0.1 -1.1 -0.5 -2.7 -1 -3.6 -0.5 -0.9 -0.5 -2.2 0 -3.1 1.4 -2.2 14.5 -1.7 19.5 0.7 2.2 1 5.8 2.4 8 2.9 l4 1 0.1 10 c0.1 6.8 0 8.7 -0.5 5.8 -0.4 -2.4 -0.9 -4.5 -1.2 -4.7 -0.2 -0.3 -2.7 -1 -5.4 -1.7 -2.8 -0.6 -6.7 -2 -8.8 -3 -2.8 -1.4 -5 -1.7 -7.8 -1.3 l-3.9 0.7 0 6.3 c0 7.3 1.1 10.9 4.8 14.7 2.9 3.1 2.8 3.3 -0.9 1z"/>
  <path d="M264.2 310.5 c0 -1.1 0.4 -3.3 0.8 -5 l0.8 -3 0 3 c0 1.7 -0.3 3.9 -0.8 5 l-0.9 2 0.1 -2z"/>
  <path d="M268.3 304.5 c0 -2.7 0.2 -3.8 0.4 -2.2 0.2 1.5 0.2 3.7 0 5 -0.2 1.2 -0.4 0 -0.4 -2.8z"/>
  <path d="M257.8 302.9 c-0.1 -2.8 0 -5.3 0.5 -5.6 0.4 -0.2 0.7 2.1 0.7 5.1 0 7 -0.7 7.3 -1.2 0.5z"/>
  <path d="M244.8 300.8 c-0.2 -3.5 0.1 -6.6 0.6 -6.9 0.5 -0.4 0.6 -1.6 0.3 -2.8 -0.3 -1.2 -0.1 -2.1 0.3 -2.1 0.8 0 0.2 16.9 -0.5 17.8 -0.2 0.2 -0.5 -2.5 -0.7 -6z"/>
  <path d="M301.1 301.3 c-0.1 -5.8 -0.9 -7.3 -4 -7.4 -1.7 -0.1 -2 -0.3 -0.8 -0.6 0.9 -0.2 1.7 -0.9 1.7 -1.5 0 -0.5 -0.6 -0.8 -1.4 -0.5 -0.7 0.3 -1.8 0.1 -2.3 -0.4 -1 -1 -4.3 -0.2 -4.3 1.1 0 0.5 0.9 0.6 2 0.3 1.1 -0.3 2 -0.1 2 0.5 0 1.2 -6.9 2.1 -7.6 1 -0.3 -0.4 -1.2 -0.8 -2.1 -0.8 -1.2 0 -1.3 0.3 -0.4 1.4 0.9 1.1 0.8 1.4 -0.6 1.2 -0.9 0 -2.3 1 -3 2.4 -1.2 2.3 -1.3 2.4 -1.3 0.4 0 -1.2 -0.6 -2.7 -1.4 -3.3 -1.1 -1 -1.6 -0.5 -2.4 2.6 -0.9 3.3 -1 2.7 -1.1 -5.4 l-0.1 -9.3 3 0 c1.7 0 3 -0.4 3 -0.8 0 -0.4 3.3 -1.4 7.2 -2.1 9.5 -1.8 9.8 -1.9 9.8 -4.7 0 -2.1 0.5 -2.4 3.4 -2.4 l3.4 0 -0.3 13.3 c-0.3 7.2 -0.9 14.6 -1.4 16.2 -0.9 3 -0.9 2.9 -1 -1.2z m-13.1 -10.2 c0 -0.5 -0.9 -1.1 -2 -1.4 -2.2 -0.6 -2.8 0.8 -0.7 1.6 1.9 0.8 2.7 0.8 2.7 -0.2z"/>
  <path d="M239.2 295.7 c-0.2 -3.1 0 -3.8 0.8 -2.7 1.2 1.8 1.3 5.7 0.2 6.4 -0.5 0.3 -0.9 -1.4 -1 -3.7z"/>
  <path d="M240 286.5 c0 -1.4 0.4 -2.5 0.9 -2.5 0.4 0 0.6 1.1 0.3 2.5 -0.2 1.4 -0.6 2.5 -0.8 2.5 -0.2 0 -0.4 -1.1 -0.4 -2.5z"/>
  <path d="M267.5 275.8 c-0.4 -1.3 -0.6 -2.7 -0.6 -3.2 0.1 -0.5 -0.5 -0.4 -1.3 0.4 -1.4 1.1 -1.6 0.9 -1.6 -1.4 0 -2.1 0.5 -2.6 2.5 -2.6 2.3 0 2.5 0.4 2.5 4.5 0 5 -0.4 5.6 -1.5 2.3z"/>
  <path d="M318.4 241.9 c-1.2 -2 -1.7 -9.2 -0.6 -8.5 0.5 0.3 0.9 -0.2 0.8 -1.2 -0.1 -1.1 0.5 -1.6 1.8 -1.4 1.2 0.2 1.5 -0.1 1.1 -0.8 -0.5 -0.9 -0.1 -1 1.6 -0.6 2.2 0.6 2.3 0.6 0.7 -0.7 -2.2 -1.8 -2.3 -2.7 -0.2 -2.7 0.8 0 1.2 -0.5 0.9 -1 -0.4 -0.6 -1 -0.8 -1.5 -0.5 -0.5 0.3 -0.9 -0.3 -0.9 -1.2 0 -2.7 -1.1 -12.6 -1.6 -14.1 -0.3 -0.7 -0.9 -1.1 -1.4 -0.7 -1.1 0.6 -1.2 -5.7 -0.1 -6.5 0.4 -0.3 1 -1.7 1.4 -3.2 0.5 -2.1 0.3 -2.8 -0.9 -2.8 -1.1 0 -1.5 -1 -1.5 -3.5 0 -2.4 0.5 -3.5 1.5 -3.5 0.8 0 1.8 -1.2 2.1 -2.7 0.4 -1.6 1.4 -3.3 2.3 -4 1.4 -1 1.2 -1.2 -1.2 -1.8 -2.3 -0.6 -2.7 -1.2 -2.7 -4.1 l0 -3.5 9.8 0.2 c9.3 0.2 17.9 1.7 10.5 1.8 -2.8 0.1 -3.3 0.5 -3.3 2.6 0 1.7 0.6 2.5 1.8 2.5 1.6 0.1 1.6 0.1 0 1.1 -1 0.5 -1.8 2.2 -1.8 3.6 0 2.6 -0.1 2.6 -1.6 0.7 -1.4 -1.8 -1.5 -1.8 -0.8 0.6 0.6 2.5 0.6 2.5 -1.1 0.5 -1.6 -1.9 -1.6 -1.9 -1 1.8 0.4 2.7 0.2 3.7 -0.7 3.7 -0.8 0 -0.6 0.4 0.4 1.1 1.1 0.6 1.5 1.6 1.1 2.6 -0.6 1.5 -0.5 1.6 0.9 0.3 1.1 -1.1 1.3 -1.9 0.6 -2.8 -0.6 -0.7 -0.8 -1.5 -0.4 -1.9 1.1 -1.1 1.9 0.6 1.9 3.9 0 1.8 0.6 3.8 1.3 4.5 0.7 0.7 1.4 1.8 1.7 2.5 0.2 0.7 0.8 1 1.2 0.6 0.4 -0.4 0.3 -1.3 -0.2 -2 -1.8 -2.4 -2.2 -4.5 -0.7 -4.5 0.7 0 1.1 0.3 0.9 0.6 -0.2 0.4 0.3 1.5 1.1 2.6 1.3 1.8 1.4 1.7 1.4 -0.9 0 -1.5 -0.9 -4.2 -2.1 -5.9 l-2.1 -3.2 2.7 3 2.6 3 -0.2 -2.5 c-0.1 -1.4 0.1 -3.3 0.5 -4.2 0.4 -0.9 0.6 -4.4 0.4 -7.8 -0.1 -3.3 0.1 -6 0.6 -6 1.3 0 0 23.8 -1.7 30 -0.9 3 -1.3 5.8 -1.1 6.2 0.3 0.5 0 0.8 -0.6 0.8 -0.7 0 -1 0.7 -0.6 1.5 0.3 0.8 0.1 1.5 -0.4 1.5 -0.6 0 -1 0.6 -1 1.3 0 0.6 -1.3 3.9 -2.8 7.2 -1.6 3.3 -3 6.5 -3.2 7 -0.6 1.8 -2.8 3.5 -4.5 3.5 -0.9 0 -1.8 1.2 -2.1 3 -0.4 1.7 -1 3 -1.5 3 -0.5 0 -0.9 0.7 -0.9 1.5 0 1.8 -5.5 2.1 -6.6 0.4z m20.6 -35.9 c0.8 -0.5 1.2 -1.2 0.9 -1.5 -0.8 -0.8 -3.9 0.5 -3.9 1.6 0 1.1 1.1 1.1 3 -0.1z m-7.4 -9.8 c-0.4 -0.3 -1.1 0 -1.6 0.8 -1.5 2.4 -1.1 3.3 0.6 1.5 0.9 -0.9 1.3 -1.9 1 -2.3z m3.4 -19 c0 -1 -0.7 -1.9 -1.5 -1.9 -1.8 0 -1.9 0.4 -0.2 2.2 1.6 1.9 1.7 1.8 1.7 -0.3z"/>
  <path d="M168.3 224.8 c-2 -4 -3.8 -7.5 -3.8 -7.8 -0.7 -2.7 -2.7 -9.8 -3.2 -11 -0.3 -0.8 -0.5 -1.9 -0.4 -2.4 0.1 -0.5 -0.1 -1.6 -0.5 -2.5 -0.3 -0.9 -0.7 -2.7 -0.8 -4.1 -0.2 -1.4 -0.4 -2.9 -0.5 -3.5 -0.2 -0.5 -0.2 -2.6 -0.1 -4.5 l0.2 -3.5 0.9 3 c0.4 1.7 1.1 5.2 1.4 7.8 0.6 4.8 2.6 6.1 3.3 2.2 0.3 -1.2 0 -1.5 -0.9 -1 -0.7 0.5 -1 0.4 -0.5 -0.3 0.3 -0.6 1.5 -1.1 2.6 -1.1 1.1 -0.1 3 -0.1 4.3 -0.2 l2.2 -0.1 -2.2 -1 c-2.7 -1.3 -3 -3.3 -0.7 -4.2 0.9 -0.3 1.4 -1.3 1.1 -2 -0.3 -0.8 -0.1 -1.7 0.6 -1.9 0.8 -0.3 0.4 -1.1 -1 -2.4 -2.5 -2.2 -3.2 -4.3 -0.8 -2.3 2.6 2.2 2.9 0.2 0.4 -2.1 -1.8 -1.6 -2 -1.9 -0.6 -1.5 1 0.3 2.3 0.6 2.8 0.6 0.5 0 0.8 0.3 0.8 0.8 -0.4 2.1 0.2 4.2 1 3.7 0.6 -0.3 0.6 -1.7 0.1 -3.4 -0.4 -1.6 -0.6 -3.2 -0.2 -3.5 0.3 -0.3 -0.9 -0.9 -2.6 -1.2 -4.2 -0.9 -4.1 -2.4 0.2 -2.4 3.2 0 3.4 0.2 4 4.2 1.8 10.7 1.8 11.8 0.5 11.8 -0.8 0 -0.3 0.7 0.9 1.6 1.5 1 2.1 2.2 1.7 3.4 -0.5 1.5 -0.2 1.7 1.5 1.3 1.4 -0.4 2 -0.1 2 1.1 0 0.9 0.8 1.6 1.9 1.6 1.7 0 1.8 1 2 13.5 l0.1 13.5 -2.5 0 c-1.9 0 -2.5 0.5 -2.5 2.1 0 2.7 -2.7 4.8 -6.2 4.9 -2.4 0 -3.2 -0.9 -6.5 -7.2z m1.2 -20 c2.6 -1.2 3.3 -3.2 1.3 -4.4 -0.6 -0.4 -0.8 -0.3 -0.4 0.4 0.3 0.6 0.1 1.4 -0.5 1.7 -0.7 0.5 -1 -0.2 -0.7 -1.8 0.1 -1.5 -0.1 -2.5 -0.7 -2.4 -0.5 0.1 -0.8 0.8 -0.7 1.6 0.2 0.7 -0.1 1 -0.8 0.6 -1.1 -0.7 -4 1.1 -4 2.6 0 0.5 0.7 0.6 1.5 0.3 0.9 -0.4 1.5 0 1.5 1 0 1.9 0.2 1.9 3.5 0.4z"/>
  <path d="M341.3 182.8 c-0.1 -1.3 -0.9 -2.8 -1.8 -3.4 -1 -0.8 -1.2 -1.4 -0.6 -1.9 0.6 -0.3 1.1 -0.2 1.1 0.4 0 0.6 0.6 0.8 1.3 0.5 0.9 -0.3 1.4 0.7 1.5 3.1 0.2 1.9 -0.1 3.5 -0.6 3.5 -0.4 0 -0.9 -1 -0.9 -2.2z"/>
  <path d="M159.2 179.3 c-0.1 -1.8 -0.3 -3.6 -0.4 -4 -0.2 -0.5 0.8 -0.9 2.2 -1 1.4 -0.1 1.7 0.1 0.8 0.3 -1.1 0.3 -1.8 1.8 -2.1 4.2 -0.4 3.6 -0.4 3.6 -0.5 0.5z"/>
 </g>
 <g fill="#42bfed">
  <path d="M158.8 176.5 c-0.8 -1.5 3 -18.8 5.6 -25.8 1.4 -3.5 2.9 -6.1 3.6 -5.9 0.8 0.2 1 -0.3 0.7 -1.3 -0.6 -1.4 2.9 -8.3 7.5 -14.8 1.6 -2.3 2.3 -2.6 3 -1.5 0.7 0.9 0.8 0.8 0.4 -0.6 -0.7 -2.2 3.1 -6.9 4.7 -5.9 0.6 0.3 0.7 0.1 0.4 -0.4 -0.9 -1.4 8.6 -10.2 15.8 -14.9 15.1 -9.6 29.6 -14.3 47.1 -15.1 15.4 -0.7 23.3 0.5 39.2 6.4 3.1 1.2 3.9 1.9 3 2.5 -0.9 0.7 -0.7 0.8 0.7 0.4 2.8 -0.8 11.1 3.7 10.7 5.8 -0.2 0.9 0.2 1.6 0.8 1.6 0.6 0 0.8 -0.4 0.5 -1 -1.3 -2.2 1.2 -0.7 8.2 4.6 4.1 3.1 7.1 5.9 6.8 6.2 -0.3 0.3 -1.1 0 -1.7 -0.6 -0.7 -0.7 -1.6 -1.2 -2.2 -1.2 -1.7 0 2.8 2.9 4.6 3 1.8 0 4.3 3.5 3 4.3 -0.4 0.2 -0.2 0.2 0.5 0.1 1.5 -0.4 3.5 2 2.5 3.1 -0.4 0.5 -0.2 0.5 0.4 0.2 1.3 -0.8 5 4.1 4.6 6.1 -0.2 0.7 0.1 1.2 0.5 1.1 2 -0.3 2.4 0.2 1.2 1.8 -1.2 1.5 -1.2 1.6 0.3 1 1.2 -0.4 2.4 0.6 4.4 4 1.4 2.5 2.7 5.6 2.8 6.8 0 1.3 0.5 2.1 1 1.7 0.5 -0.3 0.7 0.5 0.4 1.6 -0.4 1.2 -0.3 2.2 0.2 2.2 1.1 0 2.8 4.6 4.4 12.3 1 4.8 1 6.7 0.2 6.7 -0.8 0 -0.8 0.3 0 0.8 1.5 1 2.5 4 1.4 4.7 -0.5 0.3 -1.2 0.1 -1.5 -0.5 -0.6 -1 -9.9 -0.8 -19.5 0.4 -1.9 0.3 -5.4 0.2 -7.7 -0.1 -4.1 -0.5 -4.3 -0.7 -4.3 -3.8 0 -3.4 -1.3 -4.5 -5.1 -4.5 -1 0 -1.9 0.5 -1.9 1 0 0.6 -0.7 1 -1.5 1 -0.8 0 -1.5 0.7 -1.5 1.5 0 2.4 -2.7 1.7 -3.4 -0.8 -0.3 -1.3 -1.7 -2.9 -3.1 -3.5 -3.1 -1.4 -3.3 -3.2 -0.2 -3.2 4.2 0 5 -1.3 4.2 -6.9 -0.6 -4.1 -1.1 -5.1 -2.6 -5.1 -1.4 0 -1.9 0.7 -1.9 3 0 2.8 -0.3 3 -3.5 3 -2.8 0 -3.5 -0.4 -3.5 -2 0 -1.1 -0.7 -2 -1.5 -2 -1.1 0 -1.5 -1.1 -1.5 -4 0 -3.8 0.1 -4 3.3 -4.1 1.7 -0.1 2.4 -0.3 1.5 -0.6 -1.2 -0.3 -1.8 -1.4 -1.8 -3.4 0 -2.7 -0.2 -2.9 -4 -2.9 -3 0 -4.7 -0.6 -6.3 -2.4 -1.6 -1.7 -3.6 -2.5 -7 -2.7 -2.6 -0.2 -4.7 -0.1 -4.7 0.3 0 0.5 -2.5 0.8 -5.5 0.8 -5.2 0 -5.5 -0.1 -5.5 -2.5 0 -2.2 -0.5 -2.5 -3.2 -2.5 -1.8 0 -5 -0.3 -7 -0.6 -3.1 -0.5 -3.8 -0.4 -3.8 1 0 1.2 -0.9 1.6 -3.5 1.6 -2.4 0 -3.5 -0.5 -3.5 -1.5 0 -0.8 -0.7 -1.5 -1.5 -1.5 -0.8 0 -1.5 -0.4 -1.5 -1 0 -0.5 -1.3 -1 -3 -1 -1.9 0 -3 -0.5 -3 -1.4 0 -1.7 -2.9 -2.5 -6.4 -1.9 -1.7 0.4 -2.6 1.2 -2.6 2.4 0 1.1 -0.7 1.9 -1.5 1.9 -0.8 0 -1.5 0.5 -1.5 1 0 0.6 -1.6 1 -3.5 1 -2.9 0 -3.5 -0.4 -3.5 -2.2 l0 -2.1 -1.9 2.1 c-1 1.2 -2.2 2.2 -2.6 2.2 -0.4 0 -1.6 1.1 -2.7 2.5 -1.1 1.4 -2.6 2.5 -3.4 2.5 -1.8 0 -4.4 2.4 -4.4 3.9 0 0.6 -0.4 1.1 -1 1.1 -0.5 0 -1 0.7 -1 1.5 0 0.8 -0.4 1.5 -1 1.5 -0.5 0 -1 0.7 -1 1.5 0 0.8 -0.4 1.5 -1 1.5 -0.5 0 -1.2 1.1 -1.6 2.5 -0.3 1.4 -1.2 2.5 -1.9 2.5 -0.7 0 -1.5 0.7 -1.9 1.5 -0.3 0.8 -1.4 1.5 -2.5 1.5 -2.4 0 -3.2 3.9 -1.8 8.5 0.5 1.8 0.7 4.8 0.3 6.7 -0.8 4.4 -3.7 5.8 -11.6 5.8 -3.6 0 -6 0.4 -6.2 1.2 -0.3 0.7 -0.7 0.8 -1 0.3z m180.6 -6.7 c2.2 -1.5 2.9 -0.8 1.2 1.1 -1.3 1.4 -1.4 2.1 -0.5 2.7 0.8 0.4 1 0.3 0.5 -0.4 -0.4 -0.7 -0.3 -1.2 0.3 -1.2 0.5 0 1.2 0.6 1.5 1.3 0.3 0.6 0.3 0.2 0 -1 -0.3 -1.3 -0.1 -2.3 0.5 -2.3 0.6 0 1.1 -0.4 1.1 -0.9 0 -0.4 -1.2 -0.8 -2.7 -0.7 -1.4 0 -2.8 -0.5 -3.1 -1.3 -0.3 -0.8 0 -1.1 0.6 -0.8 1.1 0.8 3.8 -2 2.8 -3 -0.3 -0.3 -0.6 -0.1 -0.6 0.5 0 0.7 -0.9 1.2 -2.1 1.2 -1.2 0 -1.7 -0.4 -1.4 -1.1 0.4 -0.6 -0.1 -1.7 -1.1 -2.4 -2.3 -1.7 -3.4 -1.9 -3.4 -0.5 0 0.6 0.6 1 1.4 1 1.8 0 2.8 4 1.4 5.8 -0.9 1 -0.8 1.2 0.3 1 1 -0.2 1.3 0.6 1.2 2.7 -0.1 1.9 0 2.3 0.4 1 0.3 -1.1 1 -2.3 1.7 -2.7z m2.8 -8.5 c-0.6 -0.2 -1 -0.8 -0.8 -1.2 0.3 -0.4 -0.1 -0.8 -0.9 -0.8 -0.8 0 -1.5 0.4 -1.5 0.8 0 0.8 1.9 1.7 3.5 1.7 0.6 0 0.4 -0.2 -0.3 -0.5z m-3.7 -5.1 c-0.3 -0.3 -0.5 0 -0.5 0.6 0 0.7 -1 1.2 -2.2 1.2 -2.1 0 -2.1 0 -0.2 1.4 1.7 1.3 2 1.2 2.7 -0.6 0.4 -1.2 0.5 -2.3 0.2 -2.6z m0.1 -3 c-0.6 -0.5 -3.6 2.3 -3.6 3.4 0 0.4 0.9 -0.1 2 -1.1 1.1 -1 1.8 -2 1.6 -2.3z m-7 -1.6 c1.6 -1.7 1.8 -2.6 0.4 -2.6 -0.5 0 -1.4 0.9 -2 2 -1.2 2.3 -0.5 2.6 1.6 0.6z m5.3 -5 c0 -0.7 -0.2 -0.6 -0.6 0.2 -1 2.6 -2.1 1 -1.8 -2.9 l0.3 -4 -2.2 2.3 c-2.2 2.3 -3 5.8 -1.4 5.8 0.5 0 0.7 -0.8 0.4 -1.8 -0.4 -1.3 -0.1 -1.9 0.9 -1.9 0.9 0 1.4 0.6 1.1 1.4 -0.3 0.7 -0.3 2 0 2.8 0.5 1.2 1 1.3 2 0.4 0.8 -0.6 1.4 -1.7 1.3 -2.3z m-161.5 -12.2 c1 -2.5 -0.1 -2.9 -1.4 -0.5 -0.6 1.2 -0.7 2.1 -0.1 2.1 0.5 0 1.2 -0.7 1.5 -1.6z m6 -5.3 c-0.5 -0.5 -3.3 3 -3.4 4.3 0 0.4 0.9 -0.2 1.9 -1.5 1.1 -1.3 1.7 -2.6 1.5 -2.8z m3.2 -4.9 c-0.4 -0.3 -1.1 0 -1.6 0.8 -1.5 2.4 -1.1 3.3 0.6 1.5 0.9 -0.9 1.3 -1.9 1 -2.3z m88.4 -30.2 c0 -0.5 -0.7 -1 -1.5 -1 -0.8 0 -1.5 0.5 -1.5 1 0 0.6 0.7 1 1.5 1 0.8 0 1.5 -0.4 1.5 -1z m-9.1 -2.1 c-1.9 -1.2 -4.9 -1.1 -4.9 0.2 0 0.6 0.9 0.8 2 0.4 1.2 -0.4 2 -0.2 2 0.5 0 0.6 0.5 0.8 1.1 0.4 0.8 -0.4 0.7 -0.9 -0.2 -1.5z"/>
  <path d="M273 173 c0 -2.9 1.9 -4 6.8 -4 1.5 0 2.2 -0.6 2.2 -2 0 -1.6 0.7 -2 3.5 -2 1.9 0 3.5 0.3 3.5 0.8 0 0.9 -6.3 5.1 -11.7 7.8 l-4.3 2.1 0 -2.7z"/>
  <path d="M212 172 c0 -2.2 2 -2.6 5.1 -1 3 1.6 2.3 3 -1.6 3 -2.8 0 -3.5 -0.4 -3.5 -2z"/>
  <path d="M286.4 172.2 c2.5 -2.9 7.4 -3.8 9.4 -1.8 2.1 2.1 1.6 2.4 -5.4 3.2 l-5.9 0.7 1.9 -2.1z"/>
  <path d="M217.8 168.4 c-3.8 -2 -3.5 -3.4 0.7 -3.4 3.1 0 3.5 0.3 3.5 2.5 0 2.9 -0.5 3 -4.2 0.9z"/>
  <path d="M249.8 52.9 c-1.6 -0.9 -1.8 -3 -1.8 -21.8 0 -18.7 0.2 -21 1.8 -22.2 1.5 -1.3 1.6 -1.2 0.3 0.4 -1 1.3 -1.2 3.9 -0.8 10.3 0.5 8.7 1.4 11.1 4 10.1 2.6 -1 3.8 -18 1.5 -20.7 -1.1 -1.2 -1 -1.2 0.5 -0.1 1.5 1.2 1.7 3.5 1.7 22.2 0 19.6 -0.1 20.9 -1.9 21.9 -2.4 1.2 -3.1 1.2 -5.3 -0.1z"/>
 </g>
 <g fill="#e8d235">
  <path d="M200.5 290.3 c-0.4 -1.6 -0.9 -3.7 -1.1 -4.8 -0.7 -4.6 -1.2 -7 -1.4 -7.5 -0.1 -0.3 -0.3 -0.9 -0.4 -1.5 -0.1 -0.5 -0.8 -2.3 -1.5 -4 -0.7 -1.6 -1.4 -3.4 -1.5 -4 -0.5 -2.3 -5.1 -11.5 -5.8 -11.5 -0.5 0 -0.8 -0.7 -0.8 -1.5 0 -0.8 -0.4 -1.5 -1 -1.5 -0.5 0 -1 -0.5 -1 -1.1 0 -0.6 -0.6 -1.6 -1.2 -2.3 -0.7 -0.8 -2 -2.4 -2.8 -3.6 -0.8 -1.2 -2.1 -2.8 -2.7 -3.6 -0.7 -0.7 -1.3 -1.7 -1.3 -2.3 0 -0.6 -0.4 -1.1 -0.8 -1.1 -0.8 0 -3.2 -4.3 -3.2 -5.5 0 -0.3 1.1 -0.5 2.5 -0.5 2.2 0 2.5 0.4 2.5 3.5 0 3.1 0.3 3.5 2.6 3.5 1.7 0 2.8 0.6 3.1 2 0.3 1.1 0.9 2 1.4 2 0.5 0 0.9 0.9 0.9 2 0 1.1 0.7 2 1.5 2 0.8 0 1.5 0.7 1.5 1.5 0 0.8 0.5 1.5 1 1.5 0.6 0 1 1.1 1 2.5 0 1.4 0.6 2.5 1.3 2.5 1.5 0 3.7 4.1 3.7 6.6 0 0.9 0.7 2.2 1.5 3 0.8 0.9 1.5 3.1 1.5 5 0 1.9 0.4 3.4 0.9 3.4 1 0 2.1 6.1 1.3 7.4 -0.3 0.6 -0.4 3.2 -0.3 5.8 0.3 5.4 -0.3 6.2 -1.4 2.1z"/>
  <path d="M245.4 289.6 c-0.5 -1.3 -0.3 -2.1 0.4 -2.4 0.7 -0.2 1.2 -1.1 1.2 -1.9 0 -0.9 0.3 -1.4 0.6 -1.1 0.3 0.3 0.1 2.1 -0.4 3.9 -0.8 3 -1.1 3.1 -1.8 1.5z"/>
  <path d="M256.7 285.8 c-0.4 -1.2 -0.7 -4.2 -0.7 -6.5 0 -3.3 -0.5 -4.5 -2.7 -6.1 l-2.8 -2.1 -1.7 4.7 -1.6 4.7 -0.1 -10.1 c-0.1 -5.6 -0.6 -12.5 -1.1 -15.4 -0.6 -2.9 -0.8 -5.5 -0.6 -5.8 0.3 -0.2 3.5 -0.7 7.2 -1 6.3 -0.5 6.7 -0.4 6 1.4 -0.4 1 -1 9.3 -1.3 18.3 -0.5 12.3 -0.3 16.2 0.5 15.7 1.4 -0.8 1.6 1.3 0.3 3.2 -0.6 1 -1 0.8 -1.4 -1z"/>
  <path d="M301 285.3 c0 -1.5 0.9 -6.2 2.1 -10.5 2.1 -7.6 2.2 -7.8 5.3 -7.8 2.4 0 2.7 0.3 1.6 1 -0.8 0.5 -1.1 1 -0.6 1 0.5 0 0.3 0.7 -0.4 1.5 -0.7 0.8 -0.9 1.5 -0.5 1.5 0.4 0 0.2 0.7 -0.5 1.5 -0.7 0.8 -0.9 1.5 -0.5 1.5 0.4 0 0.2 0.6 -0.4 1.3 -0.6 0.8 -0.8 1.7 -0.4 2 0.3 0.4 0.1 1.2 -0.4 1.9 -0.6 0.7 -1.4 2.8 -1.8 4.6 -0.8 3.9 -3.5 4.4 -3.5 0.5z"/>
  <path d="M262.5 284 c-0.4 -0.6 -0.5 -8.4 -0.3 -17.4 0.3 -16 0.4 -16.4 2.3 -15.3 4.2 2.2 4.5 3.2 4.4 14.9 -0.1 6.2 -0.3 10.5 -0.6 9.6 -0.2 -1 -1 -1.8 -1.6 -1.8 -0.7 0 -0.6 -0.4 0.3 -1 0.8 -0.5 1 -1 0.4 -1 -2 0 -3.1 2.4 -3.3 7.5 -0.3 5.5 -0.6 6.2 -1.6 4.5z"/>
  <path d="M273.5 281.8 c-0.3 -1.8 -0.5 -9.4 -0.3 -16.8 0.3 -11.9 0.5 -13.5 2.1 -13.8 1.6 -0.3 1.7 1 1.7 16.7 0 14.3 -0.2 17.1 -1.5 17.1 -0.8 0 -1.7 -1.3 -2 -3.2z"/>
  <path d="M239.9 273.7 c-0.2 -4.9 -0.3 -5.4 -1.1 -6.3 -0.5 -0.4 -0.8 0.9 -0.8 2.9 0 6.1 -2 4.2 -2.2 -2 -0.5 -14.9 -0.6 -14.5 3 -16.6 l3.3 -2 -0.7 13.4 c-0.7 13.3 -1.3 17.6 -1.5 10.6z"/>
  <path d="M286 264.5 c0 -3.9 -0.3 -4.5 -2.5 -5.1 -2.1 -0.5 -2.5 -1.2 -2.5 -4 0 -3 0.3 -3.4 2.8 -3.4 5.4 0 7.2 1 7.2 4.1 0 1.9 0.5 2.9 1.5 2.9 1.1 0 1.5 1.2 1.5 5 l0 5 -4 0 -4 0 0 -4.5z"/>
  <path d="M296.6 266.8 c-0.3 -1.3 -0.6 -3.5 -0.6 -5 0 -2.5 0.4 -2.8 3.4 -2.8 3.6 0 4.6 1.5 4.6 7.3 0 2.4 -0.4 2.7 -3.4 2.7 -2.6 0 -3.5 -0.5 -4 -2.2z"/>
  <path d="M227 254.4 c0 -2.8 0.3 -3.5 1.8 -3.2 1.1 0.2 1.8 1.4 2 3.6 0.3 2.7 0 3.2 -1.7 3.2 -1.7 0 -2.1 -0.6 -2.1 -3.6z"/>
  <path d="M301 255.5 c0 -1.4 -0.4 -2.5 -1 -2.5 -0.5 0 -1 -1.6 -1 -3.5 0 -3 0.3 -3.5 2.4 -3.5 2.2 0 2.5 -0.6 3.3 -5.2 l0.8 -5.3 -3.2 -0.3 c-3.1 -0.3 -3.3 -0.5 -3.3 -4.3 0 -3.8 0.1 -3.9 3.5 -3.9 3.1 0 3.5 0.3 3.5 2.5 0 1.4 0.5 2.5 1 2.5 1.1 0 1.3 -0.9 1 -6.2 -0.1 -3.2 0.2 -3.8 1.9 -3.8 1.7 0 2.1 -0.6 2.1 -3 0 -2.8 0.3 -3 3.4 -3 2.6 0 3.6 0.5 4.1 2 0.3 1.1 1.1 2 1.6 2 0.5 0 0.9 1.4 0.9 3 0 1.7 0.5 3 1 3 0.6 0 1 0.5 1 1 0 0.6 -1.2 0.8 -2.7 0.4 l-2.8 -0.6 2.5 1.4 c3.3 1.8 3.9 4.8 1 4.8 -1.2 0 -1.9 0.4 -1.5 1 0.3 0.5 1.3 0.6 2.1 0.3 1.5 -0.5 1.5 -0.3 0 2.5 -0.8 1.6 -2.3 3.7 -3.1 4.6 -1.5 1.5 -1.3 1.6 1.9 1.6 2 0 3.6 0.5 3.6 1 0 0.6 -0.4 1 -1 1 -0.5 0 -1 0.7 -1 1.5 0 0.8 -0.4 1.5 -1 1.5 -0.5 0 -1 0.7 -1 1.5 0 0.8 -0.9 1.9 -2 2.5 -1.8 1 -2 0.8 -2 -2.4 0 -1.9 0.6 -3.6 1.3 -3.9 0.6 -0.2 0.8 -0.8 0.4 -1.3 -1.4 -1.5 -4.2 1.2 -4.5 4.5 -0.2 1.9 -0.9 3.1 -1.8 3.1 -0.8 0 -1.4 0.7 -1.4 1.6 0 2.6 -2.6 4.4 -6.4 4.4 -3.2 0 -3.6 -0.3 -3.6 -2.5z"/>
  <path d="M232.8 247.5 c-0.5 -2.3 -0.2 -2.5 2.8 -2.5 3.9 0 4.3 1.2 1.2 3.4 -3 2.1 -3.5 2 -4 -0.9z"/>
  <path d="M254 235.6 c0 -3.5 -1 -5.6 -2.6 -5.6 -0.9 0 -1.4 -1.2 -1.4 -3.5 0 -1.9 -0.4 -3.5 -1 -3.5 -0.5 0 -1 -1.6 -1 -3.5 0 -2.8 0.4 -3.5 2 -3.5 1.1 0 2 -0.7 2 -1.6 0 -1.2 0.9 -1.4 3.8 -1.2 l3.7 0.3 0.3 8 c0.2 4.4 0.7 8.4 1.2 8.9 0.6 0.6 1 2.5 1 4.3 0 3.2 -0.1 3.3 -4 3.3 -3.6 0 -4 -0.3 -4 -2.4z"/>
  <path d="M227.4 230.3 c-0.3 -1 -1 -2.8 -1.5 -4.1 -1.4 -3.5 -1.1 -4.2 1.5 -4.2 2.5 0 3.6 2.1 3.6 7.3 0 3.1 -2.7 3.8 -3.6 1z"/>
  <path d="M165.9 219.8 c-1.4 -2.4 -2 -4.8 -1.3 -4.8 0.2 0 1.1 1.4 1.9 3.1 1.9 3.6 1.3 5.2 -0.6 1.7z"/>
  <path d="M159.3 195 c-0.6 -1.7 -0.8 -3.2 -0.3 -3.5 0.4 -0.2 1 0.9 1.4 2.7 0.8 4.1 0.3 4.5 -1.1 0.8z"/>
  <path d="M176.2 196.4 c-0.7 -0.8 -0.8 -1.4 -0.2 -1.4 0.5 0 1 -0.5 1 -1.1 0 -0.5 -0.5 -0.7 -1 -0.4 -1.7 1 -5 -3.6 -3.6 -5.1 0.6 -0.6 1.4 -1 1.9 -0.7 0.4 0.2 0.7 0 0.7 -0.6 0 -0.5 -0.6 -1.1 -1.2 -1.4 -1 -0.3 -1 -0.7 -0.1 -1.7 0.7 -0.8 0.8 -2.2 0.3 -4.1 -0.5 -1.6 -0.6 -2.9 -0.2 -2.9 2.4 -0.1 -2.9 -2 -5.5 -2 -1.8 0 -3.3 -0.4 -3.3 -1 0 -0.5 0.9 -1 1.9 -1 1.1 0 2.3 -0.5 2.6 -1 0.9 -1.5 7.5 -1.2 16 0.7 6.6 1.4 7.5 1.9 7.5 3.8 0 4.4 -1.3 8.5 -2.6 8.5 -1 0 -1.4 1.6 -1.4 6.4 l0 6.5 -5.7 0 c-3.7 -0.1 -6.3 -0.6 -7.1 -1.5z"/>
  <path d="M301 188.5 c0 -1.4 -0.4 -2.5 -1 -2.5 -0.5 0 -1 -1.8 -1 -4 0 -3.6 0.3 -4 2.5 -4 2 0 2.5 -0.5 2.5 -2.5 0 -1.9 0.6 -2.5 3.3 -3 1.9 -0.4 5.6 -0.4 8.3 -0.1 10.8 1.2 15.3 1.3 15.8 0.2 0.3 -0.7 0.5 -0.6 0.5 0.2 0.1 0.7 1.6 1.2 4.3 1.2 6.1 0 3.9 1.2 -2.9 1.5 -3.4 0.2 -5.9 0.8 -6.1 1.5 -0.3 0.7 -1.3 2.1 -2.3 3.1 -1.1 1.1 -1.4 1.9 -0.9 1.9 0.6 0 1 0.4 1 1 0 1.6 -8.1 3.2 -12.7 2.5 -4.3 -0.6 -4.3 -0.6 -4.3 2.4 0 2.9 -0.3 3.1 -3.5 3.1 -3.1 0 -3.5 -0.3 -3.5 -2.5z"/>
  <path d="M194 185.5 c0 -3.3 0.2 -3.5 3.5 -3.5 3.3 0 3.5 0.2 3.5 3.5 0 3.3 -0.2 3.5 -3.5 3.5 -3.3 0 -3.5 -0.2 -3.5 -3.5z"/>
  <path d="M345.1 177.7 c-0.1 -1.1 -1 -2.1 -2.1 -2.4 -2.8 -0.7 -2.5 -1.8 0.5 -1.8 2.9 0 3.6 1.2 2.4 4 -0.7 1.8 -0.8 1.8 -0.8 0.2z"/>
  <path d="M158.7 176.4 c-1.1 -1.1 0.3 -2.4 2.6 -2.3 1.5 0 1.7 0.2 0.7 0.6 -0.8 0.3 -1.8 1 -2.1 1.5 -0.3 0.4 -0.8 0.5 -1.2 0.2z"/>
 </g>
 <g fill="#f7de3b">
  <path d="M201.4 300.8 c-0.4 -2.4 -0.7 -6.2 -0.5 -8.5 0.1 -2.5 -0.2 -4.3 -0.8 -4.3 -0.6 0 -0.8 -0.7 -0.5 -1.5 0.4 -0.8 0.3 -2.3 -0.1 -3.3 -0.5 -0.9 -0.7 -2.5 -0.6 -3.4 0.1 -1 -0.2 -1.8 -0.8 -1.8 -0.6 0 -0.8 -0.6 -0.5 -1.4 0.3 -0.8 0.1 -1.7 -0.5 -2 -0.6 -0.4 -0.8 -1.3 -0.4 -2.1 0.3 -0.8 0 -1.5 -0.7 -1.5 -0.6 0 -0.8 -0.4 -0.5 -1 0.3 -0.5 0.2 -1 -0.2 -1 -0.5 0 -1 -1 -1 -2.2 -0.1 -1.3 -0.7 -2.4 -1.3 -2.6 -0.5 -0.2 -0.8 -0.8 -0.4 -1.3 0.3 -0.5 0 -0.9 -0.6 -0.9 -0.6 0 -0.9 -0.4 -0.6 -0.8 0.3 -0.5 -0.3 -1.8 -1.4 -2.9 -1 -1.2 -1.6 -2.3 -1.3 -2.7 0.3 -0.3 -0.2 -0.8 -1.1 -1.2 -0.9 -0.3 -1.3 -1 -1 -1.5 0.3 -0.5 -0.2 -1.2 -1 -1.5 -0.9 -0.3 -1.6 -1.3 -1.6 -2 0 -0.8 -0.7 -1.7 -1.5 -2 -0.8 -0.4 -1.2 -1 -1 -1.5 0.3 -0.4 -0.3 -1.4 -1.5 -2.1 -1.1 -0.7 -2 -1.8 -2 -2.5 0 -0.7 -0.4 -1.3 -1 -1.3 -0.5 0 -1 -0.6 -1 -1.3 0 -0.7 -0.8 -2.2 -1.7 -3.3 -1 -1 -3.4 -5.3 -5.3 -9.4 -1.9 -4.1 -3.9 -7.8 -4.3 -8.1 -0.5 -0.3 -0.8 -0.8 -0.7 -1 0.2 -0.5 -1.8 -8.7 -2.7 -10.9 -0.3 -0.8 -0.5 -2.1 -0.4 -2.8 0.1 -0.8 -0.2 -1.9 -0.7 -2.5 -0.5 -0.7 -0.6 -2.3 -0.2 -3.7 0.4 -1.9 0.9 -0.8 1.9 4.8 1.9 10.9 7.5 24.7 9.4 23.5 0.6 -0.3 0.7 -0.1 0.3 0.5 -1.1 1.8 2.7 3.2 4.7 1.7 1.3 -1 1.6 -2 1.1 -4 -0.7 -2.7 -0.6 -2.8 2.7 -2.2 3.2 0.6 3.3 0.6 1.4 -0.8 -1.1 -0.9 -2.5 -1.3 -3.2 -1.1 -0.7 0.3 -1.3 -0.1 -1.3 -0.9 0 -0.8 0.8 -1.5 1.7 -1.5 1.2 0 1.4 -0.3 0.6 -1.1 -0.8 -0.8 -1.7 -0.8 -3.4 0.1 -2.3 1.1 -2.3 1.1 -0.4 -0.5 1.6 -1.3 1.7 -1.7 0.6 -2.4 -0.8 -0.6 -0.9 -1.1 -0.3 -1.5 0.6 -0.3 1.3 -0.2 1.7 0.4 0.8 1.3 2.5 1.3 2.5 -0.1 0 -0.6 -0.9 -1.3 -2 -1.6 -1.1 -0.3 -2 -1.2 -2 -2 0 -0.8 -0.4 -1.2 -1 -0.8 -0.5 0.3 -0.7 1.2 -0.3 2 0.4 1.1 0.1 1.3 -1.1 0.9 -1.9 -0.7 -2.1 -2 -0.5 -3 0.6 -0.3 0.9 -1.9 0.7 -3.4 -0.3 -1.9 0.2 -3.1 1.4 -3.9 1 -0.6 1.8 -1.6 1.8 -2.2 0 -0.8 -0.5 -0.7 -1.5 0.1 -2 1.6 -2 -0.4 0 -2.4 1.8 -1.8 1.9 -2.7 0.3 -2.1 -0.7 0.2 -2 -0.6 -2.9 -1.8 -1.5 -2 -1.5 -2.4 -0.1 -3.7 1.4 -1.3 1.5 -1.2 1 0.1 -0.3 0.9 -0.2 2.2 0.2 2.9 0.7 1.1 1.1 1.1 2.4 0.1 1.4 -1.1 1.6 -1.1 1.6 0.3 0 1 0.5 1.4 1 1.1 0.6 -0.3 0.8 -1.6 0.6 -2.8 -0.1 -1.2 -0.1 -1.6 0.1 -0.9 0.7 2 2.6 1.3 2 -0.8 -0.3 -1.1 -0.1 -2 0.4 -2 0.5 0 0.9 -0.5 0.9 -1.1 0 -0.6 -0.6 -0.9 -1.3 -0.6 -0.7 0.3 -2.4 -0.2 -3.8 -0.9 -2.1 -1.3 -2.2 -1.4 -0.2 -0.9 1.2 0.3 3.1 0 4.2 -0.7 2.6 -1.6 2.8 -3 0.4 -2.1 -1.5 0.5 -1.4 0.3 0.2 -1 1.7 -1.3 2 -1.3 2.3 -0.1 0.4 1.4 2.2 2 2.2 0.7 -0.1 -3.1 -4.6 -4.6 -7.6 -2.4 -1 0.7 -0.6 0.2 0.9 -1.3 2.6 -2.4 3.4 -2.6 12.3 -2.6 l9.4 0 0 5.5 c0 3 0.4 5.5 1 5.5 0.5 0 0.9 4.3 0.9 10.4 0 8.7 0.4 11.7 2.8 18.7 1.5 4.6 3.1 8.6 3.5 8.7 0.5 0.2 0.8 1.1 0.8 2.1 0 0.9 1.2 3.3 2.6 5.4 1.4 2.1 3.2 5.4 4 7.3 0.8 1.9 1.9 3.4 2.4 3.4 0.6 0 1 0.6 1 1.3 0 0.6 1.4 2 3 2.9 1.7 0.9 3 2.3 3 3.1 0 0.8 0.9 2.2 1.9 3.1 1.8 1.7 2 3.3 2 22.9 0 14.8 -0.3 20.2 -1 18 -1 -3.3 -4.2 -5 -10.1 -5.5 -1.5 -0.1 -3 -0.8 -3.3 -1.6 -0.3 -0.7 -1 -1 -1.6 -0.6 -0.6 0.3 -1.4 0.1 -1.8 -0.5 -0.8 -1.2 -9.1 -1.8 -10.8 -0.8 -0.5 0.3 -0.5 5.3 -0.1 11.3 0.4 6 0.6 11 0.4 11.1 -0.2 0.2 -0.7 -1.6 -1.2 -3.9z m-18.4 -108.2 c-0.1 -1.9 -0.2 -1.9 -1.1 -0.3 -0.5 0.9 -1.7 1.7 -2.4 1.7 -0.8 0 -1.5 0.4 -1.5 0.9 0 0.4 1.1 0.6 2.5 0.3 1.7 -0.3 2.5 -1.1 2.5 -2.6z"/>
  <path d="M274 283.5 c-0.2 -12.1 -0.4 -24 -0.5 -26.5 -0.1 -2.5 0.4 -6.3 1.1 -8.5 1 -3.6 1.5 -4 4.3 -4 2.7 0 3.1 -0.3 3.1 -2.7 0 -2.3 0.4 -2.8 2.4 -2.8 2.1 0 2.5 -0.6 3.1 -4.1 0.5 -2.7 1.3 -4.3 2.5 -4.6 2.6 -0.7 4.9 -7.3 4.3 -12.7 -0.5 -4.2 -0.4 -4.6 1.6 -4.6 1.3 0 2.1 -0.7 2.2 -1.7 0 -1 0.2 -8.5 0.3 -16.8 0.4 -21.2 -0.1 -20.2 10.4 -20.9 9.1 -0.7 22.9 -0.2 23.9 0.8 0.4 0.3 -2.6 0.6 -6.5 0.6 -6.1 0 -7.3 0.3 -8.2 2 -0.7 1.4 -0.7 2 0 2 0.5 0 1 -0.4 1 -1 0 -0.5 0.4 -1 0.9 -1 0.6 0 0.8 1 0.6 2.1 -0.3 1.2 0 2.9 0.6 3.8 0.8 1.4 0.9 1.3 0.8 -0.4 -0.3 -4.3 0.2 -5.3 2.7 -5.8 1.8 -0.3 2.4 -0.1 2 0.9 -0.3 0.7 -0.1 1.6 0.4 1.9 0.6 0.4 1 -0.1 1 -0.9 0 -0.9 0.5 -1.6 1.1 -1.6 0.5 0 0.7 0.5 0.4 1 -0.3 0.6 -0.1 1 0.6 1 0.8 0 0.8 0.4 -0.1 1.5 -0.7 0.8 -1.6 1.3 -2 1 -0.4 -0.3 -1 0.2 -1.4 1 -0.3 0.8 -0.1 1.7 0.4 2 0.4 0.3 1 -0.1 1.3 -0.7 0.2 -0.7 0.8 -1 1.2 -0.5 0.5 0.4 -0.2 1.9 -1.6 3.4 -1.7 1.8 -1.9 2.4 -0.7 2 1.1 -0.4 1.8 0.1 2.2 1.6 0.3 1.2 0.3 2.3 0.1 2.6 -0.3 0.2 -0.5 -0.1 -0.5 -0.7 0 -0.7 -0.4 -1.2 -1 -1.2 -1.1 0 -0.1 3.2 1.4 4.2 1.5 1 0.2 2 -2.8 2.2 -3.3 0.1 -3.4 1.6 -0.1 1.6 1.9 0 2.5 0.5 2.4 2.3 0 1.2 -0.3 1.6 -0.6 1 -1.1 -2.8 -2 -1 -2 3.8 0 3.3 -0.5 5.4 -1.4 6 -1 0.6 -0.6 0.9 1.4 0.9 1.5 0 2.7 0.5 2.7 1.1 0 0.5 -0.4 0.8 -0.9 0.4 -0.5 -0.3 -1.2 -0.1 -1.6 0.5 -0.4 0.6 -1.1 0.8 -1.6 0.5 -0.5 -0.4 -0.9 -0.1 -0.9 0.4 0 0.6 0.6 1.1 1.3 1.2 0.6 0 0.3 0.4 -0.8 0.9 -1.9 0.9 -1.9 0.9 0.3 1.6 1.5 0.4 2.1 1.2 1.8 2.1 -0.3 0.8 -0.6 2.2 -0.6 3 0 1.2 -0.3 1.3 -1.4 0.4 -0.9 -0.8 -1.6 -0.8 -2 -0.2 -0.9 1.5 6.3 2.6 7.7 1.2 0.8 -0.8 0.5 -1.1 -1.2 -1.1 -1.2 0 -1.9 -0.4 -1.6 -1 0.4 -0.6 1.1 -0.8 1.6 -0.5 1.5 1 4.7 -0.5 5.2 -2.3 0.4 -1.6 0.5 -1.6 0.6 0.1 0.2 3.8 2 1.3 4.6 -6.8 1.5 -4.7 2.9 -8.5 3.1 -8.5 0.2 0 0.2 1.3 0.1 3 -0.1 1.6 -0.6 3 -1.1 3 -0.4 0 -0.6 0.7 -0.2 1.5 0.3 0.8 0.1 1.5 -0.4 1.5 -0.6 0 -1 0.6 -1 1.3 0 0.6 -1.4 4.1 -3.2 7.7 -1.7 3.6 -3.1 6.8 -3 7.3 0.1 0.4 -0.3 0.7 -0.8 0.7 -0.6 0 -1 0.7 -1 1.5 0 0.8 -0.4 1.5 -1 1.5 -0.5 0 -1 0.7 -1 1.5 0 0.8 -0.4 1.5 -1 1.5 -0.5 0 -1 0.6 -1 1.4 0 0.8 -0.7 1.6 -1.5 2 -0.8 0.3 -1.5 1.2 -1.5 2 0 0.7 -0.7 1.7 -1.6 2 -0.8 0.3 -1.3 1 -1 1.5 0.3 0.5 -0.1 1.2 -1 1.5 -0.8 0.3 -1.2 1 -0.9 1.6 0.3 0.6 -0.1 1.3 -0.9 1.6 -0.9 0.3 -1.3 1 -1 1.5 0.3 0.5 -0.2 1.2 -1 1.5 -0.9 0.3 -1.6 1.2 -1.6 2 0 0.8 -0.5 1.4 -1.1 1.4 -0.5 0 -0.7 0.5 -0.4 1 0.3 0.6 0.1 1 -0.5 1 -0.6 0 -0.8 0.5 -0.5 1 0.3 0.6 0.1 1 -0.5 1 -0.6 0 -0.8 0.5 -0.5 1 0.3 0.6 0.1 1 -0.5 1 -0.6 0 -0.8 0.5 -0.5 1 0.3 0.6 0.1 1 -0.5 1 -0.6 0 -0.8 0.5 -0.5 1 0.3 0.6 0.1 1 -0.5 1 -0.6 0 -0.8 0.5 -0.5 1 0.3 0.6 0.1 1 -0.5 1 -0.7 0 -1 0.7 -0.6 1.5 0.3 0.8 0.1 1.5 -0.5 1.5 -0.6 0 -0.9 0.7 -0.5 1.5 0.3 0.8 0.1 1.5 -0.5 1.5 -0.6 0 -0.8 0.7 -0.5 1.7 0.4 0.9 0.2 1.9 -0.4 2.3 -1.1 0.7 -2 5.9 -2.5 14.5 -0.2 2.2 -0.5 4.7 -0.8 5.5 -0.3 0.8 -0.8 2.2 -1 3 -0.3 0.8 -0.4 -1.4 -0.2 -4.8 0.3 -5.2 0.1 -6.3 -1.1 -5.8 -0.8 0.3 -1.4 0.1 -1.4 -0.4 0 -0.6 0.5 -1 1 -1 1.9 0 1 -2.2 -1.2 -2.8 -2.1 -0.5 -2.1 -0.6 -0.2 -1.3 1.8 -0.7 1.7 -0.8 -0.3 -0.8 -1.3 -0.1 -2.3 0.5 -2.3 1.2 0 0.6 -0.7 0.3 -1.6 -0.8 -0.8 -1.1 -2 -1.9 -2.5 -1.8 -0.5 0.2 -0.9 -0.2 -0.9 -0.7 0 -0.5 -0.4 -1 -0.9 -1 -0.5 0 -0.8 1.1 -0.6 2.5 0.1 1.4 -0.2 2.5 -0.6 2.5 -0.5 0 -0.9 -0.7 -0.9 -1.5 0 -0.8 -0.5 -1.5 -1 -1.5 -0.6 0 -0.8 1 -0.4 2.4 0.5 2.1 0.3 2.3 -2.5 2 -2.3 -0.3 -3.1 0 -3.1 1.2 0 1.4 -0.2 1.4 -2.2 0 -1.2 -0.9 -2.6 -1.6 -3 -1.6 -0.4 0 -0.9 3.7 -1.1 8.3 -0.1 4.5 -0.5 -1.7 -0.7 -13.8z m7.4 4.4 c2.5 -1.2 4.3 -3.9 2.6 -3.9 -0.6 0 -1 0.4 -1 1 0 0.5 -1.1 1.2 -2.5 1.6 -1.4 0.3 -2.5 1 -2.5 1.5 0 1.2 0.4 1.1 3.4 -0.2z m35.2 -48.4 c1.3 -1.3 1.2 -1.4 -1.5 -0.9 -2 0.4 -3.1 0.2 -3.1 -0.5 0 -1 2.8 -1.4 8.5 -1.3 1.7 0.1 1.7 0 0.3 -0.4 -1 -0.3 -1.8 -1 -1.8 -1.6 0 -0.5 0.6 -0.8 1.4 -0.5 0.8 0.3 2.2 0 3.2 -0.7 1.5 -1.1 1.3 -1.2 -1.4 -0.8 -2.4 0.3 -3.2 0 -3.2 -1.1 0 -1.2 -4.9 -4.7 -6.7 -4.7 -1.1 0 2.5 4 4.2 4.5 1.8 0.6 1.8 0.8 0.2 1.2 -1 0.3 -2.4 -0.1 -3.2 -0.7 -1.5 -1.3 -2 -0.4 -1.6 2.7 0.1 0.7 -0.5 1 -1.3 0.7 -1.3 -0.5 -1.3 -0.2 -0.3 2 0.7 1.4 1.9 2.7 2.7 3 0.8 0.2 1.6 0.4 1.8 0.5 0.2 0 1 -0.6 1.8 -1.4z m7 -11 c-1.1 -0.8 -2.7 -1.5 -3.5 -1.5 -1 0 -0.7 0.6 0.9 1.4 3.3 1.9 5 1.9 2.6 0.1z m-10.1 -51.7 c1.9 0.1 3.5 -0.3 3.5 -0.8 0 -0.9 -2.8 -1.1 -7.2 -0.3 -1.7 0.3 -2.8 1.1 -2.8 2 0 1.3 0.3 1.3 1.5 0.3 0.9 -0.7 3.1 -1.3 5 -1.2z"/>
  <path d="M313 234.1 c0 -0.4 1.1 -0.6 2.5 -0.3 1.4 0.2 2.5 0.6 2.5 0.8 0 0.2 -1.1 0.4 -2.5 0.4 -1.4 0 -2.5 -0.4 -2.5 -0.9z"/>
  <path d="M239.7 296.6 c-0.5 -1.5 -0.6 -3.1 -0.3 -3.4 0.8 -0.8 1.8 2.5 1.4 4.5 -0.3 1.3 -0.6 1 -1.1 -1.1z"/>
  <path d="M263.1 296.3 c0 -0.5 0.4 -1.7 0.9 -2.8 0.8 -1.8 0.9 -1.7 0.9 0.8 0.1 1.5 -0.3 2.7 -0.9 2.7 -0.5 0 -1 -0.3 -0.9 -0.7z"/>
  <path d="M245.7 290.7 c-1.1 -2.9 -0.9 -4.3 0.4 -3 0.6 0.6 0.9 1.9 0.7 2.9 -0.3 1.8 -0.4 1.8 -1.1 0.1z"/>
  <path d="M257 287.7 c0 -2 0.5 -3.9 1.1 -4.2 0.7 -0.5 0.8 0.5 0.3 3.2 -0.9 5.1 -1.4 5.4 -1.4 1z"/>
  <path d="M240 270 c0 -16.9 0 -17.3 -1.9 -15.6 -1.1 1 -2.1 1.3 -2.5 0.7 -0.6 -1 0.1 -1.6 4 -3.7 l2.2 -1.2 -0.4 18 c-0.1 9.9 -0.5 18.3 -0.8 18.6 -0.4 0.3 -0.6 -7.3 -0.6 -16.8z"/>
  <path d="M247.4 269.5 c0 -9.9 0.2 -13.8 0.3 -8.7 0.2 5.1 0.2 13.2 0 18 -0.1 4.8 -0.3 0.6 -0.3 -9.3z"/>
  <path d="M262.2 267.4 c0.2 -10.9 0.7 -17 1.3 -16.8 1.3 0.5 0.7 30.3 -0.6 32.4 -0.6 1 -0.9 -4.4 -0.7 -15.6z"/>
  <path d="M256.2 262.8 l-0.2 -12.8 -3.6 0 c-1.9 0 -4.4 0.5 -5.5 1 -1.5 0.8 -1.9 0.7 -1.9 -0.4 0 -1.1 1.7 -1.5 7 -1.8 3.9 -0.2 7 0 7 0.5 0 0.4 -0.4 0.7 -1 0.7 -0.5 0 -1.1 5.4 -1.3 12.8 l-0.3 12.7 -0.2 -12.7z"/>
  <path d="M268.1 271 c-0.2 -0.8 -0.4 -4.8 -0.5 -8.9 -0.1 -4.8 -0.6 -7.6 -1.4 -7.9 -0.7 -0.2 -1 -0.8 -0.6 -1.3 0.3 -0.5 1.2 -0.3 2 0.6 1.1 1.1 1.4 3.5 1.1 10.2 -0.1 4.8 -0.4 8.1 -0.6 7.3z"/>
  <path d="M235 260.2 c0 -1.8 0.4 -3.2 0.9 -3.2 0.5 0 0.8 1.1 0.7 2.5 -0.4 3.8 -1.6 4.3 -1.6 0.7z"/>
  <path d="M173.6 225.3 c0.5 -0.5 1.2 -1.2 1.5 -1.6 0.3 -0.5 0.9 -0.2 1.2 0.7 0.5 1.2 0 1.6 -1.5 1.6 -1.2 0 -1.7 -0.3 -1.2 -0.7z"/>
  <path d="M327.7 220.8 c-0.2 -0.7 -0.1 -2.2 0.4 -3.3 0.6 -1.6 0.8 -1.4 0.8 1.3 0.1 3.3 -0.4 4.1 -1.2 2z"/>
  <path d="M343.6 200.5 c0.7 -5.7 1 -6.3 1.6 -3.8 0.2 1 -0.2 3.4 -0.9 5.3 -1.3 3.5 -1.3 3.5 -0.7 -1.5z"/>
  <path d="M158.8 193.3 c-0.2 -0.5 0 -3.9 0.3 -7.8 l0.5 -7 0.2 7.8 c0.2 7 -0.1 9 -1 7z"/>
  <path d="M345.3 186.5 c0 -3.3 0.2 -4.5 0.4 -2.7 0.2 1.8 0.2 4.5 0 6 -0.2 1.5 -0.4 0 -0.4 -3.3z"/>
  <path d="M345.1 177.3 c-0.1 -1.2 -0.9 -2.3 -1.8 -2.5 -1.5 -0.3 -1.4 -0.5 0.4 -1 2.5 -0.7 3.4 0.8 2.2 3.7 -0.7 1.9 -0.8 1.9 -0.8 -0.2z"/>
  <path d="M158.5 176 c-0.7 -1.2 1.9 -2.4 3.7 -1.7 0.7 0.3 0.3 0.6 -1 0.6 -1.3 0.1 -2 0.5 -1.7 1.1 0.3 0.6 0.4 1 0.1 1 -0.3 0 -0.8 -0.5 -1.1 -1z"/>
 </g>
 <g fill="#d4cc9a">
  <path d="M246 393.1 c-1.9 -0.4 -4.4 -1.2 -5.5 -1.9 -1.6 -0.9 0.6 -1.1 11 -1.1 11.7 0 12.7 0.1 10.4 1.4 -3.2 1.8 -11.3 2.6 -15.9 1.6z"/>
  <path d="M209.1 371.3 c-1.4 -0.9 -1.9 -1.9 -1.4 -2.4 0.9 -0.9 87.3 -3.2 88.1 -2.4 0.2 0.2 -0.1 1.2 -0.7 2.3 -1.3 2.4 -8.1 2.9 -53.7 3.6 -26.3 0.5 -30.4 0.3 -32.3 -1.1z"/>
  <path d="M207.4 358.9 c-0.3 -0.6 -0.2 -1.5 0.2 -1.9 1.1 -1.1 86.1 -3.7 87.1 -2.7 0.4 0.4 0 1.5 -0.9 2.4 -1.4 1.3 -5.6 1.7 -25 2.4 -34.6 1.2 -60.6 1.1 -61.4 -0.2z"/>
  <path d="M207.4 346.9 c-0.3 -0.6 -0.2 -1.5 0.3 -2 1.1 -1.1 86.4 -4.2 87.5 -3.1 0.4 0.4 0.2 1.6 -0.4 2.5 -1.1 1.4 -5.3 1.8 -30.3 2.7 -38 1.3 -56.2 1.3 -57.1 -0.1z"/>
  <path d="M207.8 335.4 c-0.5 -0.4 -0.8 -1.3 -0.8 -2 0 -1.6 6.9 -2.1 43 -3.4 50.1 -1.7 45.5 -1.8 45.8 0.7 0.3 1.9 -0.3 2.1 -6.5 2.7 -3.7 0.3 -16.2 0.8 -27.8 1.1 -11.6 0.3 -28.2 0.8 -37 1.1 -8.8 0.3 -16.3 0.2 -16.7 -0.2z"/>
  <path d="M239.3 311 c0 -2.5 0.2 -3.5 0.4 -2.2 0.2 1.2 0.2 3.2 0 4.5 -0.2 1.2 -0.4 0.2 -0.4 -2.3z"/>
  <path d="M264.2 311 c0 -1.9 0.2 -2.7 0.5 -1.7 0.2 0.9 0.2 2.5 0 3.5 -0.3 0.9 -0.5 0.1 -0.5 -1.8z"/>
  <path d="M268.4 281.5 c0 -15.4 0.2 -21.6 0.3 -13.7 0.2 7.9 0.2 20.5 0 28 -0.1 7.5 -0.3 1.1 -0.3 -14.3z"/>
  <path d="M262.2 271 c-0.1 -7.4 0.2 -12.8 0.6 -12 0.4 0.8 0.5 6.9 0.2 13.5 l-0.6 12 -0.2 -13.5z"/>
  <path d="M235.2 260 c0 -1.9 0.2 -2.7 0.5 -1.7 0.2 0.9 0.2 2.5 0 3.5 -0.3 0.9 -0.5 0.1 -0.5 -1.8z"/>
  <path d="M240.9 259.8 c-0.1 -0.7 -0.1 -2.5 0 -4 0.1 -3 -0.9 -3.4 -4.1 -1.7 -1.3 0.7 -1.8 0.7 -1.4 0.1 0.4 -0.6 2 -1.7 3.6 -2.6 l3 -1.4 0 5.4 c0 3 -0.2 5.4 -0.5 5.4 -0.3 0 -0.6 -0.6 -0.6 -1.2z"/>
  <path d="M227.8 254.5 c-1 -1.3 -1.8 -2.7 -1.8 -3.2 0 -0.4 -5.4 -17.2 -12 -37.3 -6.6 -20.1 -12 -37.7 -12 -39.2 0 -1.7 0.5 -2.8 1.3 -2.8 1.3 0 6.5 14.6 20.6 58.1 7.6 23.3 8.8 31.3 3.9 24.4z"/>
  <path d="M273.5 253.7 c0.3 -3.8 6.1 -21.2 17.9 -54.2 4.7 -13.2 8.6 -24.8 8.6 -25.7 0 -1.1 0.8 -1.8 2 -1.8 1.5 0 2 0.7 2 2.5 0 1.4 -0.4 2.5 -0.8 2.5 -0.5 0 -0.9 1.2 -0.9 2.8 0 1.5 -2.6 9.9 -5.8 18.7 -3.2 8.8 -8.4 23.4 -11.6 32.5 -3.7 10.5 -6.2 16.4 -7 16.2 -1 -0.2 -1 0 -0.1 1.1 0.9 1.1 0.8 1.9 -0.8 3.7 -1.1 1.3 -2 2.9 -2 3.7 0 0.7 -0.4 1.3 -0.9 1.3 -0.4 0 -0.7 -1.5 -0.6 -3.3z"/>
  <path d="M230.5 240.2 c-1.6 -5.3 -3 -10.1 -3 -10.7 0 -0.5 -0.4 -1.6 -0.8 -2.2 -0.5 -0.7 -0.5 -1.3 0 -1.3 0.4 0 0.3 -0.4 -0.2 -0.8 -1.6 -1.1 -17.8 -50.9 -17.2 -52.7 1.7 -4.4 3.8 0.3 14.7 33.6 6.3 19.3 11.7 35.4 12 35.9 0.3 0.5 2.4 0.3 4.5 -0.5 5.3 -1.9 18.2 -1.9 23.4 0 3.2 1.1 4.3 1.2 4.6 0.2 0.2 -0.7 2.6 -7.5 5.3 -15.2 2.7 -7.7 7.5 -21.1 10.6 -29.8 4.7 -13 5.5 -16 4.4 -17.1 -1.1 -1 -1.7 -0.3 -3.1 4.4 -2.3 7.1 -8 14.7 -13.2 17.4 -5.2 2.7 -16.5 3.6 -16.5 1.3 0 -1.1 1.3 -1.8 3.8 -2.2 6.9 -1.1 7.8 -1.4 11.3 -3.7 4.4 -3 9.4 -10.5 11.6 -17.4 1.5 -5 5.3 -10.3 5.3 -7.6 0 0.7 1.8 1.2 4.5 1.2 5.3 0 5.4 0.6 2.5 8.1 -3.2 8 -18.4 50.3 -21.5 59.9 -1.6 4.7 -2.9 8.6 -3 8.7 0 0.1 -2.7 -1.1 -5.9 -2.7 -7.5 -3.8 -16.7 -4.1 -23.6 -0.8 -2.5 1.2 -4.8 2 -5.2 2 -0.5 -0.1 -0.8 0.3 -0.8 0.8 0 0.6 -0.3 1 -0.7 1 -0.5 0 -2.1 -4.4 -3.8 -9.8z"/>
  <path d="M249 220 c0 -3.7 0.2 -4 2.9 -4 3.4 0 6.2 2.7 4.2 4 -0.9 0.5 -1 1 -0.2 1.4 2.3 1.4 1 2.6 -2.9 2.6 l-4 0 0 -4z"/>
  <path d="M234.5 202.8 c-4.1 -1.4 -5.5 -2.7 -5.5 -4.9 0 -1.1 -0.9 -1.9 -2.2 -2.1 -3.3 -0.5 -8.1 -10.3 -8.6 -18 -0.4 -5.9 -0.4 -6 1.7 -4.6 1.3 0.8 2.1 2.3 2.1 3.9 0 4.6 6.8 16.7 10.9 19.4 2.8 1.9 11.4 4.5 14.7 4.5 0.2 0 0.4 0.7 0.4 1.5 0 1.2 -1.2 1.5 -5.2 1.4 -2.9 0 -6.6 -0.5 -8.3 -1.1z"/>
  <path d="M239.5 195.8 c-0.2 -0.7 -0.6 -3.4 -1 -5.9 -0.7 -5.6 -5.1 -12.7 -9.4 -15.2 -4.1 -2.4 -3.9 -3.7 0.5 -3.7 2.7 0 3.7 0.5 4.1 2 0.3 1.1 1.2 2 1.9 2 2.1 0 5.3 5.8 6.6 12.3 1 4.9 1.5 5.7 3.5 5.7 1.6 0 2.3 0.6 2.3 2 0 1.7 -0.7 2 -4 2 -2.4 0 -4.2 -0.5 -4.5 -1.2z"/>
  <path d="M256 195.1 c0 -1.6 0.6 -2.1 2.9 -2.1 2.6 0 2.9 -0.3 3.5 -4.7 0.3 -2.5 1.7 -6.5 3.1 -8.9 2 -3.4 3.1 -4.3 5.8 -4.6 l3.4 -0.4 -3.5 4.9 c-2 2.7 -4.3 7.7 -5.1 11.1 l-1.6 6.1 -4.3 0.3 c-3.7 0.3 -4.2 0.1 -4.2 -1.7z"/>
  <path d="M232.9 192.3 c-4 -4.2 -9.8 -16.3 -7.9 -16.3 0.5 0 2.5 1.4 4.4 3 3.7 3.3 7 10.4 6.4 13.9 -0.3 2.2 -0.4 2.2 -2.9 -0.6z"/>
  <path d="M268.6 191.3 c1.2 -4.9 4.2 -10 7.6 -12.8 2.7 -2.2 3.4 -2.5 3.6 -1.2 0.7 3.3 -7.6 16.7 -10.4 16.7 -1.1 0 -1.3 -0.7 -0.8 -2.7z"/>
  <path d="M178.2 175.4 c-0.7 -0.8 -2.4 -1.4 -3.7 -1.4 -1.8 0 -2.5 -0.5 -2.5 -2 0 -1.1 0.4 -2 0.9 -2 0.4 0 0.6 -1.1 0.3 -2.5 -0.3 -1.9 0.1 -2.7 2 -3.4 1.6 -0.6 2.9 -2.3 3.8 -5 0.7 -2.3 1.7 -4.1 2.2 -4.1 0.4 0 0.8 -1.1 0.8 -2.4 0 -4.4 1 -5.6 4.6 -5.6 3.2 0 3.4 0.2 3.4 3.4 0 1.9 -0.7 4.1 -1.5 5 -0.8 0.8 -1.5 2.3 -1.5 3.4 0 1.1 -0.7 3.9 -1.5 6.2 -2 5.6 -1.9 6 1 6 2 0 2.5 0.5 2.5 2.6 0 2.3 -0.3 2.5 -3.8 2.3 -2.1 -0.2 -4.2 0 -4.7 0.3 -0.6 0.3 -1.6 0 -2.3 -0.8z"/>
  <path d="M158.7 174.9 c0.4 -0.4 2.8 -1 5.3 -1.4 2.5 -0.4 5.1 -1.1 5.8 -1.7 0.9 -0.8 1.2 -0.6 1.2 0.5 0 1.6 -1.6 2.1 -9.8 3 -1.8 0.2 -2.9 0 -2.5 -0.4z"/>
  <path d="M313 175.2 c-1.9 -0.7 -1.1 -4.2 1 -4.2 1.1 0 2 0.5 2 1.2 0 0.9 0.3 0.9 1.2 0 0.7 -0.7 2.6 -1.1 4.3 -1.1 l3 0.1 -3 0.8 c-3.4 0.9 -3 1 4.3 1.4 3.2 0.2 5.2 -0.1 5.2 -0.8 0 -0.6 0.4 -0.5 0.9 0.2 0.6 1 2.7 1.3 7.4 1 4 -0.2 6.8 0.1 7.1 0.7 0.3 0.9 -30.7 1.6 -33.4 0.7z"/>
 </g>
 <g fill="#fbee64">
  <path d="M273.8 264.5 c-1.1 -10.3 0.9 -17.3 18.7 -66 4.2 -11.6 7.6 -22 7.7 -23.2 0 -2.1 0.6 -2.3 4.9 -2.3 3.7 0 4.9 0.4 4.9 1.5 0 1 -1.4 1.7 -4 2.1 -3.6 0.6 -5.7 2.4 -2.8 2.4 0.9 0 0.9 0.3 0 1.2 -1.7 1.7 -1.5 2.8 0.5 2.1 1.2 -0.5 1.1 -0.1 -0.5 1.5 -2.3 2.3 -2.9 5.2 -1.1 5.2 0.5 0 0.8 0.4 0.4 0.9 -0.3 0.5 -0.1 1.3 0.5 1.6 0.6 0.4 0.8 1.5 0.5 2.6 -0.4 1.2 -0.2 1.9 0.7 1.9 0.9 0.1 0.9 0.4 -0.3 1.3 -0.9 0.7 -1.4 1.8 -1.1 2.6 0.2 0.7 -0.1 1.7 -0.8 2.1 -1 0.6 -0.9 1.4 0.3 3.8 0.9 1.9 1.1 3.4 0.5 4 -0.9 0.9 -1.5 3.1 -1.7 5.9 -0.1 0.7 -1 0.9 -2.3 0.5 -2 -0.5 -2.1 -0.3 -1 1 1.2 1.4 0.7 6 -1.2 11.3 -0.2 0.6 -0.7 2 -1.1 3.3 -0.5 1.4 -1.3 2.1 -2.1 1.8 -2 -0.8 -2.6 1 -0.9 2.7 2.1 2.1 1.9 3 -0.5 2.2 -1.7 -0.5 -2 -0.2 -2 2.5 0 1.8 -0.4 2.9 -1 2.5 -0.6 -0.4 -0.7 0.1 -0.3 1.1 0.5 1.3 0.2 1.5 -1.7 0.9 -1.8 -0.6 -2.2 -0.4 -1.7 0.8 0.4 1 -0.3 2.4 -1.8 3.6 -1.4 1 -2.5 2.4 -2.5 3 0 0.9 -0.5 0.9 -2.1 0.1 -1.1 -0.7 -2.4 -0.9 -2.7 -0.5 -0.4 0.4 -0.9 4.8 -1.2 9.8 l-0.5 9.2 -0.7 -7z"/>
  <path d="M229.9 263.1 c-0.6 -6.5 -1 -7.7 -3.3 -9.4 -1.4 -1 -2.6 -2.5 -2.6 -3.3 0 -0.8 -1.3 -2.3 -3 -3.2 -1.6 -0.9 -3 -2.1 -3 -2.6 0 -0.4 -1.1 -1.7 -2.5 -2.8 -1.4 -1.1 -2.3 -2.3 -2 -2.8 0.8 -1.4 -0.6 -4 -1.9 -3.3 -0.6 0.3 -0.8 0.3 -0.4 -0.2 0.8 -0.9 -2.2 -6.5 -3.5 -6.5 -0.5 0 -0.6 -0.8 -0.2 -1.9 0.3 -1.2 0 -2.1 -1.1 -2.5 -0.8 -0.3 -1.4 -1.2 -1.1 -1.9 0.2 -0.6 -0.5 -3.4 -1.5 -6.2 -2.1 -5.2 -2.6 -7.5 -3.4 -14.7 -0.2 -2.4 -0.5 -5.4 -0.7 -6.8 -0.1 -1.4 -0.8 -2.4 -1.5 -2.2 -0.7 0.1 -1.2 -0.3 -1.2 -0.9 0 -0.6 0.8 -0.8 1.8 -0.5 1.3 0.5 1.8 0 1.8 -1.7 0 -1.2 -0.4 -2.5 -0.9 -2.8 -0.5 -0.4 -0.9 -1.8 -0.9 -3.3 0 -1.5 -0.6 -2.6 -1.4 -2.6 -0.8 0 -1.4 -0.4 -1.4 -1 0 -0.5 0.7 -1 1.5 -1 0.8 0 1.5 -0.7 1.5 -1.5 0 -1.8 -1.1 -1.9 -2.9 -0.2 -1.1 1 -1.3 0.9 -0.7 -0.1 0.5 -0.9 -1 -1.2 -6.4 -1.2 -5.4 0 -6.9 -0.3 -6.4 -1.3 0.4 -0.6 -0.9 0.3 -2.7 2.1 -1.9 1.7 -3.9 3.2 -4.4 3.2 -0.4 0 0.3 -0.9 1.6 -2.1 2.2 -1.9 2.2 -2.1 0.6 -3 -0.9 -0.6 -1.7 -1.4 -1.7 -1.9 0 -1.2 25.9 -1.3 27.6 -0.2 1.2 0.8 24.7 71.7 26.4 79.8 0.6 2.8 1 8 0.8 11.5 l-0.3 6.4 -0.6 -7.4z"/>
  <path d="M233.6 248.3 c-1.4 -1.5 -0.5 -4.3 1.4 -4.3 1.3 0 2 0.7 2 1.9 0 1.9 -2.3 3.5 -3.4 2.4z"/>
  <path d="M239 242.6 c0 -3.4 0.1 -3.6 3.5 -3.6 3 0 3.5 0.3 3.5 2.4 0 1.4 -0.7 2.6 -1.7 2.9 -1 0.2 -2.6 0.8 -3.5 1.2 -1.5 0.6 -1.8 0.2 -1.8 -2.9z"/>
  <path d="M250.6 235.4 c-0.3 -2.6 -0.6 -6.2 -0.6 -8 0 -1.9 -0.4 -3.4 -1 -3.4 -0.5 0 -1 -1.6 -1 -3.5 0 -3 0.3 -3.5 2.4 -3.5 5.9 0 8.5 1.2 9.1 4.1 0.4 1.6 1.1 3.1 1.6 3.4 1 0.7 1.2 9.8 0.3 13.3 -0.5 1.9 -1.3 2.2 -5.4 2.2 l-4.7 0 -0.7 -4.6z"/>
  <path d="M228.6 232.3 c-0.4 -1.6 -0.9 -3.6 -1.2 -4.5 -0.4 -1.4 0.1 -1.8 2.4 -1.8 3.2 0 4.2 1.4 4.2 6.1 0 2.4 -0.4 2.9 -2.4 2.9 -1.8 0 -2.5 -0.7 -3 -2.7z"/>
  <path d="M286.8 183.3 c-1.3 -0.3 -1.8 -1.5 -1.8 -4 l0 -3.6 4.7 0.7 c5.7 0.8 5.9 1 4.7 4.4 -0.9 2.7 -3.7 3.6 -7.6 2.5z"/>
  <path d="M312.8 175.2 c-1 -0.2 -1.8 -1 -1.8 -1.8 0 -1 1.1 -1.3 4 -1.2 4.5 0.1 8 1.8 4 1.8 -2 0 -2.2 0.2 -1 1 0.9 0.6 1 1 0.3 1 -0.6 0 -1.5 -0.5 -1.9 -1.1 -0.4 -0.6 -0.9 -0.7 -1.3 -0.2 -0.3 0.5 -1.4 0.7 -2.3 0.5z"/>
 </g>
 <g fill="#e0d9a4">
  <path d="M243.1 391.9 c-1.8 -0.6 -3.2 -1.1 -3 -1.2 0.2 -0.2 5.1 -0.1 10.9 0.1 6.7 0.3 9.8 0.7 8.5 1.3 -2.7 1.1 -12.3 0.9 -16.4 -0.2z"/>
  <path d="M293 369.1 c0 -0.7 -5.2 -1.2 -13.7 -1.4 l-13.8 -0.3 14.8 -0.2 c13.4 -0.2 16.8 0.4 13.7 2.3 -0.5 0.3 -1 0.2 -1 -0.4z"/>
  <path d="M230.3 368.3 c6.4 -0.2 17 -0.2 23.5 0 6.4 0.1 1.1 0.3 -11.8 0.3 -12.9 0 -18.2 -0.2 -11.7 -0.3z"/>
  <path d="M208 357.8 c0 -0.4 3 -0.8 6.8 -0.7 7.7 0.1 7.3 0.6 -1 1.2 -3.2 0.2 -5.8 0 -5.8 -0.5z"/>
  <path d="M236.8 358.3 c2.3 -0.2 5.9 -0.2 8 0 2 0.2 0.1 0.4 -4.3 0.4 -4.4 0 -6.1 -0.2 -3.7 -0.4z"/>
  <path d="M223.7 357 c0.5 -0.5 69.5 -2.7 70.2 -2.2 0.3 0.1 -0.1 0.8 -0.8 1.5 -0.9 0.9 -9.7 1.2 -35.6 1.2 -18.9 0 -34.1 -0.2 -33.8 -0.5z"/>
  <path d="M227.3 346.3 c4.2 -0.2 11.2 -0.2 15.5 0 4.2 0.1 0.7 0.3 -7.8 0.3 -8.5 0 -12 -0.2 -7.7 -0.3z"/>
  <path d="M260.8 345.3 c3.9 -0.2 10.5 -0.2 14.5 0 3.9 0.1 0.7 0.3 -7.3 0.3 -8 0 -11.2 -0.2 -7.2 -0.3z"/>
  <path d="M227.3 344.3 c2.6 -0.2 6.8 -0.2 9.5 0 2.6 0.2 0.4 0.3 -4.8 0.3 -5.2 0 -7.4 -0.1 -4.7 -0.3z"/>
  <path d="M293 344 c0 -0.8 -2.3 -1.1 -7.4 -0.8 -4.1 0.2 -7.2 0 -6.9 -0.4 0.6 -1.2 16.3 -1 16.3 0.1 0 0.6 -0.4 1.3 -1 1.6 -0.5 0.3 -1 0.1 -1 -0.5z"/>
  <path d="M256.3 343.3 c2 -0.2 5.4 -0.2 7.5 0 2 0.2 0.3 0.4 -3.8 0.4 -4.1 0 -5.8 -0.2 -3.7 -0.4z"/>
  <path d="M270.3 343.3 c1.5 -0.2 3.7 -0.2 5 0 1.2 0.2 0 0.4 -2.8 0.4 -2.7 0 -3.8 -0.2 -2.2 -0.4z"/>
  <path d="M222.5 334 c8.3 -0.4 22 -0.7 30.5 -0.7 l15.5 0.1 -18 0.7 c-9.9 0.3 -23.6 0.6 -30.5 0.6 l-12.5 -0.1 15 -0.6z"/>
  <path d="M282.3 332.3 c2 -0.2 5.4 -0.2 7.5 0 2 0.2 0.3 0.4 -3.8 0.4 -4.1 0 -5.8 -0.2 -3.7 -0.4z"/>
  <path d="M241.3 331.3 c1.5 -0.2 3.7 -0.2 5 0 1.2 0.2 0 0.4 -2.8 0.4 -2.7 0 -3.8 -0.2 -2.2 -0.4z"/>
  <path d="M295 331.2 c0 -0.7 -1 -1.3 -2.2 -1.3 -1.9 -0.1 -2 -0.2 -0.4 -0.6 2 -0.5 4.4 1.2 3.3 2.4 -0.4 0.3 -0.7 0.1 -0.7 -0.5z"/>
  <path d="M265.3 246.7 c-4.1 -2.7 -4.1 -3.7 -0.3 -3.7 2.5 0 3.1 -0.5 4.1 -4 1 -3.1 1.7 -4 3.5 -4 l2.3 0 -2.3 6.7 c-1.2 3.7 -2.7 6.8 -3.2 6.9 -0.5 0.2 -2.4 -0.7 -4.1 -1.9z"/>
  <path d="M226.4 243.3 c-0.8 -2.1 -1.9 -4.7 -2.4 -5.8 -2.5 -5.8 -4.9 -13.5 -4 -13.5 1.3 0 1.5 0.4 5.3 12.3 3.4 10.5 4 14.3 1.1 7z"/>
  <path d="M243 242 c0 -1.6 0.7 -2 3.5 -2 4 0 4.9 2.4 1.3 3.4 -3.8 1 -4.8 0.7 -4.8 -1.4z"/>
  <path d="M250 221.5 c0 -3.3 0.2 -3.5 3.5 -3.5 3.4 0 4.7 1.3 2.3 2.3 -1 0.4 -0.9 0.8 0.2 1.6 1.3 1 1.3 1.2 0 2.1 -0.8 0.5 -2.5 1 -3.7 1 -2 0 -2.3 -0.5 -2.3 -3.5z"/>
  <path d="M276.3 220.4 c0.2 -2.6 0.9 -4.9 1.4 -5.3 0.6 -0.3 1.3 -2.3 1.7 -4.3 0.6 -3.2 1.1 -3.8 3.1 -3.8 l2.4 0 -3 8.1 c-3.4 9.4 -3.7 9.9 -5.1 9.9 -0.7 0 -0.9 -1.7 -0.5 -4.6z"/>
  <path d="M284.2 221 c0.8 -2.5 2.8 -5.1 2.8 -3.7 0 1.5 -2.4 6.7 -3 6.7 -0.5 0 -0.4 -1.4 0.2 -3z"/>
  <path d="M287.2 213 c0.5 -1.7 1.5 -3.3 2.1 -3.7 0.7 -0.4 0.8 0 0.3 1.3 -0.5 1 -1.1 2.7 -1.3 3.7 -0.3 0.9 -0.9 1.7 -1.4 1.7 -0.4 0 -0.3 -1.4 0.3 -3z"/>
  <path d="M215.9 212.5 c-0.3 -0.5 -3.2 -9 -6.4 -18.7 l-5.8 -17.7 -3.6 -0.5 c-5.7 -0.9 -17.5 -1.1 -18.7 -0.4 -0.6 0.4 -2.1 0.1 -3.5 -0.6 -1.3 -0.7 -3 -1.1 -3.7 -0.8 -1 0.3 -1.2 -1 -0.7 -5.9 0.6 -6.9 1.1 -10.4 1.4 -10.4 0.1 0 0.4 -1.3 0.6 -2.8 0.2 -1.6 1.2 -3.5 2.2 -4.3 1 -0.8 1.3 -1.3 0.6 -1.4 -1 0 -1 -0.6 -0.2 -2.4 0.8 -1.7 1.7 -2.2 3.3 -1.8 1.9 0.5 2 0.4 0.7 -1.2 -0.8 -0.9 -1.1 -1.9 -0.7 -2.3 0.3 -0.3 0.6 -0.1 0.6 0.5 0 0.7 0.7 1.2 1.6 1.2 1.4 0 1.5 -0.2 0.3 -1.7 -1 -1.1 -1 -1.4 -0.1 -0.9 0.6 0.4 1.2 0.2 1.2 -0.3 0 -0.6 -0.5 -1.1 -1.1 -1.1 -0.5 0 -0.7 -0.4 -0.4 -1 1 -1.5 2.3 -1.2 2.8 0.8 0.4 1.6 0.5 1.6 0.6 0 0 -1 0.6 -1.8 1.1 -1.8 0.6 0 1 -0.7 1 -1.5 0 -0.8 0.5 -1.5 1.1 -1.5 0.6 0 0.9 -0.6 0.6 -1.4 -0.4 -0.9 0.2 -1.2 1.8 -1 2.3 0.2 5.2 -2 5.5 -4.1 0.1 -0.5 0.8 -0.9 1.7 -0.7 1.1 0.3 1.4 -0.1 0.9 -1.3 -0.4 -1.3 -0.2 -1.6 0.9 -1.1 0.8 0.3 1.5 0.1 1.5 -0.4 0 -0.6 0.7 -1 1.5 -1 0.8 0 1.5 -0.5 1.5 -1.2 0 -0.6 0.3 -0.8 0.6 -0.5 0.4 0.3 1.5 0.2 2.5 -0.4 1.6 -0.8 1.9 -0.6 1.9 1.8 0 3.3 -2.3 7 -7 11.3 -10.5 9.5 -12.2 12.1 -16.9 25.5 -1.2 3.3 -2.6 6.2 -3.1 6.3 -0.6 0.2 -1 1.5 -1 2.8 0 2.4 0 2.4 11.4 2.4 10.4 0 11.4 0.2 11 1.8 -0.3 0.9 2.2 9.8 5.6 19.7 3.3 9.9 5.9 18.6 5.8 19.5 -0.2 0.8 -0.6 1.1 -0.9 0.5z"/>
  <path d="M221.5 210 c-0.3 -0.5 -1.4 -3.4 -2.5 -6.5 l-1.9 -5.5 2.3 0 c1.8 0 2.5 0.8 3.4 3.9 0.7 2.1 1.2 5 1.2 6.5 0 2.6 -1.3 3.5 -2.5 1.6z"/>
  <path d="M246 203 c0 -1.7 0.7 -2 4 -2 3.3 0 4 0.3 4 2 0 1.7 -0.7 2 -4 2 -3.3 0 -4 -0.3 -4 -2z"/>
  <path d="M234.8 203.3 c-1 -0.2 -1.8 -1.1 -1.8 -1.9 0 -0.8 -1 -1.4 -2.3 -1.4 -2.8 0 -4.7 -1.7 -4.7 -4.2 0 -1 -0.7 -1.8 -1.5 -1.8 -1 0 -1.5 -1.1 -1.5 -3.5 0 -1.9 0.5 -3.5 1 -3.5 0.6 0 1 0.4 1 0.9 0 0.5 2 3.1 4.5 5.9 3.2 3.6 5.7 5.3 9 6.2 5.3 1.5 6.2 4.1 1.3 3.9 -1.8 -0.1 -4.1 -0.3 -5 -0.6z"/>
  <path d="M261 202.7 c0 -0.8 1.9 -2 4.3 -2.7 2.3 -0.7 5.4 -2.1 7 -3.2 l2.7 -1.9 0 3 c0 2.2 -0.5 3.1 -1.6 3.1 -0.8 0 -2.2 0.7 -3 1.5 -2 1.9 -9.4 2 -9.4 0.2z"/>
  <path d="M293.2 196 c1.3 -4 3.1 -5 2.2 -1.3 -0.8 3.5 -1.3 4.3 -2.4 4.3 -0.5 0 -0.4 -1.4 0.2 -3z"/>
  <path d="M244 196.3 c-2.6 -1.1 -3.7 -2.8 -5.3 -8.1 l-1.5 -5.2 2.4 0 c2 0 2.4 0.6 3 5 l0.7 5 8.7 0 c9.2 0 10 -0.4 10 -5.1 0 -1.3 0.7 -1.9 2.1 -1.9 1.9 0 2 0.4 1.3 4.8 -0.3 2.6 -0.8 4.8 -0.9 5 -0.6 0.7 -19.1 1.2 -20.5 0.5z"/>
  <path d="M215.6 193.8 c-1 -3.8 -0.7 -4.8 1.4 -4.8 1.6 0 2 0.7 2 3.5 0 4 -2.4 4.9 -3.4 1.3z"/>
  <path d="M231.3 189.9 c-2.2 -3.4 -2.4 -4.2 -1.2 -5 1.1 -0.7 1.1 -0.9 -0.4 -0.9 -1.1 0 -2.3 -1.3 -3.2 -3.2 -1.6 -4 -1.4 -4.4 1.7 -2.4 2.9 1.9 6.3 7.8 7.1 12.4 0.9 4.4 -0.7 4 -4 -0.9z"/>
  <path d="M269 192.4 c0.1 -3.2 3.5 -9.7 6.9 -12.8 1.7 -1.6 3.3 -2.7 3.6 -2.4 0.9 0.8 -5.3 12.3 -8 14.8 -2.3 2.2 -2.5 2.2 -2.5 0.4z"/>
  <path d="M278.7 189.3 c1.1 -1.6 2.4 -4 3.1 -5.5 1.6 -3.9 3.2 -3.5 3.2 0.7 0 1.9 -0.4 3.5 -1 3.5 -0.5 0 -1 0.9 -1 2 0 1.6 -0.7 2 -3.1 2 l-3 0 1.8 -2.7z"/>
  <path d="M289 185.9 c0 -1.9 0.7 -3.7 1.8 -4.5 1.6 -1.3 1.6 -1.3 -0.3 -1.5 -1.1 0 -3.2 0 -4.7 0.1 -2.6 0.1 -2.7 0 -1.8 -3.1 0.5 -1.8 1.4 -3.7 1.8 -4.1 1 -1 11.2 0.1 11.2 1.2 0 0.4 -1.3 3.8 -2.8 7.5 -3.1 7.7 -5.2 9.4 -5.2 4.4z"/>
  <path d="M297.2 185 c0.5 -1.7 1.5 -3.3 2.1 -3.7 0.7 -0.4 0.8 0 0.3 1.3 -0.5 1 -1.1 2.7 -1.3 3.7 -0.3 0.9 -0.9 1.7 -1.4 1.7 -0.4 0 -0.3 -1.4 0.3 -3z"/>
  <path d="M211.5 180.7 c-0.7 -1.8 -1.5 -4.6 -1.7 -6.3 -0.3 -2.7 -0.1 -2.9 3.8 -3.2 4.8 -0.4 6.4 1.1 8 7.4 1 4.2 1 4.4 -1.1 4.4 -1.4 0 -2.5 -0.8 -2.8 -2 -0.7 -2.8 -2.7 -2.5 -2.7 0.5 0 3.5 -1.9 3.1 -3.5 -0.8z"/>
  <path d="M266 181 l0 -3 -10 0 -10 0 0 -3.5 0 -3.5 16 0 c8.8 0 16 0.2 16 0.5 0 0.3 -1.6 1.9 -3.5 3.6 -1.9 1.7 -4.3 4.4 -5.2 6 -2.2 3.7 -3.3 3.7 -3.3 -0.1z"/>
  <path d="M232.4 176.9 c-1.5 -1.6 -3.4 -2.9 -4.1 -2.9 -0.7 0 -1.3 -0.7 -1.3 -1.5 0 -1.2 1.3 -1.5 5.5 -1.5 5.5 0 5.5 0 5.5 3.1 0 1.7 -0.6 3.7 -1.4 4.4 -1.1 1.2 -1.8 0.9 -4.2 -1.6z"/>
  <path d="M300.2 175.7 l0 -3.7 4.9 0 c4.2 0 4.9 0.3 4.9 2 0 1.7 -0.7 2 -4 2 -2.6 0 -4.2 0.5 -4.9 1.7 -0.7 1.3 -0.9 0.9 -0.9 -2z"/>
 </g>
 <g fill="#fdf57c">
  <path d="M274.1 253.5 c-0.1 -3.4 25.8 -77.5 27.1 -77.5 1 0 0 3 -15.2 44.5 -4.1 11 -8.4 23.4 -9.6 27.5 -1.3 4.1 -2.3 6.6 -2.3 5.5z"/>
  <path d="M229.1 252.8 c-0.1 -2 -2.7 -9.8 -4.6 -14.3 -1.8 -4.2 -6.1 -16.2 -7.5 -21 -0.6 -2.2 -3.9 -12.4 -7.2 -22.7 -5.1 -15.7 -6.4 -18.8 -8.2 -19.1 -1.7 -0.3 -1.5 -0.5 0.6 -0.6 2.7 -0.1 2.8 0.1 15.3 38.1 6.9 21 12.4 38.9 12.2 39.7 -0.4 1.3 -0.5 1.3 -0.6 -0.1z"/>
  <path d="M222.4 213.2 c-6.4 -19.6 -11.9 -36.2 -12.1 -36.9 -0.3 -0.7 1 -1.3 3.4 -1.6 l3.8 -0.4 -4.2 -0.1 c-6 -0.3 -5.4 -2.2 0.6 -2.2 3.1 0 5.3 0.5 6.1 1.5 1 1.2 0.9 1.5 -0.6 1.5 -1.5 0 -1.6 0.2 -0.5 0.9 0.7 0.5 2.6 3.8 4.1 7.4 3.6 8.6 7.2 13.2 12.6 15.7 3.8 1.9 6.1 2.2 16.9 2.1 10.4 0 13.1 -0.4 16.4 -2.1 5.1 -2.6 10.6 -9.4 13.5 -16.7 l2.3 -5.8 4.9 0.3 c2.7 0.2 5.1 0.5 5.2 0.7 0.4 0.4 -4.7 15 -12 35 -2.5 6.6 -6.4 17.5 -8.7 24.2 l-4.3 12.1 -5 -2.6 c-3.4 -1.8 -7.1 -2.8 -11.4 -3 -5.4 -0.4 -7.2 0 -12.8 2.6 l-6.5 3 -11.7 -35.6z m34.4 23.1 c-1.3 -0.3 -1.8 -1.5 -1.8 -4.4 0 -2.4 0.4 -3.8 1 -3.4 0.6 0.3 1 1.9 1 3.6 0 1.6 0.4 2.9 0.8 2.9 0.5 0 0.8 -1.7 0.7 -3.7 -0.2 -2.8 -0.8 -3.9 -2.1 -4.2 -1.1 -0.2 -2.2 -0.8 -2.5 -1.3 -0.4 -0.6 -0.6 0.5 -0.4 2.3 0.2 1.9 0.3 4.6 0.4 6.2 0.1 2.1 0.6 2.7 2.4 2.6 1.6 -0.1 1.8 -0.2 0.5 -0.6z m-3.6 -16.5 c-0.6 -0.6 -1.5 -0.8 -1.9 -0.4 -0.4 0.4 -0.1 1.1 0.7 1.6 1.9 1.2 2.7 0.3 1.2 -1.2z"/>
  <path d="M244.8 196.3 c-4.1 -0.4 -4.8 -0.7 -4.8 -2.6 0 -3.9 -2 -9.3 -5 -13.8 -2.6 -3.9 -2.7 -4.5 -1.2 -5.1 1.1 -0.4 0.6 -0.7 -1.5 -0.7 -1.8 -0.1 -3.3 -0.5 -3.3 -1.1 0 -0.6 8.5 -1 23.5 -1 15 0 23.5 0.4 23.5 1 0 0.6 -5.4 1.1 -13.7 1.2 l-13.8 0.2 12.3 0.6 12.3 0.5 -2.5 3.4 c-2.5 3.4 -4.9 9.1 -6 14.4 -0.5 2.2 -1.2 2.7 -3.5 2.7 -1.5 0 -4.8 0.2 -7.2 0.4 -2.4 0.2 -6.5 0.1 -9.1 -0.1z"/>
  <path d="M232.6 190.9 c-2.8 -3.2 -4.9 -7 -6.6 -11.4 -0.9 -2.3 -0.8 -2.5 0.9 -1.6 2 1.1 7.1 6.8 7.1 7.9 0 0.4 0.4 2.4 0.9 4.5 0.5 2 0.8 3.7 0.6 3.7 -0.2 0 -1.5 -1.4 -2.9 -3.1z"/>
  <path d="M269.5 190.8 c2 -6.4 7.5 -14.1 9.1 -12.6 0.6 0.7 -2.8 7.8 -5.8 12.1 -2.3 3.3 -4.2 3.6 -3.3 0.5z"/>
  <path d="M286.8 175.3 c-2.1 -0.5 -2.4 -2.3 -0.4 -2.3 3.7 0 10.6 1.4 10.6 2.1 0 0.9 -7.1 1 -10.2 0.2z"/>
  <path d="M301.7 175.2 c-0.9 -0.2 -1.7 -1 -1.7 -1.8 0 -1.1 1.5 -1.4 6.5 -1.4 5.1 0 6.5 0.3 6.5 1.5 0 0.8 -0.8 1.6 -1.7 1.7 -3.8 0.3 -8 0.3 -9.6 0z"/>
  <path d="M176.7 174.4 c-0.3 -0.5 -0.2 -1.6 0.2 -2.3 0.5 -0.7 0.6 -2.3 0.3 -3.5 -0.5 -1.7 -0.7 -1.5 -1.2 1.3 -0.3 1.9 -1.1 3.6 -1.9 3.9 -1.1 0.4 -1.3 -0.2 -0.7 -2.9 0.4 -1.9 0.9 -5.4 1.1 -7.9 0.5 -7.2 1.6 -11.4 3.1 -12.3 0.7 -0.4 1.1 -1.4 0.8 -2.2 -0.4 -0.8 -0.1 -1.5 0.6 -1.5 0.6 0 0.8 -0.5 0.5 -1 -0.3 -0.6 0.3 -1 1.5 -1 1.2 0 1.8 -0.5 1.5 -1 -0.4 -0.6 -1.1 -0.7 -1.7 -0.4 -0.6 0.4 -0.8 0.2 -0.5 -0.4 0.4 -0.5 1.7 -0.8 3 -0.5 2.2 0.4 2.2 0.4 0.2 -1.3 -1.8 -1.5 -1.8 -1.6 -0.1 -1 1.3 0.5 1.7 0.2 1.3 -0.9 -0.4 -0.8 -0.2 -1.7 0.3 -2 0.9 -0.6 1.5 1.7 1 4 -0.1 0.6 1.3 -0.3 3.1 -2 2.4 -2.3 3 -2.5 2.5 -1.1 -0.7 1.9 -0.6 1.9 1.4 0.1 2 -1.8 2 -1.8 2 0.6 0 1.3 -1.1 4 -2.3 5.9 -1.3 1.9 -2.6 4.4 -3 5.5 -0.3 1.1 -1.9 6 -3.7 10.8 -1.9 5.4 -2.9 9.6 -2.4 10.9 0.5 1.8 0.3 2 -2.5 1.6 -1.7 -0.2 -3.2 0 -3.4 0.6 -0.2 0.7 -0.5 0.7 -1 0z m4.2 -7.4 c0 -0.9 -0.4 -0.8 -0.9 0.5 -0.5 1.1 -0.9 2.7 -0.9 3.5 0 0.9 0.4 0.8 0.9 -0.5 0.5 -1.1 0.9 -2.7 0.9 -3.5z m2.9 -9.5 c0 -0.5 -0.6 0.4 -1.3 2 -0.8 1.7 -1.4 3.7 -1.4 4.5 0 0.8 0.7 -0.1 1.4 -2 0.7 -1.9 1.3 -3.9 1.3 -4.5z"/>
  <path d="M197 173 c0 -0.5 1.8 -1 4 -1 2.2 0 4 0.5 4 1 0 0.6 -1.8 1 -4 1 -2.2 0 -4 -0.4 -4 -1z"/>
  <path d="M187 138.5 c0 -0.8 0.5 -1.5 1 -1.5 0.6 0 1 -0.7 1 -1.5 0 -0.9 0.9 -1.5 2.2 -1.5 2.1 0 2.1 0.1 -0.7 3 -3.3 3.4 -3.5 3.5 -3.5 1.5z"/>
 </g>
 <g fill="#a7f1e7">
  <path d="M286.7 175.3 c-2.5 -0.6 -1.7 -2.4 2.2 -4.7 4.1 -2.4 8.1 -1 8.1 2.9 0 2.3 -0.3 2.5 -4.2 2.4 -2.4 -0.1 -5.1 -0.3 -6.1 -0.6z"/>
  <path d="M213.3 174.3 c-4.5 -0.4 -5.2 -1.3 -2.8 -3.3 1.9 -1.5 6.8 -0.5 9.1 2.1 1.6 1.8 1.6 1.9 -0.2 1.7 -1 -0.1 -3.8 -0.3 -6.1 -0.5z"/>
  <path d="M230.9 174.1 c-2.6 -0.4 -6.5 -1.9 -8.9 -3.5 -7.4 -4.9 -14.7 -4.3 -16.5 1.4 -0.6 1.9 -1.5 2 -13.6 2 -7.1 0 -12.9 -0.2 -12.9 -0.5 0 -0.3 2.1 -6.8 4.6 -14.3 4.6 -13.9 7.1 -18.9 11.5 -22.9 5.2 -4.6 9.5 -8.9 11.4 -11.2 l2 -2.4 -3.4 1.9 c-5.2 2.9 -23 20.9 -23.8 24 -0.1 0.5 -0.9 2.8 -1.8 5.1 -0.8 2.3 -2 7.7 -2.8 12 l-1.2 7.8 -5.5 0.2 c-3 0.1 -4.6 -0.1 -3.5 -0.4 1.1 -0.3 2.5 -1 3 -1.5 0.7 -0.7 0.5 -0.9 -0.5 -0.6 -0.8 0.3 -2 -0.2 -2.7 -1.1 -0.6 -0.9 -1.5 -1.2 -1.9 -0.8 -0.5 0.4 -0.2 1.2 0.6 1.7 0.8 0.6 1 1 0.4 1 -0.6 0 -1.9 -1 -2.8 -2.2 -1.2 -1.6 -1.6 -1.8 -1.2 -0.5 0.3 0.9 0.1 1.7 -0.4 1.7 -0.6 0 -1 -1.3 -1 -3 0 -1.6 0.5 -3 1.1 -3 0.5 0 0.8 0.4 0.5 0.9 -0.3 0.5 0.1 1.2 1 1.5 2.3 0.9 3.4 0.7 3.4 -0.5 0 -0.5 -0.5 -0.7 -1 -0.4 -0.6 0.3 -1 0.1 -1 -0.4 0 -1.5 2.7 -1.4 3.3 0.2 0.3 0.7 0.6 0.5 0.6 -0.5 0.1 -1 -0.3 -1.8 -0.9 -1.8 -0.5 0 -1 -0.8 -0.9 -1.7 0 -1.1 0.3 -1.3 0.6 -0.5 0.7 1.7 1.6 1.5 3.1 -0.8 1 -1.7 1 -2.3 -0.1 -3.5 -0.8 -0.8 -1.7 -1.2 -1.9 -0.9 -0.3 0.2 -1.3 -0.7 -2.2 -2 -1.4 -2.2 -1.4 -2.5 -0.1 -2 0.8 0.4 1.5 1 1.5 1.5 0 0.5 0.5 0.9 1 0.9 0.6 0 0.8 -1.2 0.5 -2.7 -0.5 -2.6 -0.5 -2.6 0.4 -0.5 1.2 2.5 3.1 3 3.1 0.7 0 -0.8 0.5 -1.5 1.2 -1.5 0.6 0 0.8 -0.3 0.5 -0.6 -0.4 -0.4 -1.4 -0.1 -2.3 0.7 -1.5 1.2 -1.6 1.1 -0.9 -1 0.6 -2 0.4 -2.3 -0.9 -1.8 -0.9 0.4 -1.6 0.2 -1.6 -0.3 0 -0.6 0.6 -1 1.3 -1 0.8 0 1.9 -1 2.5 -2.2 1.1 -2.2 1.2 -2.1 0.9 0.7 -0.2 1.7 -0.2 2.4 0 1.8 0.3 -0.7 1.1 -1.3 1.9 -1.3 0.8 0 1.4 -0.4 1.4 -1 0 -0.5 -0.4 -1 -0.9 -1 -1.4 0 0 -4.7 2 -6.9 1 -1.1 1.9 -2.5 1.9 -3.1 0 -0.5 0.4 -1 0.9 -1 0.5 0 0.7 1 0.4 2.3 -0.4 2 -0.3 2.1 1 0.4 0.8 -0.9 1.8 -1.7 2.2 -1.7 0.4 0 0.2 0.7 -0.5 1.5 -0.7 0.9 -1 1.9 -0.6 2.2 0.4 0.4 1.1 0.1 1.6 -0.7 0.7 -1.2 1.1 -1 1.9 1 0.7 1.8 1 2 1 0.8 0.1 -1 0.6 -1.8 1.1 -1.8 0.6 0 1 -0.6 1 -1.4 0 -0.8 0.6 -1.7 1.3 -1.9 0.9 -0.4 0.8 -0.8 -0.3 -1.6 -1.1 -0.8 -0.8 -0.9 1.5 -0.7 3.6 0.4 5.2 -0.3 3.4 -1.6 -1.1 -0.7 -0.9 -0.8 0.6 -0.6 1.2 0.2 2 -0.3 2 -1.2 0 -0.9 0.8 -1.4 1.9 -1.2 1.4 0.3 1.7 -0.1 1.2 -1.3 -0.4 -1.3 -0.2 -1.6 0.9 -1.1 0.8 0.3 1.5 0.1 1.5 -0.4 0 -0.6 0.7 -1 1.5 -1 0.8 0 1.5 -0.5 1.5 -1.2 0 -0.6 0.2 -0.9 0.6 -0.6 0.3 0.3 2.7 -0.3 5.5 -1.3 5.7 -2.2 8.5 -2.4 9.2 -0.6 0.4 0.9 0.6 0.9 0.6 0 0.1 -0.7 0.8 -1 1.8 -0.6 1 0.4 1.4 0.2 1 -0.4 -0.5 -0.7 0.1 -0.9 1.5 -0.5 1.2 0.3 1.7 0.7 1 1 -2.1 0.7 -1.3 2.2 1.3 2.2 1.4 0 2.5 0.5 2.5 1 0 1.4 3.7 1.2 4.4 -0.2 0.3 -0.7 0.3 0.1 0.1 1.7 -0.3 1.7 -0.3 2.5 0 1.9 0.3 -0.7 2.2 -1 4.3 -0.8 2 0.1 2.8 0 1.8 -0.3 -1.4 -0.4 -1.6 -0.7 -0.6 -1.3 1.8 -1.1 4 -0.1 4 1.9 0 1.3 0.2 1.3 0.9 0.2 0.5 -0.8 1.8 -1.2 3 -0.8 1.2 0.3 1.9 0.1 1.5 -0.4 -0.3 -0.5 -0.1 -0.9 0.5 -0.9 0.5 0 1.2 0.6 1.4 1.3 0.4 0.9 0.8 0.8 1.6 -0.3 0.8 -1.2 1.1 -1.2 1.1 -0.1 0 1.1 0.3 1.1 1.5 0.1 0.9 -0.7 1.8 -1 2.2 -0.6 0.3 0.3 0.1 0.6 -0.5 0.6 -0.7 0 -1.2 0.8 -1.1 1.8 0 1 0.3 1.2 0.6 0.5 0.2 -0.7 1.4 -1.3 2.4 -1.3 1.1 0 1.8 0.4 1.4 0.9 -0.3 0.5 -0.1 1.2 0.5 1.6 0.5 0.3 1 0.1 1 -0.5 0 -0.7 0.6 -1 1.4 -0.7 0.8 0.3 1.7 0.3 2.1 -0.1 1.3 -1.3 5 -0.6 6.6 1.2 1.3 1.5 1.9 1.7 3.7 0.7 1.9 -1 2.2 -0.8 3 2.1 l0.9 3.3 0.7 -3.7 c0.4 -2.1 0.8 -3.8 1 -3.8 1.3 0 5.4 2.8 4.9 3.3 -0.3 0.4 0.3 1.5 1.4 2.4 1.1 1 1.8 2.5 1.5 3.3 -0.4 1.2 -0.2 1.3 0.9 0.3 1 -0.8 2 -0.9 2.9 -0.3 2.4 1.6 4 1.2 3.3 -0.8 -0.4 -0.9 0.7 -0.1 2.3 1.8 1.6 1.9 3.3 3.8 3.9 4.3 0.6 0.4 0.5 1 -0.5 1.6 -0.8 0.6 -1.2 1.3 -0.8 1.6 0.3 0.3 1.3 -0.1 2.1 -1 3.1 -3 3.8 -1.1 0.9 2.3 -1.4 1.6 -2.2 1.8 -3 1 -0.8 -0.8 -0.9 -0.5 -0.5 1.1 0.4 1.7 0.8 1.9 1.9 1 2.1 -1.8 4 -0.6 2 1.3 -0.9 0.9 -1.2 1.9 -0.7 2.2 0.5 0.3 1.2 -0.1 1.5 -1 0.4 -1 1.3 -1.3 2.7 -0.9 1.5 0.5 1.9 0.4 1.5 -0.4 -0.4 -0.6 -0.2 -1.1 0.3 -1.1 1.6 0 1.3 1.6 -0.5 3.4 -0.8 0.9 -1.1 1.6 -0.5 1.6 0.5 0 1.6 -0.6 2.4 -1.4 1.4 -1.5 2.7 -0.6 5.2 3.4 0.8 1.3 0.6 1.3 -0.8 0.1 -1.5 -1.2 -1.7 -1.1 -1.7 0.2 0 0.9 0.8 2.1 1.8 2.6 1.5 0.9 1.5 1.2 0.2 2.1 -1.2 0.8 -1.1 1 0.8 1 1.2 0 2.2 -0.3 2.2 -0.8 0 -0.4 1 -1.3 2.3 -2.1 2.1 -1.3 2.2 -1.3 0.5 0.6 -1 1.1 -1.8 2.3 -1.8 2.6 0 0.4 0.8 0.7 1.8 0.8 1 0 1.2 0.3 0.5 0.6 -1 0.3 -1 0.8 0.1 1.9 0.8 0.8 2 1.4 2.6 1.4 0.7 0 0.9 0.7 0.6 1.6 -0.3 0.9 -0.6 1.8 -0.6 2 0 0.2 -0.7 0.4 -1.6 0.4 -0.8 0 -1.2 0.5 -0.9 1 0.4 0.6 -0.6 1 -2.2 1 -1.9 0 -2.4 0.3 -1.5 0.9 1.9 1.1 -1.6 1.7 -11.7 2 l-8 0.2 -0.3 -3.3 c-0.6 -6.2 -9.3 -7.5 -15.5 -2.4 -1.5 1.3 -4.4 2.8 -6.3 3.4 -4.1 1.2 -40.4 2.2 -47.1 1.3z m89.3 -3.1 c1 0 1.8 -0.4 1.8 -0.8 0 -0.5 1 -1.4 2.3 -2 1.7 -0.8 1.8 -1.1 0.5 -1.1 -1 -0.1 -1.8 -0.6 -1.8 -1.2 0 -0.5 -1.3 -0.2 -3 0.8 -1.6 0.9 -3 2 -3 2.4 0 0.4 -0.3 1.6 -0.6 2.6 -0.6 1.5 -0.4 1.6 0.7 0.6 0.7 -0.7 2.1 -1.3 3.1 -1.3z m-149.3 -7.1 c-1.9 -1.1 -2.4 -0.3 -0.8 1.4 0.8 0.9 1.6 1.1 1.8 0.5 0.2 -0.6 -0.3 -1.4 -1 -1.9z m147.9 1.2 c1.2 -1 2.2 -2.1 2.2 -2.5 0 -1 -3.8 -0.7 -4.5 0.4 -0.3 0.6 -0.1 1 0.6 1 0.8 0 0.8 0.4 -0.1 1.5 -1.7 2.1 -0.7 1.9 1.8 -0.4z m-8.2 -3.8 c-1 -1 -4.6 -1.1 -4.6 -0.1 0 0.4 1.2 0.8 2.7 0.8 1.4 0 2.3 -0.3 1.9 -0.7z m4.4 -1.7 c0 -1 -0.7 -1.2 -2.2 -0.8 -2.1 0.5 -2.1 0.6 -0.2 1.3 1 0.4 2 0.8 2.2 0.8 0.1 0.1 0.2 -0.5 0.2 -1.3z m-142.6 -3 c-0.6 -1.5 -2.4 -2.3 -2.4 -1.1 0 0.8 2.4 3.4 2.8 3 0.1 -0.1 0 -1 -0.4 -1.9z m4.6 -8.6 c0.8 -0.5 1.1 -1.2 0.7 -1.6 -0.4 -0.4 -1.5 0 -2.4 0.9 -1.8 1.8 -0.8 2.3 1.7 0.7z m4.4 -7.7 c0.5 -1.4 0.2 -2.3 -1 -2.7 -2.1 -0.8 -2.9 0 -3.8 3.4 -0.6 2.2 -0.5 2.2 1 -0.5 1.9 -3.2 3.2 -1.9 1.5 1.4 -0.6 1.1 -1.1 2.3 -1.1 2.6 0 1.3 2.7 -2.1 3.4 -4.2z m1.1 3.7 c-0.3 -0.5 0 -1 0.7 -1 0.8 0 1.4 -0.9 1.5 -2 0.1 -1.1 -0.3 -2 -0.8 -2 -0.6 0 -0.7 0.5 -0.4 1 0.3 0.6 0.2 1 -0.2 1 -0.5 0 -1.4 0.9 -2.1 2 -1 1.7 -1 2 0.4 2 0.8 0 1.2 -0.4 0.9 -1z m103.2 -12.8 c-1 -1 -1.7 -2.5 -1.7 -3.3 0 -1.2 -0.2 -1.2 -1 0.1 -0.6 1 -0.2 2 1.3 3.5 2.6 2.5 3.7 2.3 1.4 -0.3z"/>
  <path d="M319 169.1 c0 -1 3 -2.4 3.7 -1.7 0.3 0.2 -0.5 0.9 -1.6 1.6 -1.2 0.6 -2.1 0.7 -2.1 0.1z"/>
  <path d="M170 139.2 c0 -1.5 2.7 -4.5 3.2 -3.6 0.3 0.5 -0.3 1.7 -1.4 2.7 -1 0.9 -1.8 1.3 -1.8 0.9z"/>
 </g>
</svg>