<?xml version="1.0" standalone="no"?>
<!DOCTYPE svg PUBLIC "-//W3C//DTD SVG 20010904//EN"
 "http://www.w3.org/TR/2001/REC-SVG-20010904/DTD/svg10.dtd">
<svg version="1.0" xmlns="http://www.w3.org/2000/svg"
 width="95.000000pt" height="103.000000pt" viewBox="0 0 95.000000 103.000000"
 preserveAspectRatio="xMidYMid meet">

<g transform="translate(0.000000,103.000000) scale(0.100000,-0.100000)"
fill="#000000" stroke="none">
<path d="M461 1021 c-8 -5 -11 -30 -9 -72 3 -56 5 -64 23 -64 18 0 20 8 23 66
3 68 -8 88 -37 70z m27 -77 c-2 -27 -7 -49 -13 -49 -11 0 -19 79 -10 103 11
30 26 -5 23 -54z"/>
<path d="M227 927 c-7 -19 44 -97 64 -97 26 0 29 11 12 44 -30 60 -64 84 -76
53z"/>
<path d="M660 895 c-31 -45 -32 -65 -4 -65 19 0 74 78 67 96 -10 25 -32 15
-63 -31z"/>
<path d="M365 796 c-68 -31 -120 -92 -140 -161 -23 -76 -13 -138 32 -212 56
-92 63 -106 63 -138 0 -17 6 -40 14 -51 8 -11 11 -25 8 -31 -4 -6 -5 -40 -2
-75 4 -56 8 -63 28 -66 12 -2 26 -12 32 -22 5 -10 25 -24 44 -30 37 -12 61 -5
99 28 9 8 27 20 40 26 20 10 22 19 23 82 0 38 3 75 7 81 4 6 12 35 17 63 6 32
26 76 49 111 83 124 73 256 -26 351 -72 69 -195 88 -288 44z m233 -33 c83 -51
127 -155 108 -256 -4 -19 -25 -63 -47 -97 -22 -34 -45 -85 -51 -113 -12 -54
-29 -77 -60 -77 -16 0 -18 10 -18 89 0 76 5 102 35 186 22 60 32 102 27 107
-15 15 -71 -19 -78 -47 -5 -20 -12 -25 -39 -25 -27 0 -34 5 -39 25 -8 30 -58
59 -74 43 -7 -7 0 -41 24 -111 28 -83 34 -116 34 -184 0 -76 -2 -83 -20 -83
-31 0 -60 36 -60 73 0 21 -18 62 -50 117 -45 77 -50 91 -50 145 1 104 46 179
135 222 69 33 156 28 223 -14z m-198 -196 c0 -6 7 -19 17 -29 32 -35 133 -15
133 27 0 15 25 37 33 29 3 -3 -9 -47 -27 -97 l-33 -90 -50 -2 -50 -2 -27 86
c-31 102 -33 119 -11 101 8 -7 15 -17 15 -23z m131 -14 c-12 -20 -14 -14 -5
12 4 9 9 14 11 11 3 -2 0 -13 -6 -23z m-103 -8 c-3 -3 -9 2 -12 12 -6 14 -5
15 5 6 7 -7 10 -15 7 -18z m62 -236 c0 -81 -2 -90 -17 -87 -10 2 -18 11 -17
21 0 9 1 49 2 87 2 55 5 70 17 70 12 0 15 -17 15 -91z m-41 44 c0 -21 -4 -58
-8 -83 -8 -40 -9 -37 -10 38 0 49 3 82 9 82 6 0 10 -17 9 -37z m58 -60 c-2
-21 -4 -6 -4 32 0 39 2 55 4 38 2 -18 2 -50 0 -70z m26 -110 c-29 -2 -78 -2
-110 0 -32 2 -8 3 52 3 61 0 87 -1 58 -3z m46 -27 c-2 -2 -53 -6 -114 -9 -63
-3 -101 -2 -90 3 19 8 213 14 204 6z m0 -30 c-2 -2 -53 -6 -114 -9 -62 -3 -95
-2 -75 3 35 7 197 13 189 6z m-24 -36 c-16 -4 -66 -8 -110 -7 -63 0 -72 1 -40
7 56 10 190 10 150 0z m-72 -57 c-7 -2 -19 -2 -25 0 -7 3 -2 5 12 5 14 0 19
-2 13 -5z"/>
<path d="M140 747 c0 -19 21 -37 42 -37 23 0 24 35 2 44 -26 10 -44 7 -44 -7z"/>
<path d="M763 753 c-7 -2 -13 -13 -13 -24 0 -23 32 -26 50 -4 20 25 -3 42 -37
28z"/>
<path d="M6 582 c-14 -23 14 -33 80 -30 56 2 69 6 72 21 3 15 -6 17 -72 17
-41 0 -77 -4 -80 -8z"/>
<path d="M792 573 c3 -15 15 -18 73 -18 58 0 70 3 73 18 3 15 -6 17 -73 17
-67 0 -76 -2 -73 -17z"/>
</g>
</svg>
