<?xml version="1.0" standalone="no"?>
<!DOCTYPE svg PUBLIC "-//W3C//DTD SVG 20010904//EN"
 "http://www.w3.org/TR/2001/REC-SVG-20010904/DTD/svg10.dtd">
<svg version="1.0" xmlns="http://www.w3.org/2000/svg"
 width="135.000000pt" height="103.000000pt" viewBox="0 0 135.000000 103.000000"
 preserveAspectRatio="xMidYMid meet">

<g transform="translate(0.000000,103.000000) scale(0.100000,-0.100000)"
fill="#000000" stroke="none">
<path d="M644 897 c-3 -8 -4 -32 -2 -53 2 -28 8 -40 21 -42 16 -3 18 3 15 49
-3 51 -22 77 -34 46z m23 -69 c-2 -13 -4 -3 -4 22 0 25 2 35 4 23 2 -13 2 -33
0 -45z"/>
<path d="M480 828 c0 -7 11 -26 24 -43 34 -41 53 -23 25 23 -21 32 -49 43 -49
20z"/>
<path d="M801 814 c-23 -29 -26 -40 -12 -49 11 -6 62 56 55 67 -9 14 -22 9
-43 -18z"/>
<path d="M585 741 c-77 -35 -123 -116 -111 -198 3 -25 22 -70 41 -102 19 -31
35 -68 35 -83 0 -15 4 -29 8 -32 5 -3 7 -30 4 -60 -4 -51 -2 -56 19 -66 13 -5
36 -19 51 -31 l26 -22 51 33 c50 33 51 34 51 82 0 70 18 132 57 196 67 112 32
230 -82 283 -51 24 -99 24 -150 0z m179 -35 c48 -36 70 -80 70 -141 0 -41 -7
-61 -37 -110 -20 -33 -37 -68 -37 -78 0 -30 -20 -57 -41 -57 -20 0 -21 5 -17
74 2 41 1 70 -3 65 -3 -5 -14 -9 -25 -8 -52 5 -54 3 -54 -67 0 -62 -1 -65 -22
-62 -17 2 -25 14 -33 48 -7 25 -26 67 -43 94 -41 64 -44 129 -7 191 50 86 171
111 249 51z m-94 -321 c0 -37 -4 -65 -10 -65 -6 0 -10 28 -10 65 0 37 4 65 10
65 6 0 10 -28 10 -65z m-33 -7 c-2 -13 -4 -3 -4 22 0 25 2 35 4 23 2 -13 2
-33 0 -45z m50 0 c-2 -13 -4 -3 -4 22 0 25 2 35 4 23 2 -13 2 -33 0 -45z m46
-85 c-7 -2 -19 -2 -25 0 -7 3 -2 5 12 5 14 0 19 -2 13 -5z m-35 -30 c-21 -2
-57 -2 -80 0 -24 2 -7 4 37 4 44 0 63 -2 43 -4z m9 -20 c-20 -2 -52 -2 -70 0
-17 2 0 4 38 4 39 0 53 -2 32 -4z m26 -20 c-7 -2 -21 -2 -30 0 -10 3 -4 5 12
5 17 0 24 -2 18 -5z"/>
<path d="M575 590 c-3 -6 1 -7 9 -4 11 4 19 -2 26 -20 9 -25 30 -36 30 -16 0
6 -5 10 -11 10 -5 0 -8 4 -4 9 3 6 -3 15 -14 20 -24 13 -28 14 -36 1z"/>
<path d="M708 583 c-24 -29 -32 -46 -19 -42 7 3 13 9 14 14 1 13 18 30 37 38
13 4 12 6 -1 6 -9 1 -23 -7 -31 -16z"/>
<path d="M736 565 c-9 -26 -7 -32 5 -12 6 10 9 21 6 23 -2 3 -7 -2 -11 -11z"/>
<path d="M420 696 c0 -17 27 -29 35 -16 4 6 3 15 0 20 -9 15 -35 12 -35 -4z"/>
<path d="M865 700 c-3 -5 -3 -15 0 -20 7 -12 45 5 45 20 0 13 -37 13 -45 0z"/>
<path d="M315 580 c-3 -6 0 -13 8 -16 25 -9 100 0 105 14 5 15 -104 17 -113 2z"/>
<path d="M895 580 c-3 -5 0 -13 8 -16 23 -8 102 0 102 11 0 14 -102 19 -110 5z"/>
</g>
</svg>
